<mxfile host="65bd71144e">
    <diagram id="prtHgNgQTEPvFCAcTncT" name="Page-1">
        <mxGraphModel dx="1611" dy="1150" grid="1" gridSize="10" guides="1" tooltips="1" connect="1" arrows="1" fold="1" page="1" pageScale="1" pageWidth="827" pageHeight="1169" math="0" shadow="0">
            <root>
                <mxCell id="0"/>
                <mxCell id="1" parent="0"/>
                <mxCell id="F4tNx1M3XQuaekweOtgh-4" style="edgeStyle=orthogonalEdgeStyle;rounded=0;orthogonalLoop=1;jettySize=auto;html=1;entryX=0;entryY=0.5;entryDx=0;entryDy=0;" parent="1" source="F4tNx1M3XQuaekweOtgh-1" target="F4tNx1M3XQuaekweOtgh-2" edge="1">
                    <mxGeometry relative="1" as="geometry"/>
                </mxCell>
                <mxCell id="F4tNx1M3XQuaekweOtgh-5" style="edgeStyle=orthogonalEdgeStyle;rounded=0;orthogonalLoop=1;jettySize=auto;html=1;entryX=0;entryY=0.5;entryDx=0;entryDy=0;" parent="1" source="F4tNx1M3XQuaekweOtgh-1" target="F4tNx1M3XQuaekweOtgh-3" edge="1">
                    <mxGeometry relative="1" as="geometry"/>
                </mxCell>
                <mxCell id="F4tNx1M3XQuaekweOtgh-1" value="Job" style="rounded=1;whiteSpace=wrap;html=1;fontSize=12;glass=0;strokeWidth=1;shadow=0;strokeColor=#457B9D;fillColor=#A8DADC;fontColor=#1D3557;" parent="1" vertex="1">
                    <mxGeometry x="80" y="340" width="70" height="40" as="geometry"/>
                </mxCell>
                <mxCell id="F4tNx1M3XQuaekweOtgh-10" style="edgeStyle=orthogonalEdgeStyle;rounded=0;orthogonalLoop=1;jettySize=auto;html=1;exitX=1;exitY=0.5;exitDx=0;exitDy=0;entryX=0;entryY=0.5;entryDx=0;entryDy=0;" parent="1" source="F4tNx1M3XQuaekweOtgh-2" target="F4tNx1M3XQuaekweOtgh-6" edge="1">
                    <mxGeometry relative="1" as="geometry"/>
                </mxCell>
                <mxCell id="F4tNx1M3XQuaekweOtgh-11" style="edgeStyle=orthogonalEdgeStyle;rounded=0;orthogonalLoop=1;jettySize=auto;html=1;entryX=0;entryY=0.5;entryDx=0;entryDy=0;" parent="1" source="F4tNx1M3XQuaekweOtgh-2" target="F4tNx1M3XQuaekweOtgh-7" edge="1">
                    <mxGeometry relative="1" as="geometry">
                        <Array as="points">
                            <mxPoint x="417" y="250"/>
                            <mxPoint x="417" y="300"/>
                        </Array>
                    </mxGeometry>
                </mxCell>
                <mxCell id="vkRWF1eovzhUYJeVfTvy-2" value="&lt;b&gt;&lt;font color=&quot;#ff3333&quot;&gt;Cannot trig by two triggers directly&amp;nbsp;&lt;/font&gt;&lt;/b&gt;" style="text;html=1;align=center;verticalAlign=middle;resizable=0;points=[];labelBackgroundColor=#ffffff;" parent="F4tNx1M3XQuaekweOtgh-11" vertex="1" connectable="0">
                    <mxGeometry x="-0.8251" relative="1" as="geometry">
                        <mxPoint x="-53" y="-30" as="offset"/>
                    </mxGeometry>
                </mxCell>
                <mxCell id="F4tNx1M3XQuaekweOtgh-2" value="JobDetail" style="rounded=1;whiteSpace=wrap;html=1;fontSize=12;glass=0;strokeWidth=1;shadow=0;strokeColor=#457B9D;fillColor=#A8DADC;fontColor=#1D3557;" parent="1" vertex="1">
                    <mxGeometry x="230" y="230" width="80" height="40" as="geometry"/>
                </mxCell>
                <mxCell id="F4tNx1M3XQuaekweOtgh-12" style="edgeStyle=orthogonalEdgeStyle;rounded=0;orthogonalLoop=1;jettySize=auto;html=1;exitX=1;exitY=0.5;exitDx=0;exitDy=0;entryX=0;entryY=0.5;entryDx=0;entryDy=0;" parent="1" source="F4tNx1M3XQuaekweOtgh-3" target="F4tNx1M3XQuaekweOtgh-8" edge="1">
                    <mxGeometry relative="1" as="geometry"/>
                </mxCell>
                <mxCell id="F4tNx1M3XQuaekweOtgh-13" style="edgeStyle=orthogonalEdgeStyle;rounded=0;orthogonalLoop=1;jettySize=auto;html=1;entryX=0;entryY=0.5;entryDx=0;entryDy=0;" parent="1" source="F4tNx1M3XQuaekweOtgh-3" target="F4tNx1M3XQuaekweOtgh-9" edge="1">
                    <mxGeometry relative="1" as="geometry"/>
                </mxCell>
                <mxCell id="F4tNx1M3XQuaekweOtgh-3" value="JobDetail" style="rounded=1;whiteSpace=wrap;html=1;fontSize=12;glass=0;strokeWidth=1;shadow=0;strokeColor=#457B9D;fillColor=#A8DADC;fontColor=#1D3557;" parent="1" vertex="1">
                    <mxGeometry x="230" y="430" width="80" height="40" as="geometry"/>
                </mxCell>
                <mxCell id="F4tNx1M3XQuaekweOtgh-17" style="edgeStyle=orthogonalEdgeStyle;rounded=0;orthogonalLoop=1;jettySize=auto;html=1;exitX=1;exitY=0.5;exitDx=0;exitDy=0;" parent="1" source="F4tNx1M3XQuaekweOtgh-6" target="F4tNx1M3XQuaekweOtgh-14" edge="1">
                    <mxGeometry relative="1" as="geometry"/>
                </mxCell>
                <mxCell id="F4tNx1M3XQuaekweOtgh-6" value="Trigger" style="rounded=1;whiteSpace=wrap;html=1;fontSize=12;glass=0;strokeWidth=1;shadow=0;strokeColor=#457B9D;fillColor=#A8DADC;fontColor=#1D3557;" parent="1" vertex="1">
                    <mxGeometry x="523" y="160" width="80" height="40" as="geometry"/>
                </mxCell>
                <mxCell id="F4tNx1M3XQuaekweOtgh-19" style="edgeStyle=orthogonalEdgeStyle;rounded=0;orthogonalLoop=1;jettySize=auto;html=1;exitX=1;exitY=0.5;exitDx=0;exitDy=0;entryX=0;entryY=0.5;entryDx=0;entryDy=0;" parent="1" source="F4tNx1M3XQuaekweOtgh-7" target="F4tNx1M3XQuaekweOtgh-14" edge="1">
                    <mxGeometry relative="1" as="geometry"/>
                </mxCell>
                <mxCell id="F4tNx1M3XQuaekweOtgh-7" value="Trigger" style="rounded=1;whiteSpace=wrap;html=1;fontSize=12;glass=0;strokeWidth=1;shadow=0;strokeColor=#457B9D;fillColor=#A8DADC;fontColor=#1D3557;" parent="1" vertex="1">
                    <mxGeometry x="523" y="280" width="80" height="40" as="geometry"/>
                </mxCell>
                <mxCell id="F4tNx1M3XQuaekweOtgh-20" style="edgeStyle=orthogonalEdgeStyle;rounded=0;orthogonalLoop=1;jettySize=auto;html=1;exitX=1;exitY=0.5;exitDx=0;exitDy=0;" parent="1" source="F4tNx1M3XQuaekweOtgh-8" target="F4tNx1M3XQuaekweOtgh-14" edge="1">
                    <mxGeometry relative="1" as="geometry"/>
                </mxCell>
                <mxCell id="F4tNx1M3XQuaekweOtgh-8" value="Trigger" style="rounded=1;whiteSpace=wrap;html=1;fontSize=12;glass=0;strokeWidth=1;shadow=0;strokeColor=#457B9D;fillColor=#A8DADC;fontColor=#1D3557;" parent="1" vertex="1">
                    <mxGeometry x="523" y="390" width="80" height="40" as="geometry"/>
                </mxCell>
                <mxCell id="F4tNx1M3XQuaekweOtgh-21" style="edgeStyle=orthogonalEdgeStyle;rounded=0;orthogonalLoop=1;jettySize=auto;html=1;exitX=1;exitY=0.5;exitDx=0;exitDy=0;entryX=0.5;entryY=1;entryDx=0;entryDy=0;" parent="1" source="F4tNx1M3XQuaekweOtgh-9" target="F4tNx1M3XQuaekweOtgh-14" edge="1">
                    <mxGeometry relative="1" as="geometry"/>
                </mxCell>
                <mxCell id="F4tNx1M3XQuaekweOtgh-9" value="Trigger" style="rounded=1;whiteSpace=wrap;html=1;fontSize=12;glass=0;strokeWidth=1;shadow=0;strokeColor=#457B9D;fillColor=#A8DADC;fontColor=#1D3557;" parent="1" vertex="1">
                    <mxGeometry x="523" y="500" width="80" height="40" as="geometry"/>
                </mxCell>
                <mxCell id="F4tNx1M3XQuaekweOtgh-14" value="Scheduler" style="rounded=1;whiteSpace=wrap;html=1;fillColor=#fff2cc;strokeColor=#d6b656;" parent="1" vertex="1">
                    <mxGeometry x="803" y="330" width="120" height="60" as="geometry"/>
                </mxCell>
                <mxCell id="F4tNx1M3XQuaekweOtgh-23" value="&lt;span style=&quot;box-sizing: border-box ; font-size: 14px ; background-color: rgb(255 , 255 , 255)&quot;&gt;1. Many Triggers can point to the same Job detail, but a single Trigger can only point to one JobDetail.&lt;br&gt;2.&amp;nbsp;One JobDetail can just link to one Job, but one job can be referenced by many JobDetail.&lt;br&gt;3. &lt;b&gt;&lt;font color=&quot;#ff3333&quot;&gt;Recommend to use addJob(xx) to schedule, and specified JobDetail when build trigger, then scheduleJob by trigger&lt;/font&gt;&lt;/b&gt;&lt;br&gt;&lt;/span&gt;" style="text;html=1;strokeColor=none;fillColor=none;align=left;verticalAlign=middle;whiteSpace=wrap;rounded=0;" parent="1" vertex="1">
                    <mxGeometry x="210" y="600" width="810" height="80" as="geometry"/>
                </mxCell>
                <mxCell id="vkRWF1eovzhUYJeVfTvy-3" value="" style="shape=image;verticalLabelPosition=bottom;labelBackgroundColor=#ffffff;verticalAlign=top;aspect=fixed;imageAspect=0;image=data:image/png,iVBORw0KGgoAAAANSUhEUgAABBcAAAEtCAYAAABTZYhdAAAgAElEQVR4AeydBZxU1RfHF5UOg+4uJRXFP1goiN0tKnZ3oggIYtDd3YIdgNgKSqp0bM7sdO3s7NRO/f6fc9683dllF3Bzdvfw+Vze7JuZ997c+731u+eek2ALmSBJ8kAYEAaEAWFAGBAGhAFhQBgQBoQBYUAYEAaKykBCUb8o3xPohAFhQBgQBoQBYUAYEAaEAWFAGBAGhAFhgBgQcUEsN8RyRRgQBoQBYUAYEAaEAWFAGBAGhAFhQBgoFgMiLghAxQJIVEpRKYUBYUAYEAaEAWFAGBAGhAFhQBgQBkRcEHFBxAVhQBgQBoQBYUAYEAaEAWFAGBAGhAFhoFgMiLggABULIFEoRaEUBoQBYUAYEAaEAWFAGBAGhAFhQBgQcUHEBREXhAFhQBgQBoQBYUAYEAaEAWFAGBAGhIFiMSDiggBULIBEoRSFUhgQBoQBYUAYEAaEAWFAGBAGhAFhQMQFERdEXBAGhAFhQBgQBoQBYUAYEAaEAWFAGBAGisWAiAsCULEAEoVSFEphQBgQBoQBYUAYEAaEAWFAGBAGhAERF0RcEHFBGBAGhAFhQBgQBoQBYUAYEAaEAWFAGCgWAyIuCEDFAkgUSlEohQFhQBgQBoQBYUAYEAaEAWFAGBAGRFwQcUHEBWFAGBAGhAFhQBgQBoQBYUAYEAaEAWGgWAyIuCAAFQsgUShFoRQGhAFhQBgQBoQBYUAYEAaEAWFAGBBxQcQFEReEAWFAGBAGhAFhQBgQBoQBYUAYEAaEgWIxIOKCAFQsgEShFIVSGBAGhAFhQBgQBoQBYUAYEAaEAWFAxAURF0RcEAaEAWFAGBAGhAFhQBgQBoQBYUAYEAaKxYCICwJQsQAShVIUSmFAGBAGhAFhQBgQBoQBYUAYEAaEAREXRFwQcUEYEAaEAWFAGBAGhAFhQBgQBoQBYUAYKBYDIi4IQMUCSBRKUSiFAWFAGBAGhAFhQBgQBoQBYUAYEAZEXBBxQcQFYUAYEAaEAWFAGBAGhAFhQBgQBoQBYaBYDIi4IAAVCyBRKEWhFAaEAWFAGBAGhAFhQBgQBoQBYUAYEHFBxAURF4QBYUAYEAaEAWFAGBAGhAFhQBgQBoSBYjEg4oIAVCyARKEUhVIYEAaEAWFAGBAGhAFhQBgQBoQBYUDEBREXRFwQBoQBYUAYEAaEAWFAGBAGhAFhQBgQBorFgIgLAlCxABKFUhRKYUAYEAaEAWFAGBAGhAFhQBgQBoQBERdEXBBxQRgQBoQBYUAYEAaEAWFAGBAGhAFhQBgoFgMiLghAxQJIFEpRKIUBYUAYEAaEAWFAGBAGhAFhQBgQBkRcEHFBxAVhQBgQBoQBYUAYEAaEAWFAGBAGhAFhoFgMiLggABULIFEoRaEUBoQBYUAYEAaEAWFAGBAGhAFhQBgQcUHEBREXhAFhQBgQBoQBYUAYEAaEAWFAGBAGhIFiMSDiggBULIBEoRSFUhgQBoQBYUAYEAaEAWFAGBAGhAFhQMQFERdEXBAGhAFhQBgQBoQBYUAYEAaEAWFAGBAGisWAiAsCULEAEoVSFEphQBgQBoQBYUAYEAaEAWFAGBAGhAERF0RcEHFBGBAGhAFhQBgQBoQBYUAYEAaEAWFAGCgWAyIuCEDFAkgUSlEohQFhQBgQBoQBYUAYEAaEAWFAGBAGRFwQcUHEBWFAGBAGhAFhQBgQBoQBYUAYEAaEAWGgWAyIuCAAFQsgUShFoRQGhAFhQBgQBoQBYUAYEAaEAWFAGBBxQcQFEReEAWFAGBAGhAFhQBgQBoQBYUAYEAaEgWIxIOKCAFQsgEShFIVSGBAGhAFhQBgQBoQBYUAYEAaEAWFAxAURF0RcEAaEAWFAGBAGhAFhQBgQBoQBYUAYEAaKxYCICwJQsQAShVIUSmFAGBAGhAFhQBgQBoQBYUAYEAaEAREXRFwQcUEYEAaEAWFAGBAGhAFhQBgQBoQBYUAYKBYDIi4IQMUCSBRKUSiFAWFAGBAGhAFhQBgQBoQBYUAYEAZEXBBxQcQFYUAYEAaEAWFAGBAGhAFhQBgQBoQBYaBYDIi4IAAVCyBRKEWhFAaEAWFAGBAGhAFhQBgQBoQBYUAYEHFBxAURF4QBYUAYEAaEAWFAGBAGhAFhQBgQBoSBYjEg4oIAVCyARKEUhVIYEAaEAWFAGBAGhAFhQBgQBoQBYUDEBREXRFwQBoQBYUAYEAaEAWFAGBAGhAFhQBgQBorFgIgLAlCxABKFUhRKYUAYEAaEAWFAGBAGhIGSYcBcyLi0sPOS7yWT75KPko8lw4CICyIuFNKIlwxgUlElH4UBYUAYEAZKgwF7yAx7yAQ6lsb15ZrCrTBQ1gxQXbYUUp8LO1/Wzyj3k3ohDJyIAREXRFwopBGXinOiiiPvCR/CQPwwoEwyaaJphj0sE82qwqZa3iIuxE9drCrsye8U5oSB8mMgts+3lYm4fCLRq/zyIV4ZFHFBxAURF8qBAWW1TWmQlEaSVt9yGyiaIKkDZn5fJkxlwqnZr4c1aMzJ+3htuOW5YupKdPVa79HAEjDAIXWlTOpKPDCoto1qWxkPzyTPkFs3yyMvimrJojAkwmTRyix3vFLY99U6mj+f6W/1vdzvmuEImbktjx0L2aLjIvU7/+WYe+3y5VOeo2TyXx0v82JC0ARLtkFZXMjhqTTqcmlcs2TyI964EnEhZkIXb4Ujz1M5Kp3aOfKROseYRGVsCRhByis3klEeHWELzNl6GDxa2IKmPO8JF0XnQh2MUJ7q3GkgMcEeVkwt6T0rlQXld04HVfR7STmdWt5xXhcwaFTzTy0LOqrn1GNs3XLBgYywVSm76PXUz8nx1MqivPNJbRup/fsvSf1ebBta3r9F7l/2zKkccN4HTbDmJCOLxiQcF5boO/z9AtoZKcvCyzKnfSZRV02ch1FLsmhfmtPO57TN0fej46HYPKbPOqiPdqXy+Eit18rRDL1bk2cySaKywauF0ZueJ9E5Gkfl4ULG/Mf1o7F5Hy+vVV4Kex56n96jI9fpADEaHV/nG0/HXoOvm298p9b72PdyzuXwWngdiL2+vFbyScQFaWgqRENTUSus2lhR55eelYJ0dyq0nmRoPSnQelKh96fDGjbDGh3Y0O+k79AElyZLfrjhiFhzGtGKmg/x8tzK4MQEa8CMCELwwaNYKqgdSLYVZp9B8rsM20WlE1dWHmggSIKPejRm62HK1ivlUYhFAtUXEoX2HfsbOmcanLDllGm8cCfPceKBGTFg8uuUNjIrFemnmtzKZ9UJhOTzifO5sueP2t8SS+ZsHaj9MGbrYMhOhyk7HWZONOHUwpSthTE2+dOl3S9Cu0911xhI5zFNujcV6V4NtJ40pHvSoI9JBq8GlPReDX8m3ZN7pDZe6ZvVyaEJjogNYQThhIPLhcRGLt+wFUFkI4ta+qDyeWfEBh9cyIYnT6JzmbDniAsqH5W9HlT030cs0JiZWFF/i2qpwH9HBSkqTxorWwImZAQccIRt7K8jh5WoyKVsm8gVu3L+jrkO3VOxeqIxuAVGnzIWUc4fv7ChPpccC+5zRFwoQmMqMBUMk+RLAfkSNsEaMsCHLOT9F4r+GYHRrYc1m1ZNLLCFrTBlG+GHB7/s/BGvj30ZelcanGEbrNkGNhW008p6sIB7Ccs5HdFxLEY7EUuQzOatMGcZ8cHM8fh992/I5MGLGYYsLS4echE2/v4N57/OreUyoY5G7YyUo+T9cflbRPZiO24aEGTCBifsXCY0KKSUEbEq3MesgFlDRlAy+LTIgBUGuxYtujXBhu/XAgggPTNFtkcUsUxKqmxP5Tpc/mELrzCT0FfUf9S+2oJGtnaga57KveUzlacdUyeNPNkImZERtvEkMwAfsuFFNtx89MMLP/zIjiYf/+WDFx54kInMiB12mrBGV0WFkcIZUequUtc8yAAQLGL1jcCNLNiDirUSTSrJAkLjSMW4qWNwKOUAMiMO0LY3e8iIdGcqHntpOLbt+R0uZMAc0CNJdwS/bP0Bv2z7Eb9sjaZtP+KnrT9if+q/3IdQudJWC7Vs1T5EPUpZF17WZZE3armo7bcHTgBhOIJRa8QcoUB5Thov6zxahBHC6i9X44bbr0eaLRUGN4nUqTDECFuxIhe/due+b/KnR5lQLW8ssIbMCIJaD1p8ImYssIfpvmRlTKl886oi3F/EBYFEKkopMUCNpCmgYwuEzdu/w73D78L9j9yL2+65FXc9eAeuuXUw+lzcC63bt8Ty9Uu5MdN59dB7DQAimLd0Dhq1OAfJxsNkvwCLT4eMqLkgmQxWhAYmXp5RHQhpXCkIIYA1X61GQkICtmzdgixkQpuVygLQhZf2wxXXXIZs+KDz0uoXqdhkOUICg5ok70uqXNUBBXXmGmcy9M40mNwGGFw6GLO0nDSOJNj8RmTkrFyZYQ0bYQ0bYPBr4SRxwaJF/aZ1seG71QBC0JG4kG8wUlLPLNcpOf6p/MlSxYMsfLH5czzy9CN4+MnhGPboMAx75AHc/8gw3P/wMD7e98gwUKJz9B595qEnHsQjTz6Ijb98BR8yYfSpA8WSe0Yp7/jPS2rfaVJKFkxGnw5Dbr0SXbp2RpdundGpS0d06toRHTl1QseuSuoUPXbvcS7ad2yHG2+7BlpjCpwhG1vRSLmfuNxplVfv1cKNTKz7YjmuvPZSDLlxEK649hIMuuZSDLrmMlx27WW4NF+ic5fTZ669DENvGozLr74My9cvQwDZvA2UrE7ccOFQ6gEknJ6AzT9sQhgB6LPSeByUbk3hvnvF6qW8CEDt/KgPRqJ6vTNwXr9uaNetNdp0a4Xu/bqh9pl18OhzD8MHN6x+I2yBqGVoiBZ9jLCEDJzotZT3icu7tPOH+gLuD7L18MKF7fu34cPp78PhtylWLTHbVdXPat1aBBHEVTcOxn0P3c/iFrFDNqkR+BGEh/uFMPzITcp74ehnvGwBo2yJIgtiU8CELLiw/JMl+PyHTxWBIUAimhH2MHFClq3Cy8l4EHGhlCaWJ8t4eb98G7KyyH8a8JDZJTWUa79bgYGDBuCO+27FQ8MfwBnVz8DV1w3Gex+MwpRZE7E36R9kIgMGrw5JtmOIIBsrPlmOc8/vjjRLEpxBCzSORNgDRkVgEG5PeTDAHVHEzCZ2tOXhaNphNGzaEG+OeoM7I/K9QKIDCQrUoVVvcAa+/flbNrtMz0rLMbUTcaHk66w1aGBTZWumEZdfeykat2iMtl3boHmHZmjVuTlad2mBVh2bY/OPG3kdQZORzAN/g18Hgz8dWlcSbAEDdMZUNG7dGBu+XQsaNKTajoqvkgrQRlDdpBVJElNfHfESTxqGXnc1Lht0KQZeNhCXDroclw66DAMvvwQDL78Ul0TTwMsu4ddDrxuKhGoJGDd5DItK2syUqHl1ybNaFn2G3KNo5aZOSshE2uw3onGHc3DXfbdh4tSP8c6YERgzfhRGfTA6msZg1AdKenfcKHw8dQLuuP9OtGzTHMlpR+AKOxSRSixgTtrHUr9J2wvHjB+N02udjhFj3sJbo9/A6++8irdGvYE3Rr2O1zm9gTfo/CglvTnqdbwx8jW8P2Esap9ZC2+88xr3xVR/Tdk6uCNOHE05jKbNm+Dn336CL+KG3qqBy2eHwZ6OZi2aYMPna+EK23ny+Nwrz+CK6y9DVsSJg/oDOJh+AH74cP9jw3DrsFt4QcHi1cHG/q0UxkRcKFpdK602isfL3nQcMu1l0Wjd56vRvkdr2JwWaNzJSMlMhCWYO6nXuTXIQAa+++lbnN3wLMxdNA9/7NyKr3/6Glv+2ITvf/8O3/+xEVu2beIjv/5jE374YxO//8PWzdj4y9f499hutmwxBwxIcyYh0XYEAfhxx32345VRLzPfSbYjSHen8KJGaf3+ynZdERcqwACsskFXlX4Pr6iEDGxyGWsz2LptK6z/lEy4weaaZJJJjRuZ6JOfBTIHW7J6ETr16IgUUyI3trSf0O43sfpOJuRion9qnSPllZV8XmSm8CTmyhuuxAUX94EnnAl7QNnrTUyS86cAvHjk6YfRpmMbuANOmL3K/n97mKwXSL0Wk+uSrL+02kh7n12+TLTq1BxPPfUkftv2G1avW4WvN36FT7/4BLXq1sQ3m77iOkGr3OSLhOoJbZkgU3gS76x2E85pcRa+2Pwp1ymjV6eYyEv7ftIJQkmW53+9FrWPirgAvDnyNXTv0S3aTIa5rkb/iB4i0XMR3otNkxr6161Pd3ww7X1+rXWJuPBfy6CyfJ78btCKIm2JaH1uS3y18QtmgizVCv9HTAEbNq5nC4dUXTIyQ3Z2CkiCRWXJm9L6HSQukDA4fuI4dO/VvfBsPsE7lw2+BCNGK0K/xpkCi8+IYc/dhxbtm6Neg7o4r3d39Ox/Lrqc3wHdL+qMbn27oEbt6mjfuQ2G3DoIXmTimVeewtDbrua7mP06Lj/64/EXHsPtD9zGlg8Wr57HTmpe0Cq1uiVCLBdObSyl5l3JHqPOzIMmBOFDCNlcjl9t+gx9BvaEy5vJlgh0kvp92t5CFigmsiz1GHHJ1QPRvFUz9OrfC23Pa4v2vTugfY926Nq3M5p3aIJaDWqiQ4926Ni7Ddr3aocOvdtz6n5RNzRq3xCjJ77L42saW9C4m56Bjg8/8wDGTHqXn4W2/EQQYJ8MFI2qoLZB4YmYKs+8jJ97i7ggIEgHWooMsH+EsAVadxoOW/Yj0X4Y+/X/4KyGDTB1+kQ4fFb8o9nFTh5p0vTHP7/gpZHPwRtxYcXa5WjRsQXMGSb88Of3uOfJu2DONPDeRDOF3ZGVlZOyy3lEK9vOZO4kRr7/DmrUqYFDSXt5H67BrcnxSk8CREbEDJPbiDZd22H4k8OU1VBXEmjAIiEOS77jInGBtjZ4Allo0rYhps+YyuXk8Ft40Gp3m1GzTg1s/uE7ZIYc2Jv2N5IsR5BopnQYB3V7kWpNxDHNYZzdrD5WfbYCzlAG9mn2gutI1JN0yQ6GSj4fqurzxYoLr771Etp0aMMO3HS0Jcanh8mni0kaGH0aGP0a6N0pMHrTkJVtR8tObfDe5PeYG7FcqLpsUhttC+mREbKjSYfGmL9sHk9GDuj+QWrGMaRkHMmTUjOO4KhlH2+f+nDWOLRu3wbJ6clwkuWCV7bXnKxNogmWIi6EMPbjMTir8ZlY88UqLNuwCIvWzsey9YuwdMNiLN2wBEs/zU3LPl2M5XT+k4X4YvMGtO3SCm+NViwXNJmpMPkM+HnPj5gxbzrq1KuNDz8ej0++WoNZS6dj+adLMHvxTNSqUwsjRo7A1z9/wdsZn33tGVx+3eVwZ7twzLwfh4174UUGhj1+H269/xb2B2HxGvKICyf7ffJ+2bQlFOlB2RqXiamLJuGhp+5HkuEovt74BW6853qYbSas+WIZhj12Nw6l7eOFuhTrMR4fkNXvOU3Oxu5/d0FnTEeKNgVagxYpmhS43C5MmPoxWrVphVR9MnRGLTR6DbSGdE7pxnRo9FroHXre2qMxp2D4s8Pw4cxx7K/lxTeewYSZH8AdduLt917DiyOeQWa2g62H1YhiKiMkKFhiknq+Kh9FXCjFiWVVBkt+u7K3j1fNgyY26Y5KoHxo3LQR1q6j/eGkkfphj5j59d3D70GXnl349ZJVi9GyUwtoLWlINiWidtNaeGvUCIQRhi4rPSdkouR1wZ0gOeCxBHRI59UVYPKMCWx2/cnn6xCCh/fl0z5+yj8SDshxIG1LIfdeP/75A6qdfhrGTBjNZZHuSuaJjSMSvZcIOycVdk6FSwrDaiAz2OwsNGvXBKPfG8mizwHdv9D70rEv6W8us9///BWPPfMovz6r4VmoU782alOqV5sHoPXPrIca1aujXv26OKfROUionoCVXy1HEF5os1JK5FlP5ffIZwqui4XlS6y48PqIl9CmfWsePFr8Ro7oQv5OlGTh9o4GdZRoX7bFb+AVpzad22JsVFzQZCYXuKpU2P3l/H8rr/jNL5qgULQHA4sLTTs0xroNSv9K1n5+uNh8no7Ka/rbxY6SqYFfsGY22rRrgxQRF065rSSfC2QpRP4Qxk8ay23u0JsH49Kh/8Mlgy/GpUMG4tKhBafLrh6Iy4b8D9fdNhg161bHyHEjov2sBiY/+ZwCrFlG1D+rHv7Zt5v/pu1u9C8EL+qfVRebfviW/ybn18++8jRuvPvm6Oeyea89/fHca8/h5ntvjFouiLgQl/U3aOSwoq6IA4tWL8Cg6y/F1bcMwo23Xoe+F/XGrXfdhEuvGYDhTz/A4gJZtnjhxq4jO1G/YR0sWDmHxSOyZCCHrFlwwBplaM6iGWzVYM7SwA0LO0KnyCIZlMJWTtZsI5wRO1LNiXj+zafR78oLcfMDt+LCgf1x6ZDLcd0dN+CK6y7H6A9H8mKg1Rf13REdA+YXFlSRoapbMIi4IOLCKXcmJdkwUcVTU0leN56uRcq+JUCqaAa+/vVTjJv2HqbOn4KJsz5GgzPrYdiD92PBsnkYNWEkftn9M0wePVp2aIkJMz7iTnLuktno2KMjDmsP8t/rv17H+4t/+fMXeOFl50dl9XvVsqoIDSYNekjUoYmryZPOCvdHMz/giemk6RMQRjZ0rhSepHAcdDJ/5UgdFOrKgnSX4txx4Yp5SDgtASPep4FPAM6QhU34SZAgJ1LseToauaO8oneo5VJWHJT0faiMjH4dPNluNGvbBO9/MJYHCsfMh9hj+LH0Qzi9xmnY8vMm7Nm7C7Pnz8TqdSuxZv1qrP5kNVasWc7bixYvXcj7c0e8/RY2bv4OC5csxCHNft46oZhLx8ckqqKXV0mXf6y48BqJCx1IXHDxvnklzBx56Y6mGE/vVKaWbEVcaNulHcZOJm4AEReKznnFZpPEBbJcMMIetKN5p+aYPm0KNPoU7Ni9DXsP7sbeg3vypkN7sGfvdiRrkvDBlPfRpn1bJGuTWHAwerVsAl3SvBf1evFYNrmWC8D4CePQrlMb+MLkTs+OjIAF7kgmrwiTw0c6q6RMdqBM55xBO9fZ8wf0AflgoH9aVypMfj2HE95zcCfqnVkXq9evwMHk/di681f8e2gP/trzO+o1qIM161bAEbDyPV5663l07tkZC5ctwMezxuPjme9jycr5uOiS/rjzwdvYrD6/5YKSp0rUocq6LYJ+o8pc7Gv1XDwciSNK9CwkVNEWBJNDj1vvvhU16p6BhcvnwRehSEIRZISsyIANemc6OnRrj/sfupfHc2n2RN7WavKlw+zTQeNM4nClU+ZMQpNmjaCxHIXVlwatK5nHzXq3ho8GtxYkLlCkEhIbSLqiKBG/7v4N7bt0xPkDL8Ax3THeLEHLgA6KaEKRI2KeWa2bBR3jIX/L6xlEXIipfOVVCFXtvlQxreHcRPvYaUJY2fKBBs4GbxqCcGPkR6+hdfdW6DOgD7r07IwaNauj67md0f/yi9CkQ1N8/f03mDZ7Epq2aQyjM533/i9dvQgdz+uAVFMSzG49r9I99szD6DmgF4II8eSYwzaVct4VVF7xWlZqo2+hKA9+C/wRN55743kWFt7/8H24Ag4c0e9DWkYSNK40pGUqSePSQJOlAZlVazOTcNS0DxZvOqbNm8Ieq6+/bSgOJe+FExaYvensVDM2ckf5RO9Q6pBSfyrm/mDy7k6m7yQuNG/XFB98MJ5teZIsh1kgStIeRq06NfDd91/z4JNWqcgagbxBk+Dj5xCvYbi9mWjUohE2/fQdf84TpsGsk/fUUliz+OA1przi5pnKt92NFRdefftltG7Xir26pzoSWSig+khRRDhlJivnXClIzUjkc3aPFa07tcG4KSIuFJVxbjPV/riU+5KiPuOpfI9Mq8nE2uSzolW3dmjXujXO7dUV7bq0RvvubQpMHbq2xnkXdEfD5uegfacOSEw7CmfYCqOXwh6Wb91QfzP3v9ExE71Wz8fDUdkWAbw/YRw6dGkHs43CwZp55ZgngiE7bzOxB6xwBG3ICDnYsoTes2WTtWYIFww4HyNGv8ntNlkZklVSFjKwP2kvatStjm49urBj6/bd26Fbn67o1qsTqtc8HRs++wS02k3p9XdfQu2za+Gq6wfhwkv6cBp8/RU4u0lDjtJFUQOOFxcqe7SI3P6G+kBLHPc5xLUjYkGqPZE5mLN4Dh544gF8++NXuGTI/2B2GqDLSkOaK4nHwXc8eDv6XtQXTrcdVq8BGUEzW7xRn0/CFYkA9G/WwulsueD0mGl5CJkRG/tsoi3I9Nks2oQXpFDXFpBgnepMZOef9z1+L2bMnYlX33kFb45RhK8U+1HeisztZYy4EA/1MB6fQcSFOOlA4hGO0nompXIqq8SKEqisApfW/crrutxgkvOZkBFZEQeysjO5wVv3xWrUqFUdy1Yt4b+zfFnwBrzo3rMbXnr7RW7cqOFbtnqxIi5YUmH3mzlpzIlo1qYpHn32MY5uoIReU8LolNYkiiYA1PhyWQVpFTF+xSDKcxqcUOSNg2kH0PG8TqjdoBa++HYD53WInWUqTrxICT/RP4pxTKaYW37/hh08JtRMwFe/fskDH1NUYCBRQU1lzVlOuURNx8v6/iVxP1Vc8AY8LKxNmTqJiyTdnApfKAsmmw41a1fHpu+/4Vj02w9uQ7LxCIyedKQ7U5DiOAZTlhZp2mQ0anY21ny5kh2iHjUd5NB0lEcl8ZzFvYY6IMnIidkdrbNVvP+h8lEdOr765oscMvBEdTL3vdy62/G8zhg7SfG5IJYLpz4hVpkkC6wMWpGjtizOJq//pd6RuECft4ccaNKxKabNnsymzr/9/SN2Ht2OnUf/UtKR7dh5ZDt2HduBrft+RZL5GMZMHs3bIpK1iXEpLnD/S6u23NbHR5tG25Noy1kQfoybMIYF/G59OqNzn47o0qcTuvbpoqTendGtd1d06dU551z3Pp3QvU9n9BvQl8X7Ee+RuBDmbRbUf5OD68PJB3jbGzlvW50AACAASURBVG1vOZC2D99v38xl9uuOn1C3fm1s+PwT/lwAbjz7ylO4+e6buHlw+zKR6Xbw6xdeewE3330DC9FVSVzIrds0PomutsdJX1hQnabnpYUyH7Lw57/b0KhdI3y95XMuwxvuuRa3PXgbj3cpZLgDFmz56zsc1eyD2WoELfz07tcDfQf0Qo8Lu6PnRedySNK+F/dCh65teSGvV1863xU9LuzGn+nzv57o3f889LioO37b/jP7WEi2H2Wx66W3XsAFl57PFgwpxkQ06XAOFq9awBYSBo82LsYTBeVhvJ0TcaGKD+7KHkgyQacQjeTITQ+jz8BmSWxiTmpgHDeA/zWvlMmf8pvMIQPSPSmslj7y3HDuiL/4+nNkBjNgyDJgxoLpqN+oPoyZBnZklg03lkUtF9JMKdyJptpI1Q1g1qJZ6N2/NwxePZvxU6NM96IG+r8+4wk/z3GFlcEqOVcz+HT8bBba9xxSo1WU8D2LWR8pD0iBJq/CWlsqHn/lUfy55w82pXx5xPMY/cE7GD3+HY6LPeqjkXh3/EiMGv8uRvFxJMaMV9J7H43GG++9jh93buIO7ojmEF4d9TKOmg6zuMAOHonXctsWQb/TwEIKlY2Z4neT+Xg+BmK9YSumnxTKKTec0wnLv5hlcSrXZnHBr4M904Zz+3RDixbNcOHlF6Dr+Z3Rc8B56Nu/J2rVqY4vv1aiQAx/8QFcfdNVyPDbYPWZeGJKqxEmqw6NWpyJzzZ+wuaTtBeYVkJO5RlK+zNULmRdQua+Br/S7lEdqkxtXVHzkPJGERfCGDHyNTQ4sz4mTvsIoz8YjXffH4kxH43G+xPHcci6cRPew7gJYzHmw3dBjllHvT8SE6dPwFmNzsaHMz7gkGEaCkWZrw4U9dkq8/cojyjRtjCjnxxnUl+sA9VHRWDIbdcrirkvtfvUxjmCdjRp3xifRKMx0e8kiyeauJCfBTp6kcUipBNkCg0sXrcArdnnQnxti6Bn5+19PFbSw5RNbXc8jJMUfijPnbBj9+EdWLZ6CVasX4oFy+dh9vzZmLtwLubMn4P5i+Zh3vI5WLR6IeYsmIN5C+di3sLZWLBwLhYuno9FSxfgz39/Z4sHGsvQNjmKAHQoeT8anFUfe/5RfC6Q+KD8i+DMs+tjw2frouWYhedefRpXXn8lm8JrMhKRaj/KvqyGP/EQbrn3Ro7JVZC4ENs/Vpb6zhY3ZKkQzUuu39kGZetnGfTpRclH6gtpoYz+TZ43Ea+PJQefYZ4bJFmO4q7H7sQhzQHe5qj3auGBkx12pmqT0aRFIzz13FP4/OtPsWjZQqxYvQxLVizCZ19twGPPPoLGTRpi1dplWLFGSSvXLMeqdSuxcu1yLF+zFMnGY2TjCINHw1t6Hnr+Afzw5xa4IplsQTxn5Qy89t7LHEWCnlEZR526iFuU/KgM3xFxIU4rW2WAK/9vUAbTZva1oI+YoIuYYIiYYQlZYM23jyn/dyv032Ez0t1p7FDqx98348LL+6FZqya45qbBOJD2D7JCTrQ5tw3GTfwAPviR5DiGCPxYunohOp7bAVpzCnvKN7p1MGVqYcm0QGfVgcMjRh2cUf6U9GRFNfunox4m6GDkZKbQjjmO1nIHofFQRpQHNGEh89gMWBGCHwF48Ob7r6JZ22bo3L0TunTvjLr1arPA06lrBzaHbd+xAzp26oAOHdujY+f2OLdHN35/8ryP2TmUISuNOz4Kf0gDcL5POUxiaLDJZqdhC6gcDBE9DBEDjBFasSPnd4plCZUFdYLmkB6WkCEnkcOzeBIX2KEjWZp4nWjfrS1uv+M2rPxsKT6c8T7mrJyJybMm8LaIL7/+jPP/120/oUa96lj3+RoOWaVx0EqjBSZrOhq2rI/PNq5jcYFWsCmfypNJKiuFEyusYStMYQs0MEMXscAYiVoAlYYoWIH6NGrD9B4ti6bvjH4D1U5LQM8+PdGxSwdQ3exMx87tldSlAzp2aY+OfL49unTtgB69zsVpNU/HRzM/YosvDkVZgX5/efFJbNIk1RKywhSxQB8xQhcxwhwx85YvakvofXo+1UFZ7LG8nruw+5IAYgzoYQkb4AjY0apLcyxbuQTOkB0H0v9Bqu0okm2HkWxX0yF+fdj4LzL8Zkya+yHatCeHjiQulH+0CKUfiy5MhE0whI3cBxsiFjZvV98vLD9K9zxxobRf5NuIJlwkBuitWjzyxHDQam/+f0+98BRWfbYy/+mcv8lJIy0I0PV4mxwycTBpHzvrJX8On3y5EvOXzcSqDSuwZNUCPk+WC2TWTmLR8689g0HXDYI/4kOa/RhSrEe47x/+xPBCxYXSzaPymXyqXNC2YzONO2FCOogd2hah1Gml7pfP8xWW59xXktgZMvK2BSdsHEGChZKgif11EBtKlAYb9C4NHH4TTFYDmrdugtXr1zBLJCKSKJEddf65aNUCtGrTksfT9IEIgvw+bcdRLVczSVoI0gIdjeuMfK8MZMAUNMASpC065CQyI2fMFy/bpQrLy3g5L+KCDERKfQCurnzQKi+t3pmCRgz68i00XXg3Gi67DaN2LcVRWJDpV1ZUaRATLxWkuM/BDXlQWWHNhgcvvPUMHn1mOM6/sBe69uyEvgPPx8HkwzC5zTC4tHDABp1Xw0r7inWL0a13Z6QaE2Fy66F36NB3YF/MWjKdG0aDl7xjK4NEek7qWIr7vOr36VpO9qJrxQHbQfRc8iBaLLgd58y/AYuTNyMNdjh9VE6KWKR+L16O9PwkMNA+PTKXpcFPdsiHDJfiRGrq9Clo3aElAiE//AEf/AE/AqEAfAHaChFElteFdp3bsMBDnRLtBaT9oLQaoA66y7qTpnpE+ZvlM+IgNLh56ctoueB6NJ52HR74Zy6oQyQP+moZUEcdKyyor+m8+pnyPqrigjfoQZPWjTB7zkweJJDpI/3zhDJZXNi4+RseSNKK41PPP4kuPTpxORnc6XBQzOsccWEtmzZqWVwoZ8sFZtCEYNCJnzL347Lpj6PlypvRctbteE/3NdywM5s0ECzvciiv+1M9zdkW8dYL6Ni5g1LuPjcCYT+C4WwEIwElhQMIcsqGP+Dhuksf7nhuJ4ybpPhckFCUJ+87uX8NGOAKWXDIlYqbV7+MpmvvwVmL7sDbieuRRQ41fQYWK0n4jxUVYl+XFzMF3ZcWJ8ga0kErkC4Dzmp+Fn7b+iuz5OOtcPwy33+RnEnIys+WoXW71jHRIsgqsBzrJUUv8tIKvh2T9q9H18XD0HzDA+j39RvYhiRk0oJMsHzbcSV/zOwAOYIAnnj+UZzZsD72HtiF3fv+wva927B771/Yf3gvmrVoilvvugWJKUexdddv+PvADuw+sD0n/XN4F9LMybz9ksQKmswdSN7PPhd69jkPFwzsje4XdEGfAb3Rp39P1Kh1Bj6Nigvkd4fufcf9d3D5ZvkdcHmUfv65V57HzXeT5UIQFp8OtkD55llB7JbUOXXc7Mg2wAg7Jm5fhXM2PI5mnz6GQVvHIQ0mGLN1LB7SZ9XxREndv7jXIZ543Bb1w0SveYEgaGLnvfQ+CQyOoBlmrw7OoA16sw5NWjbC5JmT2So40XoY6VmpOGY9Ah98IIeOFJkt2XCILRPSnEn8Pn2GHHdTUsK6K8KCPWSAKVvPbYmNLB/DRpj8WliyyVmsMt4t7u+sKt8XcaESTWTjFVpqxCxhE5uQk7hgDJjQc9lwJHw8AAlT++HJHyfiACzIInGBGpJKVCbUIFJnSQ5kkrRH0bR9I2zb/QfatmuDhcvm48nnn0Djlk2QZk7lFXHKHzL7ou0Pi1fOZ2dU+1P+5U7znY9Hon6jBjictl+JXODTceObs6WkRAdDUXEBNuw2/ovGk67E6R9fiIQPemDqgfVIhR2ZXuqoafXr5APasmaT1GXqnNT7ksCgz9Ig2X4MNNh8/pXn0bZLG7g8TrCn4SwtjO503vNJXuhTbUmoe05trFir+MWgTkjt/JRrk6VA2f5uFumCJni8JuxFGnpPuhvVJvRCwuheuGLrWNjh4C0h6m9WxAUSGPKmeBQXyKFji3ZNMea90bwStS/9b+i8WhxI3oeatWtg4/ffsaMmCkP198FdOLNxA8xYNA3Z8IJCUNG2CMVygcSFMNg8PhpmVM0PxWKj7AaXvHoUMCIcysRXGbvQZvR1qD77fCS81w/PJK+GF05uG0RcIDEVeP3tF9G6XUs4AmboMlOhz0qD0aPNTW4NjG4NTB4NR3uh911BBygU5bgp4/gaIi6cvE3i9jrbAHfYhr/tx3DBtNtRbc4AJHx4Ph7ZOw8euGHy6tnRmSoucNsTE+Ep3iYmtpCVt3c4kYG9x/ZymNq33n0Lq79Yhbkr5mDJ2sVYvHZRNKmvF2Le6tlY/+UaPPrscLTt0BZJ7HPBDqNXV67iAuWv3aODH5l4feci1ProElRbeDnOXHY/fowc5bKjfiq3bTt5uZf0ZynUc5ozkX0ufPf9N+zbqH339uh4bhs0bdcIzTs2QbMOjdC6cwuceVYDNG/TBO26tkKLjk3QqmMTtOzUBC06NUGHHm1wZvO6eHPMq9z2Ux0mcfmfw3tQt34d/L7tVzZJJ4HfGXEgzZTM0SLWrl+NjKANdp8Jjz09HA0a1ce1tw5F/0H90P+Kfhh6y2A0bHoO7nn4Lv4+RRGo9OIC+U3xG6CDHSN+mImEeYORsGAIun/7FJJghMGfDmd0zBZ/dVgZs5FlKG/Pilh4a6MqONCRE1lkUkSRiB06UzqatmyE2YtmsYBk9KbDEbLC4NNzfzB9/lQ0a9kUFicJVlaeX7BAoUYgih5pbGCnFDbBTAtINHbk+5nYqoGivvF4j7cEl31dK+m6WxbXE3GhjCcIZVGo8XYPasRYXAjQvmMjiwu9Vw9HtWkDkTC/P578bRL2wgw3iQsBmghVjsqrTkZ1HsWk/v5H78Edw8gxjR/1GtTF7Hkz2AKhW8/OuOHua3kPKK3ikdOYIHz46vvP0f+Ki2B1m7Hxp+85LOLSlctYeDBkpeSJWFCSZU7lRROezICR4wHvMu1Fs1lXovqMC5EwtQemHF6HZFjh8lQEMSjqi4L2FnvJb4Qe5kwTLhrQDw8+NYxNqdm6gfbrUlhEXzqHJNI509CgSX2sXq/ESmdxIUesoEGdmsqOVS6XoAk+rxl/Iw29ZtyLM2b2QbWPemPA9tGw0Up4QM8dKPHA9a4As2Y6X5K8FOdabLmQrYMnoISi/OBDihYBpNgS2SlnsjEJNShaxJbvQLEhEm1H2DLhyVcex/AXHuQ9tiavgc0jY7dFpLrSYM/jc4FEBbXMykZgoDbPROJC2IlPM/9Ci/HXoNaS81Ht4354XLOSxQUyAY6n8ihOWRbluzRYVC0XXh/xItq0bw03HFwPafJEq7PqYDPnSBEB/DqYfXp4wy5QKMpxk0VcONX8p/6V4sC7ww7sciSh35y7cMbSAUiYdj4eOTiXLRcohC85D7QcJ9DFT9sR+3tpGwf5IHLDjW+2fIN6Z9VDr4v6oEufrujcqwu69uyGzr26oXPvbujUuxu69O6Crr07o0uvjujdvweat20SV9EieAzk0bOPiJf2LEbtqZfgjFWXo8HaB7AZR+EN23k1NzYPyuq1Oq4xZWvhgg2ptmQ0bNkMr7zzKg4nH8Zv237Bzn92YMff2/Hnrq3Yf/RfnNezO4YNvwdHEg9h284/sOufHTmJQgzv3LMdacZEOENW3mdPfYA9y8ITwx27/+I+gbY/0D8/vHz+ux+UyECZXguuv2koLh9yGRatmof3Jo3C2MmjsXDVPFx48QW466HbeDxFIjS1IWWVT2V9H2aGtoNmG6GFFSN+mYmEFUNQbeUQnPvjUzgKPXQVQFxQ+aKjmoeKsGCCLWyALUILlOls5etwWdCqXQvMWUriAjice0bIBoNXx3/PWTqTQ1RneMnvCm1ppTDltgKS4heJ752znVERM3KeIeq8W/1bjifuC0RciKOBdmWFlSc5pAIGaRXfAGPQgJ4rHkDCxIuRMOsCPPHLBOyrjOJC2AxTgEJIurHp129Qu14N/PTbFjbFrNugLjs3ohZwv/Zf7Di0DZm0zyxbz/nkDNugsyXDF3Dh3wN7UP/s+nj+tRdYjNBnapARsiAjxuFiSbJD5UXigoOce0Vs2G3ai8ZTL8dpk89HwsTumHxoHVJgU8SFOLVcKCg/SFygQejhtINIqJGAVV+uYLU7NTNRiY9OTvd8OjavO2Y8gmp1z8AX33zBeU5mdHmvqU5WT9zA5v1O8T7L5ULigseMf5CGHtPuRrWpPZEw7jwM/HOUYrlAHtOj6jrXu3ziAp0ryWcq7rUUcUEPdzQU5egxo3jwuD99L1su7E/ej5p1FMsFEuU0VA60vcqdDnu2iUO9Unxqk1WPhi1zHTrGl7iQic9c29Fs7NWoPr83Esb3xeOpK9ghlYgLueLCa28r4gJ5iqfJLztLZZ8UpjxCKllq0fYkik9Oe2zbdmmfIy6IQ8eT1+9YcWG3Iwnnz7wd1RZejIRJvfHw/jksLhg8tAJIvnVOfr3itgEl8X1q13WedIQRxsix76Jrjy6wuS1we93IdGfC43PDXUByZmXwJGTZ2kVo075t1OeCtdxDUSrigo7FhVd2L0bNiRej2tIBqL/qPmyJA3HBEjTAGtAj0ZSINj07YOjtSqQGzswC/ruw/wV4Z/SI6DuqY8a8H8yMOEDpqP4gRk0ciWdeeIr9Ht097E68PfYNvPDWs3hxxPN47LlH+fxt99yK0RNGIlWXhHad2mLRqvl8QXLaSaEn6d/zrz+Lm++7gffcVzVx4c2fpiNh8VVIWHolun3/BI7CAH2ciwuFtQU06acxGI2l13yzDHUb1UabDm3Yn8LpZ5yGsxqexWGMm7dqhhatm7P4RD5UGjZuiNPOOA0tWjVHy7bNOSwlvd88mtp2bIuGTc7B+9PG8rjD6NXmsXgt7Hnk/Mn7BREXKkjnWZFh5kkRmfkFFY/pxkBUXJikiAuPx4gLdjKJqiRlQmprukcx+R1w9UW48/5buMPT2FPRqElDLFg0n1fOyfkchZ5kU6yoXwptZipoH+PW7b+icfNGuPHumxBAAHqXFla/CRmkvpZiPsWKC3tM+9Bk2hU4ffIFBYgLFWMbC8dQzlAcTb055jU0b90CKfpjLOjofRqecFN50YoorZDsPPgXTqt+OjZ+vwlhhNh3Q6ySXtYm9lT/uR4VKC70wCV/ji5gWwSVDfnEUPxixGO9InHBmK2HL+hlnwvz5s3hOqI4ZiK3SyHUrFMTm7ZsZMuF9Kw03opjztaxuaLBq4EzoooLZ+PTaLSIVFcqeM9kNN9yy4tEobJZvcq1XCBxYQeajbsa1Rf0RsL75+OJHHGBvE+fvKOuyO3/iZ49j+UCb4toxdZSBtoC4dVyBAMSYCiRWTNFaaGkcysWXllBp2K5MEV8Lpwon2PfixUX9rC4cAeqLSBxoU8+cSHXnw5vBYtjTh1hK3Ru2k4I3HjHjbjs6kvZoZ/Oo4XJb4AlW5+TrCTA+vWwU8Qqt4bDDc9YOJlDUSoOHW3MXllve8tfRjZPVFzYExUXlg1Eg1X3YguOlKvlAj0nWRuRD6n7nrkP5/bvCYcvC0++/jR6XHwerrz+cgwc8j8MHHwxBg65CFcMHcjbGzp374irb7gSF13RFwMGX4QBV12Iy68dgIsHXYBbh92Ew5qDHP1hb+Ie3DbsFlx9w2Dccs+NePiZB3HTfTfiqpuvxL2P3YP7n7gf195+DYbcfBVuHnYjdh3Zgebtm+PLTZ/xOOqocR8SLYdYmHng8WG49f4buYyrlrhgw1s/q+LCVej+/ZMsLuj82rjeFhFbB2Jf09iLxma0vXh/8t+YPncq5i+Zh3kL52Hx0kVYuHgB5i2Yh/kL52P+QopWMgsr167AQ48NQ8NG52DuglmYt3gW5i6cg3mL5mIeRTBZNBcLli7ArHmz8Mc/v7FDURKtqU+Kvbe8Ltr4RMSFOO4wKxvU9qg5K3l1ZssFFhf6Ib+4UFl+NzVSZIlAk9XPtqzH7kM7eL8/RX1o2PhsLFqoTKRSM4/BlJ3O2yFInTX5DDxIWvnpKvaE/tCTw3NWk2iQTREBaDBVmo3g8eLCoIolLkQ7CBYEgsreUC8c+GffDpxR8zSM/4jM78NIdyZC506Bzp0GvVuDFMcxXrHb/Me3qFu/Hn76+Sc2vaf3y5vL/OJCzxzLhR65lgvZuZYLiuNJMvdTTP7K+/kLur8qLjg9GejcoyOuuPxSvDP2TTz+4iN4YcTzePqlp1C7Xi18t/lbFuL05MAxbOPQeTTYoC0ttJKt0SXjnBbn4LNNG7hc01wpsEaUlVeeTJVDO1+ouDCexIWV8CADZnbKWrTOu6D8rGjnYsWF10a8gPad2rKvb7JGIe/xTjjITzcf6bWayPEtvSbhr33XDhg7WcSFUy3748UF1XIhVlzQcL2iz5IFiSOOTYKJIdpCYw9YkGQ+hjad2uDtUcoquc6j4a01NOYg7+9m2mZDQgPVO58OBncaspGFiXM+QLuO7ZCqS0FGuPx9LlC+q+LCS7sXo8aki1EtTsQF6lMpv7OoP038G4fTD8PiNmPq4ql4aeTLHCb2rTFv4Y1Rr+OtMW9g7Aej0aRJY1x2xSWYMOUjvPrOS3h77FsY8d4bGPn+23hj1Gv4ePpH0FnTYfZRlCcbCxe0NZS2QMxdNxupjlQeE/32969Yz2082OkjnVz71Rq069wBmvQUeCJOUGQnQ5YiNFEoylvvv6kKWi5UMnGBnTsqDpo9cDEL6n+RnBCl6hnyWJbNfyxetRAtW7dgcSn33eNfkaNojkSRT1gg1mPTqbax8jkTRFwoh0FnVQOPJkXqIIUmBAYWFx5EQo7lwsScbRGVynIh2jDZgmZQg+gKZ8AVdsDqM7K4sCAqLiTaDnOoSgpzSKFy0gypePCxh3B6zTMwavy7CMDHDmzI2SMNpCiRUxqeOJcSv7Hiwi7zPjSZnldcyPG5EC3beGSarBUoz8gyhBz/aQwpaNuxDa6+4WremmJ265EZtsEPF8gUm8qITIHp39T50ZUsfQpcyOA94JTv5fk7T0VcUPepK89Jzxvf4gLtgSXvzA6XHT37nYeu3brg2puvxv+uvBiXXnsZrhg6COc0Pgcbt2xikSdXXDCAXmucqTB79LBlmNCsXTN8tmm94tAxK4UtF9S2h45lXXYFigu8LSJXXDBx3Oyyf7ayzovC7kd1SvW58MbbL/FAMNWYhL3H/sa/x/Zgb+K/+DfxH+xN/IePB1MPYH/yPvx9ZA/+Pfo31+kW7VpirPhcOGW+K5O4oAz8rdC4UhBCEFPnTkXNBjVwOOUQMiJ2zhNijOoi9WnUDpC3eYtPz45CdZlJCCALS9bOY4eOx9KOIjOSAXIMVxizZXE+v7hQM87EBRp/kD8Usrh0BC1w+NM5wtXx0zblTN8L+uCdMW/xH4ECo3dEkBmx85jG4NUiLSMJWdmZoC0Rdc6ujZ/3/AQv3Fi4bh4Sqidg/Mfvw+hIhzvgwpCbB+PO++/kaxuzNNBlpiDZfBh0n8efexS3PXALwvDDRGVazhE2SpMdZibqcyEdNozI2RZR8S0X1Hxj7vwmds5NDrq17rR8KRVaTxqO2Y8q0SJmT+RoESn6IzB7NaBoEbRQxNEistKU1+5UHt/RPQoaUyttTMHvqc8lx+PHMCIulMOgs6qBqA7wlVCUJC7o0GMFiQv/q9Q+F2jlmBommrCS922r14isSAYsPgOatmiMRUtoj2CYQ+yFkI3DSfvx5ug3UKNBdfQ4/1xs/PFbRBBCelYKmwJzWJ5oA0gDptKc7Krigj1iA4sL0wbh9Cm52yJIXMj0koO8+NsWwXketvDqCokGlMdbft2Ihs3OwYUD+sGSaUJGwApbtgnkuPHv/Tuw7/Df+PvALvyzbxd++H0z6japg6deeJIHLLT/WClHKs/jG9Gyqs9Uj6wx2yJ6Tr8Hp00jnwu5lgvHiwskMKip/J69sDwiM0QSHL0BD+o3rIsZs8jJKZDlV1YnPAEP76/98tuvlLrgSoM1SM6Z3LzCra5i7NqzHTXr1cA3P3zJDh81tC2CBsDl6Bm7QHGBtkXEWC6IuGCG3qvhLWBjxr+DhGoJaHB2A94KU712dVSvXQNn1K4eTTVwRh36W0nV69RE/XMa4IyaZ2DyvMnsKJccrxbGmpxX6n9RxAX2fxFnntKVQb8FejeFbHQjyZCERi0b46kXnwStZpLVAovwJAqTsBBN9FsoYhBtOyRhgf698MbT6NazO6wuM1tAkDd6un55MRPX4kJUZCfx3ujSwmDXICNTD705GVpjIrRGOqYgTZ/M/hAsGQaQuPDcK0/D6bHhaNp+aIzJSDMk8VFjSILWlAL6nMVrYKvMMAJ44NH70bR1MxxOOcCLA6mOJC6rbzZ9idPrVMPGn75BovYIap9VC19v/or7AyNvQ41wH0AffuSp4bj1vpt50cbk03P/qZRr+ZVtaTFVFcQFrvMkZoWs7HBWjeoQW79pO6Tepzh0nLVwOvtgMDspYptNiULBESKU8TONoWlcrdb1/GNqvl+M9UJplV1lvK6IC+U4WaiMQBX0m3LFBcXLtz47XREXJg9gceHxX3ItFypTtAjKC2WvqtKRkdkmrZRbfTqc1bABZs2fzp3lss8W4+FnH8KZ59RH42YN2YzQ7NYiAh80rkRYgjo4Imoc3rIx0zpOXCDLhai4MJUdOprh9OnjVlygCWtGxIpdB//C8Ecf5AnqnffcDYvHxKICbX+gWNo7jmxD9XqnI+H0BFSrnoAzm9ZDtdoJuPehuznkld1vAlnTkFlwBglF5TjALkhcqDb1vDwOHfOKC/EnJuRvH2j1i7YOucMu3PrgLZizYg6HnCRrHlO2DscsR/H2hLdxIPUAh56iQT9NIJ9/9Wlcd+NQ3HbHTbjnvjtxBu9pIwAAIABJREFU5ln10H/ABdA7tLAHrbzP2hGygULUlde2EBEXTsQftYkUR9yC9Gg0nRfeeBaNmzbGX39vx3dbNmLLz1vw/S9bsLmAtPGnzdj88xb8vO1XnNXkbIz6eDS3pVpnSs5AMT9r8nfRxAVqd+Ix72h7oIUiUPlMMGSZcPGQAex/I81KW9isbO3Hk4Po5MHgS2cRYuve33HDXTfgljtuwe1334ZrbxjK/cPo8WOYIYNbceqW891ysFg7Xlz4X/xsiwibeTsabVuYtOAjtOrcAr0uOg/de3dGt14d0bVXR3Tr1QndenZE916d0KNvF1Q7IwGNW5yFvhf1QJce7XFun87o3rsTf4eOffr3QOsOLfH6mFfhhw+33HsLGrVsikOpRxGAV4nixJaI5OshC7/u/AEHEw9g0JDLMWjoFfwZ2iJn8Rjx5tjX8cDwYXju+WdRp24tTJk9ictV7zbAEbJziFWytiAfYPHIdVGfKVZc0KJybYs4lTyh328OGVlE1HvIkgaYsWAqR4swZFAoygzQNswCBYToYp0qMpzK/eQzJ+4XRFyI046zMoEbKy5QqD+yXOi58iEkRMWFyhotIrYMudEKKtsZ6PwFl/bB0jWLuAF8bdwraNS+ISbPm4R0Syqb8NG+UHJW54iQwqqG0FMsBWKvW1qvCxUXJnXHtMOfIAUWOL1xKi7Q4Medxg69KCJEq87NsXrDCvYsT/s5jX4dLCEDyOO1OajHjzs244sfPsXmrd/hr31b2YKE/GTQnlJbgEQFa5yKC3fjtGnnIeH9XIeOFU1cUAfwbJXjM8LmVzp/GgDQexmgbSoBXnUgEYJ+Hzl1evLFR9CjbzdcdtVAXDZkAMZOfBcaWyJvYTFnk6hnhz0cT+LC9rwOHdMUnwtV3XKB2hnyYB5BNibPn4DbH7qVLY08yOJJBoUfpW1hNJGhpLz2c12mrU60jey+J+7Dog2LeNsMOdDl1Szp1wudONEgXA1FmePQkaNFFOxzobT6mOJe1x62wsJ13cZ78vsP7o9Pvv6E91une7U8yVAnEtSWUPtBbccR4yHcNfxOXHTJhbju9qF45PmHsH7jGjg8FjgCFtgCZiXiDgnJFJGpnMWFlylaxKRcceGHcnboSPmhtsM7j/2JlV8twyeb1mDNt6vypLX09zersPqblfjip0+xfvM6fr3uu9Wg99bSkV+vxLpNq7H8s6X4a/8fsPsteO7Np/HLrh+U6FiuVGREQ6LSvfVuGiP5oMlIwo33XYcftm+GGy7oPKlwBq14YcQzuOiyC3DZ0IGYsXgqbOQAO2SDI2hjfxqOIPXnIi7Eq2hY1HaB2jVu28IUlU7PY+t5K+agbde2MDh1PJ6jbZg8Fpf+odD+oaj5n/97Ii4IZKUOWR5xwZ9PXJhNoSgrr+UCVThuxFVlNGqGlUGmXUErh0b0wQPaFhFCAI6IlVdmzdnpILND+r49rHq4Lxsv9/zM9JzUEKvbIlTLhUnnVghxgQeEQTNccLL5awh+mH169sFgp3yNGGGLmGCPmNnhJq2OkPdrEhU8cMJM21j8ejjDVt7Wwg7NqCziynIhV1wY+JcSLaJCigtsfkwWDBSHnExXY1YXggboslJgydYp7RQP9i28v5pHD9H/aE8tlQ2tTPCKOA0gWVxQnVmW/SpVXsuF7WjO0SL6KNsiRFxQyjNqsk5iH4Whc4Wc0LhTOcoOWTSkuzUcGULvVvbHkmhIkSKURE5YtfCFvXBFnDkDSxEXTryiVGnEhZAFJDCQTyNnJIM3OdiDNpipz2VnrjF1Ptr/klhAzkBpu6HyTzGhp+1zFNqWVrPtQYsiLvDYMNdkOv/guTT/pjJSHTrGnbig+pIKmXg1mPpWSsETJNq+RhGAaJxz/OdIOPTytgbqf8mZK21ZIStP8pMQKyxQv+4Im6Bzp3K0LOqzSQyiMZY9TKKyMWdLBJUvCZC0QEBbU51hB0fZovJlcaEct72UBjvMTNTnQlW0XFDnGSRYs9Nztl4ygKKzZQTJYkXxUybiwon7h5JiU8QFERdEXChlBtRGjya01jAlA8zZWg6lp66oGP3pvPeYwmZRw0jnVaeN5dEYFmS5cBpti6gA4gI1jkqemdk7OJnD0qTExGGGFEFHyV9l8EkO5WjywkePhh192cj7eI4gpKxgKb4LyqZhLqiBJ47y+lyo+OJCnrIiywQSB/I43aL6EF1tIDNWGviHrCCnXzTAZOdMNAn1aNh3A5UZiRN83XJYcYwtNxEXTl5X1LaN2jpaWSbLNtoza4064KP3C03R+kksmEiUYjG2dH3RxJZvRX39X8SFeP+N3EbTJDFogsGnhcGvy/WtkG/yyBzRqnvQBK0nBRp3Mh/ptc6bCg5DF70WXY9+u/qdss6HeBYX1LygvKFtatRvGjyp0BcjKd9P4Tacrk91mtoCuod6P/WYUyZBE3+G2g0WHULK1kWTR4t0dwqXbbpXA0vQyPvqabGGPqdep7Idq7q4oJan2ibQkRcqArRQZoY9u3yEQvW5qtpRxIVSnlhWNaAK+r3q5JpCUdIkOs+2iCphuWCEhfeC0Wq5KjAYYWOlPTp4ZkWeOr9cdVVtJAvK09I+V7C40K9CiQs8kMgRCNRBhXqMDhxp8sJKN5WDiWNAs2+FnElNdIJEK+YFDHRKuxxir1+QuFBtWg/eFlFRLRdifx+XFwsoNBhUrHbofXa4RINCXlGk+qGEYaXPsAAXLT/6LJclDyBzyzX2HmX5WsSFUxEXYuphtC6qZUS8q68LOqr1Ua3n5S3+FfSM8XiuMokLlL857TfVezUVxo7q1DGmX1C/n5+f3LbkxByWRhlXFHGBJ/ol1C+q/qnUa3K9LqQc1TKLPVJI4hzfSMxBrjhEn1PFBbXdKI1yK89ririQW0+ZCx4HkDVS1FKFBIbouK48y6mq3FvEhUIar6oCQFn8zgLFhRVRnwuz+1WBbRFGWMKGqNVCrrhAVgzUCNKgRvVYq06kuBGMDoDKoozy36MgcYEdOk46D9OOfILkOPa5oP4WtSP5L4OJDHLcmC+mu1JGyiBWvXZ5HKuKuEB5y4MDXjmMEReiYTVJXMif/3nLSBGKlGvkikn5v1Paf4u4kDvYK+28luufel6fWFyYiyxkwkCRFkKKuTm3O+r2vkowXuLfH+e/oyKIC/FW59SIJgVtXaS+oMqJCxSKcslVSFh6Fbp9/ySOwgCdX8sLKBWhDhSXL3X8R1tiKJHIoJ4r7rXl+yfvb0RciPNOpjJAXKC4oDp0ZHFhEvbBDLffiMoWLYLKzxo6Xlxgh4KhqPl2zip57mqr2gj+l4lxSbJyyuJC2MDOEUvy3uV5LfatkEdciJZJOQo9an6cSFy45M+CfC4QX6ozUIU19VrxeGTmc/I5d5Uhpy5wCCllW0veVcaYMlLrEl2nnFcp8ooLO9B83FBUX9gHCR+cjyfE58JxAlE8MlkZn+m/iAv02dhUGfMjHn8T5Xm8+lyIx/w68TNF+4I46BNO/Jwnn7Cd6PvMTKzPhZ9mIGHJ4CorLqh5pY4D1MUG+lt9T47FY+5E+SfigogLpV7RChUXplAoSrJcqNzigloBFUFBmYxbedIXvxO+UxYXKOoC/5bSa6TU/CuLI4kLBa18lMW9T3aP48WFe3BadFvEJQU6dKxY4sLJfr8SUlJ10Bj/vIm4kFtG6qriycs49zvy2dLJC5qEFB4tIq/lQqywwJMXGS+V+niJuOe89ujggwsv74mvaBFlUy9zt8WVzf1Kp66V5bMzMyIulEn9LMtyraj3EnFBOstSr4wnFBeqgOWC2jjEigvKinJFEheuhOLQMf+2iEooLsRpm5BfXOg1vaqJC8oWIrU+xfuxQHFhAVkuXFDlLBdEXIifyQtNQiqquEBtYLzX+5J4vgLFheUD0WDVvSjvUJQl8ftOfg0RF06eR3nrgogLefPjv+affL5k80/EhSrSWZVnxSlcXBhYpSwXyrMM/uu9j7dcuBKnTyWHjiQurI/xuVC5xIX/mk9l+fmCxAXVoWPBlgsl21mU5W+tDPc6kbjwuGYlPMiAyZeuhKqVfqhKTBrjgeu84kIyzp95J6otvBgJk/rg4f15LRfi4Xljn4GenSdRlby+8G/Mb7lQpcSFwvouER1i60Psa2Ymj+XCTNkWUcnbidjyj7fXIi4IfKU+qBNxobCOMn7PFyQu5FouiLhQHg15QeLCadN7crQIERfiry4VKi6Mr3qWC+VRX+SeBdcJnoRkG+EO27HbkYTzZ5G48L8KIS5wG1gFxmyFigur76silgsFs5vX105hn6ma50VcqJrlHq/9nIgLVaCjKm/4TiguVIFoEeWd/0W5vyIuGGCPWLHLvA9NptO2CLFcKEpeltR3ChYXeiBhfA+o4gLF/KbYziV1T7lO0QcsirhgQDjsxGeuqENH2hYx/gI8KQ4dhdFyGnvQJMTK4oKjwokLVaU9UsQFfV6fC2S5sLqqbIsoertbVRjJ/ztpfGCjaFd+I9Jhw1vs0DFvtAi9P73KRIvInz/yd9nWKREXyqmDr4qg24NGGH3pMAR06EnRIqYMRAKJC79WDYeOFaXMeRIbNsER0MMeMWOX+V80mXYVTp9yERIm9sT0w+uRooairGTRIuK5jGLFhX+Rhj7T71UcOo7viYHbx8AKB8wBPWxBfUyUiIoTLSKe875IzxY2whLQAyEHPnftRPNx16P6fEVceDpVtkUUKU+lvy62KJMjLkQc2OVIrFCWC1WFGRYX3Ab44Mare5ai1qQBqLaMxIVcywVzgLYk5kbz4Mml1I9i14+Ky5gSbjHTb4YOVoz4eRoSFg9CwtLB6Pb90zgKE/Q+HZxBKywhq2zHk7pSqnVFxIV8gNk5troSuoYaGWvYyJWQB/b0t6Qi5wGpqka/rgBxYSL2woysbCNIgJBOsmwVxgI7U4oLHTDAAYsiLkyPiguTemLaYWVbRIZPz/XDEqYJbBw8cyV/BmtYGUh6vRaQuNBbdehI4sJf77G4YAroYQ1RuRjyJWnHyrLtVvsOSzAqLmSSuHBtjrjwVOpKeNnngg5UrlJ/JA/KigGeuJLlQn5xYXIfDN8/Fy64YPBq4QiZi9zXl2Vdq4z3ModNsHoN8MKNV3YvQU0SF9hy4R5swRF4wnYWki1hI/iz0XFpWTEk94nH9ipWXLDgbRIXllyRIy4cgQk6v57FBWvICtliUowyDJthi4Y2lbpQcD6KuJBvQkKxUAkWa7YBlmwDzAEdSCGWVAJ54NdD79Ui3atBjxVRy4U5F+Lxnyfgn4gBGR4dLH495zXlv6TyyQOFewOs7GzOiB2GPWjM4kJ/JEzqhSkH1iERRtiytFw/eEIr5VXqvFIbZPTr4ckyYA+S0XP6PWCHjuN74X/bxsAMK/ReDUzZ6dF2i9ouNelhpvZMUt48KK22PdsAqhcGnxahbCs2OP5Ei3HXoPqCvrwt4vHk5ciCDfqsNG7vqM5JkjwoCwZMtOLt0cEVsGCn7SjOn3mH4nNhcl88tG8OMpABnSuV2zMZ95TAuKcIbYwxYIDJlY4sZOLFnYtyxIX6q+7GpvABuLLNMPg03MbQZ6mciB0ZM1XlPKAoMEY43HpoI0aM+GEKEpZczuJC1++fwkHooPWkw+E3wRwwwZJtFF6KWGcsXOeMsIdyF6JFZMgrMoi4EBUXCBLaZ24PWZAZsiMYykSEkxPhUOmnSMiJeE7FzQP+bYEMZPus8Put6LvqYWVbxNwL8dIvU5AGG+BzIBywIxSyI1zlkwPhUGwqmzyJRPM9GLIjRGUBFxJNR9Bs2hCcPqU/Eqb0wsIjX8KOTMBtQTgo5VVWrFK9CAZsgMeBZJhw4bRhOG36eUgY3xODtr+PCLwI+O0IBjMQCjnzJTrnkFQmeUB57UIolIlAth0I+rHFtQftx16L6osu4FCUz2pWAfAi22vJ6Wfiuf0/8bOpfeWpHuO7rzvxb634z05tQ9jvAMIeHLWn4n8z70K1BRQt4nw8cWAhgGx4PWaEg04EQ0ri75TBOKi444zK8v1AMANBtxWAH2/vWYraE8ly4RL2ubANSUAoE9nZVoRCSltP5US/vbKzWxF+X34Gy/SZAxmAzw4PMvHBj7OQsGQQEpZdhfO2PMWLD16fBQgodTocykAk5Cj1lHccGzumrZivKc+o3mUHHXAGzaAFaWXuqCxMi8igiAwiLsRYLpDAYIlYcMSbik+z9mCtdzfWerdjrXdnqac13p0o/bQDa7wnSZ4dWFPCaa1nJ9Z4dmK1ewdWuv7CSs8OtF1zFxKm92efC0N+Hom5gR1Y6/wTK7O2YaV7G1a7/zzltMr9J0osZf2JVXGRtmFVVuklzmfK6wLSiqxtWJ61DSucW7HKswMfa79Fg5lX4LSpFyJhck88vG8mFmfvwFr771jp2hots2gZnGrelWSZnfK1tmGVuwipFMvhv5Qxl4trK9Zn/IXpvq1oOftWVJt6HhI+PA+df3sVq71/Y4njDyzN3Iplrm35Ep37Q1K+PFietRXLs/4o4bQVy13bscz1F5ZmbMWnrl14w/gZzpxwFc6Y2w8JH1+AwYenYoP/Hyx1UB36s2qlLGrnSzL9hZVZxUursv5CVUkrsv7CCuc2fOLZjcnWX9Fyzk04fd7FSJjSF1fteh/rgv9iecYfWOPejtWeHVgbTes8O1C8tBPrPOWUvDuxrgIlyvdVmX9iQ2Qvrt85EdWmDMBpSy5FrTV3YIznR6z37sRy6mvpc14l0XcKHLudbMyX834pj0E9JTSOpuuoqShjc/W7JfU8RXmG4n7HtxNrC0qenfjE9RdWB/bgjl/HI2HJlUhYPhitNz2MhcHd3E4SO2t8u7DWt+O4tM63A5UhfeLbgRMm/w58Uoy0zrcTn/v3IC2ihzlkRAZvIVO2kYm4IOJCnn2ubN6SbYAdGVi+6ys0nnwrGi64E2fOuwlnzr2lwNRg7i04eboZDeZG05yb0aAIqf6cm/Gf0+ybUL+Iqd7sm3Bq6UbUmx1Ns25EvULTTag362bUnXkz6s66GbVn3YRqs8iZY38kzOmH02Zdidpzb0C96TegzszrUWfW9ag380bULTDdgLozb0DdGSdOdWbcgOPT9agz43rUmV5AovPR92pPvx7Hp+tQe3o0TbsOtU8h1Zp2HXLTtag17VrUmvofE32Hv3cNak2NpinXoFYxU80p1+D4NBQ1pwzla9Ox5qSrUWvKUJwxaTASJvVDwpTzkTC1D06ffClqTR2MOhOvRq3JQzjVnDwUtSbT36eY6NplnoaUwT3pHvnSxCGoVRJp0hDUnDQEtT8eipqTr0LChxciYcp57GQzYUp/1Jp0LWpMuBo1J15VSLoSNScWkiZdhZqVIU0ezHlD+XNqiT5f0mkIak6+RkmThqL2pKtRfcogJHx8ERJm9OW6dNr0y1F7ynXKZ6iuTS6lRNeOTUW5T+z3C3xdUFtSyuemXoOaOela1JxaePrPbW5sG622v3mOse36iV+fSj9xws+ofU7OsaC+qfBz/2fvOsCjqpr2kgRRUUFAQHpRVKSX0EKvShFBmiiWz4Z+KqIConxI77333hFF5UdpNnqVHkL69prd1K15/2fm7k02yW6yCalw8zyTe/eWc+89M2fOzHvmzPHW1z28lK7vh7JLBqDMsgGQLQyBbHlryJa1RuDyLniY+9e+eIz62GX9ePv4UmFLx7zR48v6wz8a4L5uAB5fLtATy/vjieUD8odWDMATbiq3YgDS6RWUW5FHWvkKyq18BeX9poEovzIHWuU+T1s3PblqIJ5c9Sr/JruyHO2vHoyAlX0gW9kRsnUdIVvVDY+sG4DHVw3EY6sG8pb3Vwu2KN1D9ISb+PfqV1HObxqEcqs9aM0glHNT+TWDUH51DkTXpNFglF+TlZ5cMxh+0drBeDIDvYYn12akCmtfQ4607jVU8ElDUGGdn7R+CCqk0VDer7h+KIgquIl/bxiKihloGCpuGIZKTENRaUMuaONQVGIahkobfdNTG4fhqY3D8dSG4aiyYRgqbB6OR9YPhGxLT8i29UTAtpfw+NY3UGnzCFTeNByVNo3AU5uGeaXKm4chjTYNQ2Vv5HmNz/3hqLzZTVuGo7KbqmwZjiy0eTiqiOTtvNdjI1BlS0aqumUEmLaOQFWf9DqqbnXTttfx9FYvRMd9ULUdb+DprSPRcO9HOBV/ExqXFhY75eeTwAVPYEWKXPBI0GixqqCHGUvO70fZtR1RZk8XBO1qj8CdIQjcQdQhH6k9Ardnoh3tEZgbyny/r9/b2iHQG21vh0B/ydv9Xo+1ReC2tgjcmk5B29ohaFsHBNH7bW2HwC3tUGptO8hWtYFseTAC1gcjaGMwArcQtUXg5nYI2tLeTbSfTnQvn6drvFJb93HaZqJNbRHkF7VB0CYvtLENgnIk4Vvoe7LQhmAE+UWtEbTBB61vjSBvJF6/vhWCfNG6VggSKcs1LRG03k3rWiKIqTmC1gpUaklzyBY159GtwBVNEbS6KYLWNUPQmuYIWtNCoLXNEOQPraH77pWaImhNCaDVTYS6ovrKF2oifPeqZii1pAlk85tCtrAZAha3RNDqVgha2wJBa5v6ID/5kx0PieeFRs0RtK4AaH1zBOUbtUDQ+myI3n8DyWkLyJY1hWxRU8gWN0XgCjpO7Y3aK7Xp4EKiNghanwNtaIOg3BCVl5vr8/vajW0RdE/UDkEbs6FN7RBUYNQeQZuyoc3tEUTkeY14LM/bDgjaTNQegRuCUWpVa+6HCVwIWEP9HvXBmfrObH7TtdwvU9/shTz7b97f2g5BHkQ2QfpvshFypqCt7ZGBtrVHkAcFeuyT7RGYV9reAYFZKASB2/NAbEOKtmTmbUcE7shE4jO2dIJsXQhkazqh1NrOCNxC17nfK4NN6lEm2axeqSMCd+aCdnVEYBbqhMBduaTdnRDolTojcHcuaU9nBHqlLgjc4wft7YLAbKkrAvf6Sfu6IjALdUPgfn+oOwL3+0tUXncE/pCVAtKO9UTgDyL1QqndPSDb2guyrT1QakdPBO7vhQA6f6BXOv3YC4F5ot4I/LE3An/yk+jazET3ZimjDwJ/ctPBPgjMicRrM28PvoTAn30QnfOgAI/99HteRuDP3ino1758f8XfhuJAwiXIHRok2nTQuxPgejrYD/K+BC54ZNk12Sg7vhmrT+3BY9NCUHZJV5RZ2AEPLQjBQ/NF6oCH5ucTzWuPh+a3R+n5HVB6njdqj9LziNr5IPF8Dtu57VE6A7Xj30F8jPbTKShtvy1Kz80rtUPpOW2Zgua0ReDcdgiY24EpcG57BMzpANmytpCtJAqGbHFbyOa2QZnZdF97BDG1Q9AcIvE3bd3HZrdH0Ox2TIGz2yErtUXgbDfNaodAv6gtAmd5oZltEMjUFoEzidogYGZbBPCW9j0pGAEzPWhGMAJyRa0RMCMTTW+NAA8qNb01fFMrlJrupmmtUCoTyaa1gm9qCdm0TDS1BWTTmkM2vRlkC9zgAgEMM5tBNrUJZFObQjalhQc1h2xKs5xpKt2fS/KnXH+u+b4ZZN83LVyaQvWUD+R+71KTmwp1P6s5ZAuaQLagKWSz6btaQvY98YP2Pam58Ds/3sHvMvyQA3/4lVs5uefrm0M21X8qNa05vJFsaguUmtaSKWBqS8hmtIBsXmvIFhNA1wKyOc1QalozyKY3d7e7YMimEbX2QuK5QthOD4asUKgNZNP9p1LT2yIDzWiDUtlSW5SakRO1Q6kZRNlcN7MtSuWK2qHUzJyoPQJmEbXzg8RrPbe+7vO8RtzvgIBZntQeAdR3zmqPoFkdIJvdRuh/KXJheTBki9qgFPed7RFI7zjbPwqc3R6BczrkiYLmhIBpbgiCsqHAuSFgouszXZd2zn1N0LyOyG8qPb8jSs/vlI/UGaXnd0bpBZ7UCaUXCFRmQSc8tKAjZEspYqETZGs7QbayEwIWhbBNWnphCIjYPqUtU0c8tDArlVnUEQ8t6ogyizrdGy3uhIcXd743WtIZD6dRFzy85B5oaRc8vLQLHmHqikeW5pGWdcUjadQNjyzLGz26vBseXdEdjy7PSmVXdEc69UDZFTnTo+I1K3sgbd99LMPvlT3wyMreTI+u7I2HVvbCQ2t7c9QCgwube6L0yl54dGUvPLaiFx4lcv/OuO0Nul+ksit7Iwut6o2yuaXVdE8f77T6JZT1Sn1QdnVOlPXex1a/hMfWZEcv47G1L+OxNV5obV88xuS+hq5z0+Pu7RPr+qHs2r6osW0EjlquQeXSw2KXwIXMQIoELqQldNTA5NBABx3O6f/F5Du7MTFqD76J2oVvonZnIjqWvzQhahcmRBYU7cSEyMxEz8p8rGB+j4/cha8id+PLiJ0YG74DX0XsRuUtr0C2NBiylS3R5P/+i4/lu/Bt2E5MCN+F8RG775GojLzRuIhd8CTPcsaF70L2tBPjwv2guzvxtb8UvhNfi+TvPXd34Ot7oK/u7sDYuzvwxZ0tGBu+DW9fWYZHlnXg0XFyZrufnIxPYndgzK31GBu6FWPvbMOXTFvx5Z0t9w2Npe/PDYVuwdgCoC+ozDtbQNsvbm/CuJub8H7ERpRb8hJkCxtDNqcxqhx6F2OjduOzm3TNVowN3eaFCub9CuKb08rk+icZozqg7b2RIJ8kp77IX/l13x+2FV96ozvb8WXYdubBxLA9GHxrBcrM74ZAcuDmtUKT099gXOQ2fH57A74I24ovwnZkQzvxRVjeaGzYTuSWsn8X3+85NmwHcke5fzf/v2UXxoblRDvx5d1dDx6F78CXodswIXwP3rm9EeVX9EHgqraQLWmJpn9+iQnyH/DlnR0YF74HX0XswdfFgvbi6wj/aVzkXuSJIvZinC+K3IvxHkTl8++ovRifA6VdK94jbjPctw/jo/ZgfNRujIvcha/DdmCS8gBaHJ8A2eIQBKzvgoe2DsCo2E2ehNy7AAAgAElEQVT4NnoPvozcgXHRuzCeKMq9jd6NCdG7stD46N0QaQJfQ9flE8XsxoQipm9idiN3tAffxPhHE2P2IAPF7sFEn7QXE2OLhibI92N87D6Mj96LCaqfEPL7eMg2d4VsS3c8dXAExij3Y1zkbnxHfk3MXnwT7YXoeE7k7b6cjnGZ+/BNjEATY/YhXyh2PyZ6oW9j9yO/id83dj++i92Pb+Q/YKr6V9x0yqF26WBy6qXIBY/8hQQ0SOBCGrggLClCuRfiXDpYYYYNFia7x5b2JcpdHVA9piAONpiQnKqHHWa02EmrRdDUiFb49OQCRICyV8dxvadIdVwsZMwGIxywIMIUiqpLuyNwISV0bII1ET9DjyQ4HUbYQTwzuUngH7UdiQqiDixcr7DHIwIGBC99E6XE1SIuzkIKEpDk0qfpLElP5U5P5Xd92RDPeg9Iwe/WG6gzYwBKrwmGbGYwPlXt5tUiEp1aWBFXLNp7fn9/QZYn9s20LcjnFFTZnu9f2PvUF1tTjQASEJaoQrsVr6PU2vaQzW+OD26vQyocSLTrWPdLerwg9Hh2ZVIfGodkmJBio9UiHPj2ylY8Mq8TSm3qgvI7X8dJRABIRBJdw7YV2VcS+VcHZqTgfiXqb+Jhc5L8pGDmiTWQbegO2eZeePHIx9AgAQkuWgFM+H6r26/JqH/I7ykJJPhmGd/d81hBfYNgg5FeTKZFeznPghZalxYGV8alGDOP5D9ovyVwIRPaYnJqYbCrYUhRPQCkhCGlcEifIochKRbahCjokxVosm0UZIvaM7jw4YlZ+NcZC3OCHLpkJbTWwnmnwvr2kvYcfYoSRIbEGBjtSlxRXETlxQQuBDO4sPjmHkSkahBniYUxWQED8ZZJ4luB8TpZxTzRJ8mRYlHjkjMczRaPQMCSRpDNaIKQM1Ogc6mgSYiGPlniQ4HxwU99aUwW2pA2MRauJB0OGM+ixrS+KL2WwIXWeD9yMxJS9VDFR0Ev6btC64eKWi6Kw/N1KQroE+WIT9Hgkv4u2iwfLoALC1rgravLYUEc1JZomFjnkB1E+uRBsIeKyzeSDSSHwRzDDszYc+vxMIMLnfHEjuH4zXGdeadJkkNvVUGXIpFUByQD5LeoYYpXQuPUY/KRZZBt6AbZ5p54/rfRCEtVQ50QC3OyCjqrW9bFbUG3b3pOfpL4vvlZpp9lGVNUIOLvIV+Rci0QuJDJl3zQf0vgQiaB4FUj3OuW6pwa6FwS5Ucd6F0q6J0qqKyx0DnVaLLjLcgWUeRCS3zw9xz8CyVMdjU0Lg3ULsq8KtV7ftR7bssQ612bqoHOoYQeWlzUXkHlpT0QsKgNgwuLQvfxyLmJjE6Xmp1a5q+bb1SGRAVRB2puQ0kpOlxCFBovHY6AxU0gm94EIeemQQsdVDY5WG9JuqvIdLfe3afoXGpoHEo4XUYcSDiPatNfFiIXZrXG+7Fb2YlTWhXQpmoFnkk6r8h4lls9WZKvpz5WZ1fD4jLiYlwkWq0ckQ4u3FgJMyxQpMSywczXSvq8UPszki1Nqgq6ZAWSEI8xFzfiofkdUWpTJzyxcwQO4xYsLgPUThW0Lo1PIt6JlN114jnxWtqKx7LblvTr6dtK+jd4vr/GpYPOqYPBqgZlj/vuOIELXTly4fkjnyAUOiisSl42UUN9jtTf5L4OKEcf60MBUNA71DA6NTBK4EIWcEUCFzKBCw862lQQ30/GNjk8RocaWqsCBodKABcWp4MLV6FColUNg0PN1xbEe0hl+he2JfJLb1fBAD0ua6+h8tLuCFhMSx82xpLQvYiGEeYUoTzirVS3BV8HxBe9Q4OUZC0uIhKNlgxHAK0YQZEL56Yzr7Q2hcSLYiKPegLe7EqkOo34KeE8akx3Ry7Mao2PYrchkUaIU+QQwQipDRV8G5LqWOiLKVomwaXHxbgItF45DKXWteOkvW+7wQVVciwbzZJuLwqZdAP2SQK48MUlN7iwmcCF4fgdt5DkMkBnU/nU9WIfLgLNOcl9QV9Pzxffhbb+6LyCvt7zm/15H8/r6d3yu04z11FO5We+XqxXo1UJLQz437GlkG3szMtRPn9kNO5CB3WKAhbKLecnD/x5hwfzGvc0elf6dPoHsx58twMJXPBDSUhC41uA/KkbUSkbHZo0cKEpRS4QuLC6JT74Zy5EcIEACH8Utz/Pla7JG99EfqWBC5prqLysOwIZXGjkBhcMMFMYnttokOo6b3Wdm3ojvmQBF5aK4MI0GGEAgwuOgn+X3Lz3g3qtCC7AacJPCRckcEHqa3N0SAqjrXD/ahPBhXC0XjkUpda15WWG37qxiiMXVMkxoCmiUl9cNLqUprjpkxRIRgK+uLRJiFxgcGEEjuQSXKB+Iye5Evt84re/PBevLYzrc/sNBX19YXxzTjyj8548EN/JJIILx93gwuYekMCFnNuAP/Wd8RppKkTG+shYxxK44Ifiza4CpXMZBcpbfYgdlwQu5FxX3uqvsI+J/MoMLgQsDoZsYSMsubMP0TDATHP7c2GMFPZ33G/PI75kABdoWgSBCzOFyAUCF3Q2BV9zv317SfweCVwoGfquJMrWvbwzOyFp4MJdtF41BKXWtZHAhWJkC0rgQkbHuaDBgtyWLzryObVDT+c/p2vp/L1cL76TBC5I/Y4/slbQ10jgQjHqUAqa2UVVvuisZgUX2kO2upUUuVDMZFDkl09wIVQCF4qiLRFffIELHc8JkQsSuFB8DAsRXEh1mnDQR+SCKkXO85tza1QWhfxJzyw+snUvvGAnJBtwIQ4W0LQIKXKh6Ph9r+DCvciHdG/R8f1e6l4CF0om3+6F58X5XglcKGaOXXEWlry+m+isSuBCyVB+Ir8yggs9kBa5IIELOYaZ5rWtZHefb3ChKSRwofi1rSzgwoysORckcKH48S27Nng/nMsJXDBJ4EKR6HdP2coeXLidY84Fz7Kk/QdDx0jgwoPB55LSniVwQQIXCrwjFZ1VCVwoGcpP5JcELhQvfmULLpyXIheKW6crgQvFq/0UN/koqveRwIXiL5cSuFD8eVRU7dfXc7MDF1448rGU0FHy9Qrc1/OUTQlckASuwAVOdFZ9gQsfSgkdC5wHno0+p32RX17BhUUeORdoKUop50Kh8c4TXLhEq0Wk5Vxoio7np3NCR2laRPExSjODCzVn9EPptcGQSatFFFqbyUnXPYjnJXCh+OgIX/IngQvFn0e+eFdUxyVwQZKZopI9b8+VwAUJXChwQ090VjOACztptQgh54IELhQvpSjyyzu40Dg9oaMELhR42/FU2hK4ULzaiSdvvO17BRfWSeCCt7qSjhWebEvgQuHVdV7lWgIXij+P8srbgrrPO7jQBbLNPSBFLkjyVFBy56tcCVyQwIUCd5BEZzUdXFCj6c63BXBhVStI4ELxUnwivyRwofjxRUzoyJELy0a4V4uQIhd8dXBFeVwCF4pX+ylKWShOz/YOLtBKQM1BS1FKOReKXm4lcKHoeVCc2qw/7yKBC5LM+CMnhXWNBC5I4IIELkgykEEGsoAL2muovMyd0HGRFLlQWMo583OkyIWSZTz4BheC8VHsNiQiDuoUOYivmXkt/ZbqpKBkwDu4kL4UpQQuFL3sZQYXyszviFKbO+GJnSNwBFJCx4JqGyW5XAlcKPp2W5LlJ7/fXQIXJMOuwA1b0Vn1GrmwWopcyO9Gfa/lifzS29UwQI/LbnAhcEkwZBK4UODtxRf/MoMLjZdS5EJTyGZKkQu+6qwoj3sFFyjnwuxgfCQXwQWFBC5IfXCh6hRPcOFS3F20XjUEpda3gWxRCylyoZjIondwobMELhQT/hRlv+Lr2dmBC89LCR0LVcf64tGDdFwCFyRlVeCNTnRWPcGFJjQtYomUc6E4KhuRX5nBhQAJXCjwtpKdPEjgQskamZDAhZLFr+za3v10TgIXir9c+gIXykmRC0XaBxdnPZAduCDlXCj+bb44y1Ze3k0CFyRwocCVteiseoILnHNBAhcKvO7zohREfmUAF5b3gAQuFG0H5RVcWCZFLuRFxgvjHq/gwro2UuTCA9LnkrFPbbYwZC03z5DAheLHk8z8k8CF4s+jzDwr6t8SuCDJTFHLoOfzJXChGHb+ngy6H/ZFZ9UruLCmtZTQsZjJoMivjOBCTwlcKGI++QQXZknTIoqjnpTAhQfb2JPAhQeb//eikyRwQZKd3MpPVnBhGWQbabWIntJqEUVsu+WWl/fD9cUGXDA6tYzw01bcz3UFu4QysrvP6NKCKbfPofvoHvfWkM2z6Jrs3iHzOfGbxbLF7xfLyXA+r+9fhI1LdFazggsdIJPAhVzJSmbZKYjfIr8kcKF4GTg+wQUp50Kxa0PULiVwoXi1n4LQlSWxTClyofjLpQQuFH8eFbe2L4ELkswUJ5ksFuCC6DybXDpobUrIE6JgcPgvKOL97Aw5NVnACb1TzaAAla1IjE4DCEQn3h+GiI6+xqrgdxN/e95L5ensKv4G8Z08z3vbp+v0DjW/l86mEgAMDxCDy3FpYUrVQZkUA1VSDExu8MLbO9Az6Lj4fNqnevWH+D7x3lwCJN6+TTwmOque4IKQc+H+BBfS6l8Eou4R2BFlQCxXrNeC2or8yggu3F/TIjzbB+3fa12m8Si3oGUuZMMnuECRCxemwwgDdDYFaLnKe/2e4nB/Bn2UD/WaxvN84Lc/9eMPuKBKkUPr0qC4jnLn9J35Wqdi35MDr+mZJjeJ7c7zd47v7H4O3UP3ZzdQ4K0skkvxebT1dg0dE+tGeI73Npnhmnzsc329Ex1/EMAFsa8Ut9nVR3bnRP546qLsrs+vc97BhftrtYi0us2mDflbn55lpbVPh9BOjW6bWGzvdD6ncqk8sY3Tfk7X+3ves0xRNnPzXtk9JzO4MPn40gc+coHlgvR9PtjiLEfUZ4j9lB9ylB2/7vdzxQZcIOdXkyI47oADcS49RKXgV+N2aECOvyo5VnD+PRQClU2OUhz0sCOZhYMY61e5buOfBIpAALPLwI56hvsd7rIcGujtGphTjTC6dNmWz0LvNm4IkKD3SoQZOoeaFVmaAJOSS9UxaJEECxxI4ffg8x5C7vktYtkERkRbwhFjifCf4iOgtSrd754/SlV0Vj3BBSHnAoELwffdtAjiDYFjDES5O7Z7USTET5JfkhMuOxcOaV6eK/LLK7iw+P5YipLqMQ0IvMdOgvQU1TO1G+I7t797LNMb33yDC83Q8cKM+xJcoDolORR1mrd68ecY8ZvKIYD5Xsvy53l0TVZwoS9KZ8q5UJLBBVHPUZ2y3N+jzHObtKnAILvPsqhP0kJjV0NlVUCeFM3AvCpFAS2tbuPU8fnseMTv7dRAY1MJwILPZ/kABOh6hwZauj8bO4JljmwC0T7wordJFnV2NTQ2YQCEfmf37vlx7kEBF/JNv7OdRfxO1+/5wYfsysgILmyEuBRluV33x1KU1DZI1qlOuX1wG8y77FNZZJ9TecLgm5bbtzJZDkVSDJPaphKAd/ezs6t/fje7RtApudQPvsplvUN6wy7oHVEP8e9s9Iiv8jIfl8CFrPqa6phkIj9s5zT+uf0jkX+Z+SD9FvhQ9OACNXSXlkEBC8y4pbyJzXs3QmNVpjnVvjpcOp5GLi3MMCAeJgGkSGusgnCRY3721klsPLCWlQ8BDiQEafeLZWVSJOKzycHXWNW4FvkvVElymFIFA4MMHbqGDFdTqh4xpiiEKm7B4NClOYJCGekjJPS9fMyhgcmpg9wchYUb5+DktT+E3wlRUCXFMqmT5dwwCHjYdXgbNuxfw8CLPD79GgIRyJHlct1l0z4BFnn5S0Bcet1kqo+8NBzRWc0ALuyi1SJEcGEerkKFRKsaRodaGFnxYojl5dmFeY9n/ZN8kTwSn5lyXY/CfdRR6h2CEWsh97EQ6kXkV0ZwgXIutIFscRMsubMP0TDAnKLk9xE7tcJ4t/x6BvGE2jQRt0WqV1fWzsmf5xHfySEi8JJ4TveIsuDP/f5ekwVcWDYCAZTQcdb9Bi4IfQLVC9Un8YjrNJeOV1rbE3U0gcOebTKX5fnLJ/G6LODCzH7ZggvUjkpKW0qrW5cWcdSGxD4tj/qJ7ifnQOS5yO+0tin252Qr2FW4CyO0sHIPZwdggBXhqQaoHdTPUpv23ZapTG2qHtEwQ5Oqgz4X7y68jxZK6CCHDrGpGSMFRd4L9aGBmvr3VNLbGR2ntPpzaKBy6RAFC/ROQReRzhf1h+f3i2Xf65ZlzKZEgkuP+3EpSlEWWb/j3mST+eSWTdLvcanpg173yofs7r/vwQXSyaw79DxYJ44KZ1cn3s+5bWnSnQ6V0F84NYh2aBCFOBjhYB1hA6BEMh9XO1SIc0cmUJkmAv/Sov3S214MTJDDCE1apJKgUzJe71vPZH5filBQuTRQQAsd+Q/kNzg1iIEWmlS3nZhJT2QuI7vfYt9hsiqhhQFS5ILg37EeYH9PqPPs6jC7c6QLCKRIt0nS7ZTs7ntQzxU5uEANTm9TQpUYAyuS0KN/N9R6tiaUZopA0LLTTA42RTWQMqIRA5FZQsdLCKUSRpcePQZ3w7ptq9mflpvupikQZXwMgFR8Mv4jVKpdHvF2A8g5j7VEQpkYk4EUCTFQJ9PoljACQh09jS5RXMGRf35D87bNcDH0AhKRAJ1dA5M7woKmWwBOLFm3CO27t0aSI46dQgGZVQvRBp5ghksHeYJwz859W/FopTKINkTxu6cgGVakwIYUxMMCs9MIS7IRjVu8iPFTvuJrCESxIYmJQIRkJMDk0CHOoYOBHB2HBrsO7MC4iRPw7eRJ+GbSREycNIHpm+/GIwNNGo8Jk8bhu8kTMWX6/3Du+mnEIw46qzBNQ6zvvG5FZzUjuPCOG1yghI73B7ggGpAELJDMhcqvw2inTsPtHLmNRn/rUZT3hFQjtElKROjCEEeGqkcb8Les3Fwn8isjuEDTIko2uCAailQXZCTK46IQpQ8XopGcOsQ5yXDM6ATkVG98vUOIVorQ3uEyKbqJR3JzWVZOz7rfwQV2CkTHyqllvtxR3ERsXBQsFA3mNkhzqifxvMhLvUuIKNOlqBBlvCu0H7dDmZ0TKpaT121mcKGWF3BBnSKHjt7PvbIAbfP6vMK6T+QT6TmtVY1IXZhbz6Ub5rl5F+arQ4M4hx6qBDmizZHcPg1OAhvSyxTamppiD+FIiIb12B4kTPscSZM+hf3objjjI2AhgIIAajbeSe+KROChlsEbMjbNSbFIjr0Ca4ocSXS9SwA2sntvej45GjrokBIXiiTtv0hOvMsOA029jOP3dfPPpUa8U4PEhGjYLJFsuxBv02VSC61TjQSXFommMCTHXICFHB3P781lf5Hdu3ueu1/BBZYjNxBADkCUMRxRhjCYU9MBX896yGmfyuNBKOrDbVrEGCOgTVby4E5B98EZwYVN90XkAusNkm93v0gDa9H6cKiTlIhzGnhgTeRhTrwRzxvdUx/I4ddaVQg3hEGfqocDRqQaQpGybzVs08YgZeG3wJUjgE2OZJo6KA4AZOqjqRzSGTqYkKi9jRTVdTisdL0WeveApPhsf7dGmpbtVEObqkNSshxWYyhsViUSHGrE2ZWw6m8iMSUWcdQPuNRCxFse+gEJXBB0L8uQW87MTgNiDRFQx8cKeoCAJHff7y//6DqyE8g+NNl1iNTdZd+IdUMB2+K5ecfidm2RggusvCl8PCkWgA3vfDgKZcs9iuu3r7LzThECNJphY9c5Tgh54pFGEqJ0oyM2MZqd/88nfoqgMoE49PuPAFxQJ8ZCm6yA2aGHIUGDxq0aYtGKBYJz7hKd82Qun55BTrod5NonuSMP9Pz8O7rbDE7MmD8N1Z6tCrMzDjHxBErI2biiUUt1igIJdjPahATjnQ/e4O+JtYRzjgQyIIkoGkNwQIVoCgr5JVCgU48Q9OrbA3ci7+DEhT9w9sY5nL5xGqeuncTJa3/zt/zw4x48Xu4RnDh7FOeunsI/V/7Emev/4OyNkzh97W9ci7yMeKcRhhQ1jFYlLFYtuvTshNIPl0bzVs1Rv0F9PPv8M2jwwrN4rmGDDPTM8/X5+ItNGkImk2Hh8nlwwsqgi9gR3IvgkiInxXc/gwuksAjVjI2PZDk6fOJnNApuAIU5GhRxIEzXEUJfc1OXmmQ5bEhEzwHdMGXeZJZdMW9IbsrJzbUivzKCC56RC/tLVOSC2JmIPBKAQGD8/75En1d7cJ1qU5TQU2iyu1Oia3OqM7qGQqOpDf914Tgatm6AS7fPw4pE1lX+lJHTMzzPE18ohDQlWYtLiETj+yhygepK1DU6uxLqZAVcsKNb/06YvWhGmtxzeKOHgepZP972yQCg0Hn6+3T8aLw0pBccsEFNIc55MOByc08WcGFGP5ReX3KXohTbBvFAnRzLcn76+km07NQM18Ov8LQ+ZXKMG0hP52d2dSbyXWdVcB/bvkcb/G/ud8yv2PiI9Pbo1ILCmhNhwJXzh7CoU0NsblETR9rWx18dG2LjcxVweER3uPS3YbAroWSDkMBCYZCA38GlhTwphvXzzVM/YXFwbSQqriAVeihtsTkuG0mOf1SKHBYk4sqfe/BV2zqIDz1BsTBQkXPgBhcIaFAmk8wl4/CSSbi+4nsAVrfMUb1ooHWoIbcpaQIoVn/9Nn79ZBBSKZLCKoTwis5rfusQqof7E1wQ9DXJZkx8BMvPd3MmoN/wPjzoo7LGQm2Vc5sX9Yw/ckmDT6mw49DRn9GgeX1EasK4PxenPGZXxr2cu9/ABVF3kFyTLUS2r8VpRM+BXbFp3wbBXk9S5HoKHLVJJQ/SAZ98/REGjOzPvL+wfSGWhjyL3zo8g9PdXsTJLi9gb+PKuDJrDFLtCqhtCp6CnBlcjnNqoLIqYQVwdMJ72D16KODUQJGigCaHiChf/DYRsGCVIx7JUP79E3Z9PhywqeCADtHRF7Dzw1eQarwDY6oOWjsBGXmL3n3QwQWxLyFZI5+Mor/pb9Dr/TF3sWBD0IAy2xDi4IKfdp7CbUOs274aPQZ0Faawu6fw+eL7g3680MEFVjJuRJ6Ag2hjGAvAvMWzEFBahpMX/4KLOuJkmt+mZUV+4twxXI/4FylIgDwxAiaXMAIgChM5QeS809/Y8Z/j0cfL4vDRw6CpEDGmu7AhAT/+3348WuFh/HBwL06e+xuHjx/Gb38ewZG/j+HYP8dx9O9jOH7yBH774zecuXoGcU4TRybEQecOvgQGv/kqps2fzs9xwslbcixoWkIi4nHq0j+oVb8mlLpI9zUJoPwRBHTQNyUhniMsDKlaRMWFIxnx2L5/Kx4qWxrPNKqPBo2fQ4PGz6NitUqo/UIdPF71cfR+tRcsiWZ07NEejz9WBi82fRZNWr6AarWroHLNiqjXsDYqVi+HUR+O4AAwdaKCIxfsSEC3l7tg6sKp/C4UAeGAFS5QgBi9O70XkRMpSOR9qqdGLV7A4pUL2dBTJcamGfz30lBEZ9UruLC6NT48WbIjF0gOdTQKRdLq1CMBRhw+fhDNOrwIuSkSRjs5oCZYKGQ+m/m3nnVMZZITTPza99N2VK1dGXJ9LMWxsAGauVP0vPde90V+ZQEXloqRCyUMXHA7owJQmeTWFU6MGf8JuvXtKBg2KQp2Oj31U3b1SPwhx1UEKt777B2E9GrHbY2ACka1M42KZFeeP+c8wYWLiEKTZa8jYFmzEj8tQtTj1DYo9DgFSZAnxjBo071fZyxYOhupcMBg13IfQHyke/ypMyqTp6xY9WjUqiHmr5jDPFKkxHJeHL/KyCMIcT+CC1T31K/S1DmKnvv78gk0Dn4eNyKvsG6j6Xt0jnnkh/wTH3U2JVxIxs9Hf0LdxnVxPfoql621yZnPPJrv1CLSpgZgws4J7+LMJ0PhuHYcsCuRCgOSrx/DL61r4/SoHnDY5LjLUUh6Hg1N47FLCxqISEUSdEd34GZlGRB+DkjVIcoRm+OUFLNTixibCkoKj1eex6/NaiNx+qdwIhEEqpDuoIhBygehcelhskTi1y5tkNC9OZAax+AlTduwONVQ2RRQUJ+gu4U1LavDsPRbxCEJUVYll8FtwgNwS/uGPMqi5/33G7hAdUVTW8iuooEhcgQoN9XEWeMwaNQrHN2pssaw/UU6lHV8DrJJ15DuULDj6sB/PnkHfYf0Zd2hJiDaPYXHs17zc/9+AxeoP6Q6o4EWsnspGtlo06BDr9ZYv3s1A5Ump4FtUVF35KTj6TwNvlBkZ1jUTVR/tjoO/f074pPU+OnNPohZMhHQXAUcGiBVj7ifNuBAw6dgWvAVkmGB0ioX8rp5yILZqYbCKmeLWP9WX1we3BFIiWZQUemi6CoCpXOOchJlgew0s0sHdRL1Z6lQLP0f7rzdmydyIVWLCwfW4fxbL8FFSd0p8bqdoqbzNj3uQQYXRH1J9U4RMTRQLE+MhhN2vDSoF2bMIz/IBU2ygm0ItsPdfqjIK19bKpt0ihM2tO8RjJkLprEeoIFEwc5zR6vlg2729Q4l8XiRgAtUUeS4RDKw4MDabatQumwA9v26m51dAhwofwEhTyQkQ98ZhOcbP4dYVSyH/csTImCiuY7UUbg7YDIgaZqBHVb0H9EXr44ayIhzVNxdxNtNGDLyVchKy/Bk5fIoV/FxlKtUDo9VeBxPVCyHcpXK87ZClYp49IlH0evVHtCZNYiz6/H7yUMY9cFIDB81FI+UewQhPUIw6oNRGPaf4Rg6aii27N1EsyWR4LBgzDefI+ihIHTp2gmdu4YgpEs7dOzSAV16dEa7jm3x7ui3YEoyIjY5CsqkWBiSNaj1fE18/d3XMFqM2LxvI1ZuXQGdSYdbd27h0r+XYIjTY9uuLXi8wiM4/tcRXL56EWO//QzXb11DdGwUbofdQujd24hShyHObahRxngrRUT07oRPxn0MY6IeN2KvIkxzC2HaW8KW9plu4pbiGiK0YSF1BKcAACAASURBVLgRdhV1G9TBohXzuSESas+d7D02GtFZzQIuLA0RlqIsweAC1Y/ermKD+sKdM/jz0jFWPBf+PYsuL7VHip0AJuCPC0dxW3GdjebMhomAVKugcxKpGbkm5UfyT0bSqHdHYuQHw7ltKFMomqdglZnIr/sFXKCQRkqUaoYex84exu3Ya8yTb6dMQN9BNLIFaOI1OPz3/+XKKSIDiZyp0KgbqNeoFn74bS9HPtGojGdnl18dw30LLlAbcudDiDLdxbHTh2FxmJgvr70+AOu3rOL9K2Hn8fe/J7y2IW91zEaBe1Rr866NeKZRPSTaLTDY08Mnvd2XX8eygAvitIg5bfCRfBsSEccRb8TX/HpmQZVDeo4SD5JRfuH2Gfxz6Q/myV1FKEK6t4U2jhx/4NjZ47gefR0JlJyYEtB6GO5e343mILtHhYa/OxTD3h7C5cgTo9JXRXKDgzoXTftTQ2e4jcRUE88rVibHIsIcBgcSEXnqAA60qAZc/wtGxKcnbEyrXy0bnEASNCd242zNh4DIC+x4RNkJXKDcNuQ4eHceBKNfC3ky2SUpuPzRYIT2aQ7QtyZGQQOaWqWFglZ9ggVRV37H/gZPAQ2fAuRXYLEqEEu5oZxayK0KaJAI04m9WN28OuLOHgTN5o20Kfk8PctrfeXD8fsJXGA9S2CjW86OX/gdt1U3WIbmLJmFdz4dxfvqOAWOnvkNOivlxtJlAPkz9r8q7n+pPBqwYv0ecQPVn3saJ04e5yhX6pfF5xUYj1wq6JMUDLB+cankT4sgW4LAyEh9GA6f/AVmm4H5MmBIHxz8fT/vXwm9hFNX/xJGhf3RHRRREC8MwCxeNQ/B3VvBATu0CREw6+6wflU6VAxUR1sikIRUhC2chBt9mgKIg8mqgJLaugdQTdFHBDpQ5ILy/YE4N7wrYJUjiq6lAQU/QSWSD0rqrrFrEJEixy1zOOyw4MyU0Yie+TkUrnjEu7T4YeonODFlNA89XUlyR9Px9Ag/wXMPffBAgwtuMJD0AU2hP3H+CDTxSparYW++isXs0wD/RlzEyat/MsjlT/9EfKSp7XYk4dfjP6Nh6+cQo4/gaTxiBERB6YCSXm7hgwvuOXHRcULo2trtqyArI8O+XwhYSEWsKZI7aOpcKfSMDHWTVYtOPdujRu2aCIu+zSMnqmRhSUmRASxUtEwkJVBKjIEqUcFCQaMof148hofLBWH7vs0IU97G1cjL+OPccVSvXQ1b92yFQi/HpVsXcCvyOm5EXEWE7g5iLZT/wIkV65dCVkqGDz99H2O/+Qrv//d9jPrgLXw+bgwqPl0RI98ZwQJ8K+o6ajWoicHDBuG/n3+Cd99/Gx+Mfh9vvfc2xnw1Bh27dETVWk8xWKCyyTnkt9+Ql9E8uBnM9jikwoXtB7bg0YqP4ujpo7BxvEQiElLNqFqzEiZOGcfPUcXHIrhTS/Ts0wMasxIWVxwsIKLkgWro7Upejo4aQ+c+nTFziRAOBFDaK19/QhQG1f+LzV/E4pU0dSS14KdFLO0A2dqSHblAykeMMJizejoeq/YoerzaGZ9NGI2XB/XElNmT0KZbS9R6tgbW7ySEPoGNFlFuaSuACiK4QJmE1dBwno943Aq/hqdqVsA/F/5gdF9Bq6HkZLB7dDiez/F3PzO4cEl7DZVX9ESAO3Jh6Z2SFblA2ZgJXKCR0AFv9MVjTz+M0WM/wNBRg9H1pU4YN/lLPP1sVTTt0AR3NDfZ8MwMAGWuO+I7IdfUTpatW4RnGtVGijOBjc6C6nTuW3DBJRjyNKJ15PQhvNDsOdRvXAsTvv8Krw7rh3dHv4FXRvRB+eqP4z9j3xLaQWJ0ts4X9Qdk0BIARADdgNf74eMvP2QFyM6Bn6MWmfmem9/3G7ggRAc6MHPRVFSs9iTa9WiNidPGoWvPTvh26kQ0DWmByrWqYs2OtXDBwRF92dUXtSEa8SfA4nroZdR6oTpOnDnKQK2YoFi8n51INtg1MEHPUQwxxF+aqsCjiSoYNddxtHVt4PgPSEQKrybh6TiQ3hTyHCVBdXwX/qoRhNSoCwD0SAcXCGAQQYasDj6HYSfFgCBj45L/4UjTKoD5LvTJMVAQuECj3TYlj8BeWTABR3s0grllHaj2rUByqg6RlJ+FIiCSKQrNgciJ7+O3QR2BuDCE2xSIFRPM8bf6N7VErCN/tz7BhYUt8NaNVezoUOg6favosPhbdmFfx+9IkWJk9xmj8PLgPqhYpzw++vo9fDjmPQx7+zWM/uID1G1YG8FdWkEVT8m4dcKKJO5+NAu44M6/QVN/yAacsWQq2vUMRqKN8myphXs9HNKC+Ob7KXKBbHmSJ8oRdvT0YQZ5X2j1LCbP/hYvDeiJr74dgyGjBqFanafx8bgPeUCRAEdq877qVvQPKOdCot2MZm0bYs3WlWxXK+MjoKOErTYlYhxqIWFqUizkSIFmzxr82+tFgMAOGpAkXns8hyIXVFaaigrEvjcAp4Z1BmyKNHCB2revdxKPk16jMmkQiEBWI5KgRTxHK/z2QX+YT+yEmWOF4/HDmGGQH9rAMcQxSEGce+qF3p3wUSzTn63YVh/EhI5U59Tf0yqDt5XX0TSkMUjGZsyfgldeewmjx/wHY7/7BBXqPIE3PhnJfCEQIkc7j2wT1gPAGx+8jlEf0pR38MCfFLWQfVsoNHBBNA5oRJZyFdhhw5KNS3iO/+Y9Gzjs9bbqOpRJ0ZyDgRhKiBE5bikwUrND1z5d8WKzxojVKGCwqhGb4A5Lcah5PiM5EGQ4khFEo5SKBCFB4kuDe6F7r67sCJCBTtMAbsXcRJ1n6+DQn//HwmJMNXDeBkrcSGGfcve967atQfVa1dj55wv5n4v/v/neKAx5YyjvT/j+a7QIbsrREunXkeshXPv7iUOo/UINmCxGWFINGP35R6j4VEVcD72CeFccbquv820z589AjedqwGDVQGtWoVvvrmjTtjUr5mhTOAwUkmdR4sWmL/DcVJpsQUtNam2U8JIy5tKShUokOuPQuXcnhHQOwdIVSzDp+28xZfpkTJn+fQb6fsZkTPr+O0yfORUzZk9H+QrlsWjZPOZHoUyLWFPywQVxlIkcmcN//oIFK+di2LuDWbYHvz4YS1YswqmLf8GQrIbJnt5hZjZqCGTQ04iFU8XgAk1jGTd1LHr064okp4WNGj2Ninl0hv50Orm95n4DFyhkljpefaqaR0427FiL72dNwostnkfFquXwzeRxWL5uCW7FXvMLHKD6Z9CTDIF4DRoFi1OJHKw3Cgr88QQXLiEKjWlaxPJmkM1uho7nS+5SlGQYsHHgXkrsUuh5LFu7CP8d+xFKlZEhpHsHLFg5D3sO7uCVdagPySl6h8oT+o4EnLt6FpVqP4nbkTcYmKDQyIJuQ9TmRHABThMOJlxALcq5QEtRltDIBfomSlBrsupw7O/fsWTlIgwY2pf13Ii3hmPFupU4fvZPaFIopFzIdUB88KZ/hOPk7Asg/rTZU9G0fSMGglS2mLSoB/F+2pIxR6OBFKVII4jkpFucOkQl07REPWIu/o5f29YDQk+zMa+2kz71eL5LgxhOvJwA9fEdOFU9AKlRFzlyIcZOORdEYCE7cEHN86IjKcj5+p/Y1rI6tLuXwQQTwp06mCiXh10FpJrxS+cXEbVyMi6MfgWH3n0JNhhw1yHIOjlblIb5VMcGiJ30PiiaQpEUxYkoeRqIG/wSv99bHeb1WFZwYShKrW8L2aKSBy6k6VpeBlyFaF04tu3fgskzJ+GZBrVR5elKmDNvJjZsX4+78tscjUo2klh3mYF9oQ+mQRph6WdyiBs0b+BOFJ6KmIQIXlWoIPgivhNt7ydwgb5HrC8C3v8Nv4h1W1Zj/HdfIfChALTr3BZLVy7BbycOgWxOuoacPvEez3rx3Cdbn/jz45H9aNiiAVS6WCS64tgH4KTmnIRPzdOoo800DdmOiHWzEPpKW442MtsUUPNATLqO8AQXlO8NwJk0cEEJJUVO8XK32TtV9N5qSuJIAEH0v7j1149QnP8/yH9cgyt9miB5xwLEXDkC/aEtONm7GRJ2LYHuzEFEnTsESgBrpoFV99Rvz+/NaT87cOH5Ix/jLnQcKWehqYLUP93jIFRO71OY56nOiVhuXFqEq0OxYetaTJ3zPSo9XQkt27fAvGVz8ePvB6CIp9wrwjSd7OwAOke+JPmDoZE38GyzZ3Dy4j+gKedaWp3PR99WmN9dnJ9VKOBCGuNpnXErhZhYMX/5PDxVozJOnf+HnepkZwKjjoJjTiPpLiSQQ5WgRWjsLdyJuYVwdRiebdgAzdu0hCnRwNMK9CkqWFxGxDmMMDmMMFopU78CsWYhdHHXL9sQVDYQPx/5iVdfCDfc4SRPF2+eR43a1bH/0F6e4xttjoAmhZw6JYx2NeQJQt6EtVtX4clK5RAWc4tHwUhJhRtuc5hM7wG98O5H70Ifr0W5yk9g0ZqFSHCZEaq5wYYtzdejkVBSgMs2LESFGuWQZE3krLavvTMIWw9sEUZ4EmIQoQvFB1+8i7OXTuHa3SucHf38zVNo2bkZTv77JwMiZJAYKaQ3SY2T5/9EhFpILkTGNq/tS6MmidGQx0eCIhxGf/0Bnq5bBbUa1EL1etVRvV61rFS3GqrVq4an61VFredq4PnmDbD9wGaYbDrOrE6NixrZvTQk0VkVp0XQcpNNd70DGU2LWBuMD08Vj5wLLKc+vlWUYW+NWTxHYBiNklLCuOH/GYLhbw/FB5++xyKdBDNMlNnYIymQN3CByuf1010aJNjieDRv665NXAbJU3bK0Nu75eWYyC8ysAzQ4zJHLvRCwLK2kC1piqKMXEjnUcYO3ugiYyTjsfRvF5K/0lKT5FjS34XrF9DjlR7o1q8rtuzfxse0NA/U3Uml35u1TOKBOBJz5K/DeLr+U7gTeZPn9FL+FSoju/vzes4TXOCcC8tHImB5cwYXOl0oLuCC8O3e6sCXHuHjnMNCmOdMGZnpb97SWRj0+gD0fa0PYlS04g9AKz6I12dbjwxiU1I9O/47/mO8PLQPhzTTCjgk197eL9vyfMpWVvkQyxHBhVQRXJjZH6XJiZtL0yK2F9m0CJZxT6fb49t88YhG4ugcZcwmkJRGdF1wYujbQ/HWR2/gjfeFCD4C59WUuJiBAHe78yhfrBt6B12KAibKjRCvwwstGmL1tlU8r5UGDcTrxC2/s7ttivvU55GjeJcBg2T8+vFg/DZ2JOdgiOa5y9RvCfzhtuPSusGFRKiP78LpGoECuOCOXKDpENQ30VbUgZmNcBM7ShqEp+qQCh3WDAjGxf8O45DnKFrdyqZEslODpIgLONCsKnDpCI6vmIo97etxdILSpYfKRitLaGGRX8EvLWvA9vMGJMIiRLS5+x+RR7QV6yC/tpnBheDVQyEjuVzcEm/dLOrIBe+2hsjzzHWQVj/uvAsE8NPfH6ePY+gbg9Bv0MvY9+NeQXckk51EEZ4ezi5PRRSiBqk/5vJdGihThNXLyHFt0qYhFPpoWJx6aGzkmKSDE5nfJ79+e4ILYy9vQpkFHVFqc2eU2/U6juA2klwGBtny63n+liPWndCuCITLqP+y4xPpDx4ptmqYH9/PnsRThQeNHIQouTAQqE9RC6s3eSzlnvkZ9JtARmUKRZakoter3fH5V59ymTRNgt6B2iklUiSwIDZFDhUMcJnuYNOANlDsW45kmEFJPtPkx/0dnuCC4r1XcGZYF3fkgpJzIpAN6+19Mh9TWhVIgAEn963F3BHdcGD0QPzd80X8ElwTV4d2wpqPBuDEy81xplkV/P5Ob+x4qye2fDYEFmMY4h0a0HKZpHOprXJ7zVTPmZ9Hv8Xr0iIXTiyDbGMXyLb0REkDF1iOMvVRLHs+7HOxPsT+S28Vpult2bsRQ958FUPfGoxrYcIAriaR8vm5wQUf+lUoh3KukN3hwrxls9Cpbwf2UTmZqx/gl/hOD+q2cMAFt0CQQU4JXQa9PpBHO2rVrYXhbw5Fuy5tOPlgr/490CqkBZoEN2aqWqcqaj5TC/Ua1kPlWpVR98XaaBrcDLIAGUK6hkChjWFn7tT5v/FMw3p4umZVVKlWBcGdg3FXFc7JPDbt34D/jh/Nkwxo2SyNVcXLLF4Lu4KadWvg5yM/ssDQu1GeBwqvo9AkctLpb+3WlajwVHkoDNFpiarEDozAhc++/BR/nf0Lrbu1go1hhARGTilLtdFlQGy8oDRnL5yJitUqINmWxEn/4l1mns4QbqKEli58+vVHqFG3OiLVYTwnmPJRKCzRvLSdIjEGBGpQvgRC0Xb/uB3PN3sWSkMML6lJeSUIxaUllyjBpEgEauT2L5XNu2QGMyiBJs05FDuMzIrY30YjGmoZwIXd70K2LASydW3wUXEBF0TFxSOjwvKhtKyZGDolfH9WY4+O0zWUMZxWCug5oCteHTGAq75Fh6b46tvP4UIK80qsS6o7b+ACnSdZpGSb63esQfP2TaG1qIQRF2suEtn50Rn54p/IrwzgwspeCFzWDrKlTbE0rIimRRB/xA6HOnmR2Nij+d1CDpa00Sx3HYh1zqHWDi1uhd/Ak9Ur4MBvP0IVp0LpSmXwy5GDtJirX6HcBBAJPAL6vNIT73/6LvM6NiGKDYK0d7wHHnjjDTtI7tUi0sCFFc0hm9McnS7OhBFkcFKon38GkLdn3OsxrmvikRhd4N7yO4nLQIk89KgfkUcEjJL+2n5gEyrXfhKJ1njMWjgVdRrWhjZOxQY1AdTZvSfVP41ukzzozSpUqVsZuw/sZEOUliBmw8HLO2RXZl7OeYILPydeQO1ZA9zgQluMVuwoOnDBredIZwlEkSC0hKM72V02dUPgtiY+llcTGvL2a+jRv6eg5zo24ZBmWuEjJiEyzdD1VW/EG1olisDYPb/uRP3G9RGrjSEI1t1/ZtWzYlnMP7dRGJMQxVMIT634Hw4NbAuYQmGhKQoMNgpOBt1HhjdFMQiRC0nQMLhA0yIupk2LIF0vOg+iUc/3ecipAC5oEekkB8mMI1M+xh/dGgPx0VClGhCdHAsXHV/+Pf6vX0sgVY2Yq8fxS6NKwF8HEI9ERCQIK1b8sXke9rerD2ivQwUydtOdNbEd0Vb87vzashNiUyLBpceluLtgcGFD0YML4jcLukOQR+KJQO78Wj5kk3hLK8BQ5AENQj39bBX8/sdh3Lp7E2UrPoK/Tv/By3qrKGrJA0D2jFyg+hV1gzyZ7LZU9BnYiyOoSMhVieS4CuBTfvHCVzlZwYVOKLWlS9GDC2IfTHrdSU6aaCeJfQ7Ja1aZFXlLdjWtRLZ+12rUeqEarM5k/G/m/9A8pDninWZecpuidmlZWm/lMI/c9hYtl05Rbs82eQZnr5xhmzV9MExYGlZP0QmpOthtJhz6zwCcnzEGSI5GtD0GGqcawtKT4rvTlKX0aRFKL+CCL355Hqdv5YgphxrWRAXMJpoCbkL03DG4Ne4twBIGJ4zQL/0fTO+8xCtHJJnvwEb2o00Fiiyg+4lEPeRZvq99btcEqliVnI9mMoELm0oeuCC2Qf5O0cYTt9R2fegAsV7IF6Lo9F+P/IyKNcvDYjVg90/bUb/xM1AbVNBTVLgtvb8T7/Pc0jPIziAwPS7JgGbtG2Pz3vWFbkN4vlNJ2y8ccMEtEDTHhZzjidPHYdDQVzDqnZEY/tZwTJwyESHdOqBC5Qqg8Mjvvv8Wy9csx6djP8WTT1XAzv078cfpE/i/P37FmeuncPH2edR/oR6atmsCi9MEuS4CK9YtwY692zD6iw9RqXYFqIwKbpyEcBqhQ0RCKOTWKESYQ6FzKHHuxmlUq1UNe37dzfNv7sbdgjIlCqqkKM7sGhkXyoK0dstqPPlUecRo7sLkUkORHIWo+Lucxb/f0H4Y+d5INq4MDj2OnD+C3Yd2ukNvKaOwDtEWIQJi1oKZqFm/GmwuK49QkOBGmsI4c+mFm+dR9smy+PXYQS6LwuG9/dGSSPR36vxJVK1TBQQEpP+5oEtS4fL1C7jw7zlcunYB56+cwemLJ3Hu8hmcv3IW5y+fw/krmem8cI7O8zW0PYfL1y7i3OWzuBp2RUB3RcPTS8eRk9CLzmoGcGEXgQsdixe44P42sSPk0XAyUl1CmGzacQ9jk76djqtTyKi0YdvBTXimWV1EKEJ57uC5m2fwZN0ncO7WKYaeyClNV45kqIi5FoTRVC7LPfrS/eUu+OqbMcxiVaKcFR2dz6m+7/W8yK/M4EIAgwvNigRcEDsc8fsJmNGSceMGabROYe1qdga480kfAaN76H4BEHCh+8AuGDR8CAOOlDB20sxJqN+0Huc+IcM2O+eVyiJHzJJqRKj8Juq/WAdH/vo/Xi6UpnKl8zbdYLlXfoj3lxRwgd6XpmiJPNNzgioymKhOBL7QefG7hOspYSDxUwltkhpVnnkKFLFDOk8Tp0Srri3x1bQvOBKB+Oh5b4Z9t/Er8NqJuctmoG2XNjBbDTDahFDnguSR57tkABcSLqB2WuQCgQtFE7nA8stz6Wk9dRV0NJWOiaYQkBPuG8CkelMnCfmCDh7/EdWfr4qw6Fu8GtPZKydRsU4FnLr1jzAKbxci3jzrw3OfQQ1efhJo27UFxk8ez3qO8piIbdzzes99Ok9OgcqqYEfl+tSPsb1/azj0tyBP1UFuVyKe1pCnPssNtIl6QQQXhMiF3IML9B70fJpy4YIJmqsn8E/9ssC5Q3AgHld46WADdo7qhTMT3uQpnTE2HU62qALdikm8POWVeMH4/enzofj1jR5wQos7vMS2mkdbPb+1IPbZCfEKLrTCWzdXF1nOBU++k6zRqmBkcxEJfbFbd7h1iFg33J5pmdFkWgnEjr7DX8bID0dwf0xg/5eTP0fn/h15eXOdzQ2kuftwb+AC2ak0qHLp+jnUb1gXl29fSE8ymINjI77TvW69gwtFHblA9S84/cQrgSdCjihPR9iTj2I9iDqXgHkC+am/3XVgB7dfi9WMlp2bY/7KeawDlPExDC54Lcc9PUpMAjv227F4ebCwigcdM3CidwIV1TDYFZDDAKvpLg6+8zKufj8aoFVnqG9y0IpO6REs4nt6gguekQsRViViPaJOxet9benddQ4NKC/Mv04tJ289++EgXNi+iHMvxCIR+yZ/goiFExEHK67blAiHCTpKNsrP0UNHtkYmW9PX8+j4/QAukJyIsiLaofRdrL89vtGbbFAdUPQwnYtL0aF5h6ZYvnoJHEhAEuLw2uuD8eEX/2EZoxVf6Dpf5dBxikKlVap2/bIdjdo24sGNOIeBE0aK75gdPx70c4UHLqQZlbScWDw7WhRaSVmX6W/a/Cno8nJn3qclG+nv3NVTqFKnCpQ6IZSZQgfjnJRlNhVnb5zBmMmfgpwuStpIS0HS38/HfkGVepWhjqMIBTOcnCqFT2X4pzaq8Mxzz+DUpVPu46kZzlNyMfpbu3UNKlWpiCS78JtGZijPAf0Nef01vPXem/w+WpsWB078gKByATh8/Bd2LKPNUYiJFyIgZi2YhRr1qsPmtHLoJCG4FMJFy6517B6CPgNf5giGhevm4e1P38XHX3zENHrMRxg9djQ+HvsxPvjsfXz+zecYOHQgKlWtiNH//QhjJnyGke+NwLodq3Hh6lk8UbksHn68DB6vUBZBjwSgbPlHeYUMWu7y4cfKMJV5rAwy0kMo85ibyj6ERx4vwytq0P3terdNC9nMrjFm15BEJVE8wQXR2RGcdjIqSM5oWUlhKyytxol5KBrFi3NPioYccYrKuXT3LC7dOccyznO7bTr8cfEoIgx3hCz3WUKy3atDuEdNxOiHYyd/xzON6yI0+iY7snobGVkUDVMU4MJ1VF5J0yIocqHwwQVR7mhLybiozRAyTbrD5iYCCSipKc+bdjuuIq/E+wk4oIzVx87+jlDFbVhSTdDbNVCYY3D4n0PQpWgQl6oXRnG9depU9xTVxGvYA2MmfoouvUNYF/DKKu4R4ezawr2cK87gQlodO7U8+pzEEVSUv4ain+KRwGO28TC59DwtjUFfj7Yk8or4S5Fhx07/Bo1FAW2KEGl2K/YGTw8j/uVUh1QWGQYE0rbrGoyJUwTHVZEUCWOqhudMEzglUk7l5fV8BnCBIxf6o/SGdpDNTQcXVCkKwblnkCwj4JLX53q7j/nDxjQ9g1a3MXH/KOo5Av2JaFoDR915MbxY97jb0NWoyzh38xTrPFpmjaL9Tl75izP1WyjlYjYgBQFMwkCDGReun+FcRKcv/83JblW0pGMm4Mnze0Q5i7DKObT51PZ52Na9EVz6UBhces7ZFMdLxpHjkF6fbKSn5VzIOXKB25oPnnA98NxrHZCowvEXy0O5hZY4NeCaQwd76Gns7/w8kk/sZsBGBStu/ncITn/4CmCNwTW7DjZdGP6vVyOoty+Ak3IxUB9CdVYYIfdUL8UMXBDbP+lf6oNFuRT2hT6YUuMJoKUAXopyId7LoC90OHn5BEIV14XE4C4NtJQ9/txR6FJopQi9EPHmlg1RB9CWHFKqfzFR78RpE9C+O83PByceNWQjl+K75NfWO7hQdJELVMdsfzhojZN4XvJTsLvJTqJ4HNIf8Wyfmxw6jgCmKGCxPkQe0VLDVL9/X/oTBruO9QDx9XrUvzxoSNEIHEHl8GHn0GoANiGBpzIulpMw7zq4k3U9JWIkkIOeRbkU5DYFUimh+9dv48+PBgHuZeMJUBKABQEAF9+RtvkFLlCEUxJNxYAOTsTBmSDH5ZeaIfHMz5xfJSE+HL+/2w/xf9JKGU4kpWphoSgQkksGFwRggX976DHPd828X9LBBeKbICdkQxjZzyJbz4pk3hdsigSYUg3pgxQeNgTVB+kA0iHaJCX+unAc+mQtKE8Z5bkLU93G6av/uFebEoAlX/Y0HSdbnP56DuyKiVO+4X25RYh8pCkrmetf+p3e31JdFAq4WU1tHAAAIABJREFUQA8iZonCQ4YFjSzRHPKb2itsVLz/xTto3bklOw6XY8/DAh1+Or4X5auVw43wa2yUxloiWLHQ8lOEoFJ4FSk8CoEN1d3kDmndvo0oV70cNGY19FYtxkz8DINGDMQb/xnJS0cOeXMIhr41DAOHv4pyFcqjx0s98frbI/HaG69hyJtDMfI/IzFgWH9MnvcdC9PqzasRVCYI7Tq3QevOLdCiUzM0D2mKTr074uGyZfDJ56P5uluqm7xduGYeylUtiyhVGDeKu8a7fPy7qd+hToPaHLlAywne1YfydIzxk8bxFJEV61ch2WnBpLnfolu/nhj+xjD0G9gXA197Ba8MGcjUd1B/DHp9EDp0D0GlqpXQ79V+GPL6EPTq3xPT5n8Pi9WIU5f+wulLf4Oc03B5GF7q2wvNmjfG5auXcOjozzj2z+84fvIIjp86Imxp/+SxdPrnGP44/QfOXDqNfy79jSuRlxHnMsDgVvZC488oRDk1KlKQpPgygAs8LUKMXJiPq1AhkcL+KSGln8o0p+f6e56+icKlaZTj3c9H4cmnnkTterVRrebTqFGnOipVqYQBr/eHOTmO5ZYUmGfZglzroHOo2DAiB0hN84nJUbWrOTqFnSIxLDyTQhTLonJiE4RVVD4a8x56DejOssOZkz0Ur3h9QW1FfqVFLuiKGFyg8EBamsqhxQ35v3ih2fN4uvrTqFWnJqrXrIa69evgyQrlsXzLIqTAAnElGVFWWfd4OP4ERHiCCOSEkCNK83HZsPHBH+pQNJxsSgVNogLNOjbDio1LGRRUJ8rZoCoonlC5xBeaXpCSrEXGaREtinxaBNU1Re8Q8Lpx73qenlarTi3mE/GqRq0aeLpuVfwbdZmdWhpB9OzYhTYk9BHEG1rtho1Ut36Pg5FzJvB1HrzMXN9UpjDiYMf+g7tRr2FtRGop6kwnrMpCo/Vp0ULCsnOZy8iv3xnABYpcmOUNXJBDyxEDBZ9gi+RclUKAtgUjPngNT1V9itvQ09Wr8rZS5UoYNuo1BoSUiVnnI4s8Iv0nOH1xPFIUl6rlJIcETpDDIbYhT/6KdSq0RZ3bgQPe/+xd9OzfjduQMimKgQ8aEfU1r50BA4caoU4NXElRWN6/JRJ/2QArLQlrVSPeqYLZoeKVDsRnpm1zAS6k3eOjLzLZ1Yi1qsgtwOUP++OPDwfAZbkLyjMfuWEBjrSrC8TH8JzdKCQj5vAWrA+ph7jrv4NiHhRHD+DoixWBqPOw2lWIcoMLvr47p/fJzXnuX4sRuEAyQTah2WXA1buX0KhFQ1StXgU169bkPrh2vVooW/FRrN+3Fk4kQ5EY6Y4mTLdDSDYpEabJoYKdNAxn26eIQxVHRAk6370EpQ/HgJYhVCfT1Bw9FPpY1G9eD7sP7hKemRzFCVp9hernpv79ubY4ggsEoFMOmznLZqJClQqo+2xdVK9VHTS9mXRI286tIddSQkIjAzkUUk58Eb+X+Ey6wwwDDw5oCaCjlTvstAirkYFN1h2k333wiMCD6HiykZygfGjPtXgWifYEYbqcnaKxhKlQtHRkHJIQ9e8x7HypOXDnb9BimEqrCmZO3CrIjuf70Xv6AhcirbSyBA0upcuc+F2eW/5GpwbxqXqotDehOvUjki4dhunwJtzu0gDGA6sQf/UoIn9cicPdG8GwfxX0V47h7plfkGy+K+RZoOlZPr7f81mZ90W7uaROiyBeELhMIMKvf/+MqjWqsG1HdkSd+nVQp15tPPdiA5y9edrnUsfMT8pBl6pjW0RnJ5nT8CovZFeQjU8ySPXL5CGfYn1SGSST1J9dvHUWz7VogGt3/mUALfMqRuI90jZruyg0cEGsfJH5xGCimERyvl0Y+c5QdOjRjp2pO8YbcCEJv538GZWqVeTlJ2kebtp8KndnROAECQF1KjRXlxTO9oPbUe7pctCZtdAkqvDWh6PQuVtn9OnbG917d0fn7p3Ro09PhHTpiDIPl0GLVi3Q++Xe6NStE7r27IreL/dCSJcQfDHpM36XlRtX4bFyj2HuglmYtWAGZsyfjqlzpmLp6qVo3KwhRv9XWN5Mbo6CJokiLJwY/sZgBLdtCYvdjNgEIbTm83GfcdZzirqItlA0QyoIiKhQrSLqPF8HMxZM4/AdWqqQ/uKTaLGajH8OdxTGiX+Oo87zBFQIUR/CVXZYUglwSWGwhkZ1aQ5bkxaNsW33lowF+fGLOmMiiuCgDppHDLw0RJGv2W1FZ7XIwIVsRxwEh4ayv5JhvO/XXZgy53vMXToHsxbNwJwlszF1zhRs2b8JZoeJOzFv38py7dJAZYvlkW0xtI1AMFWSnEEGcnC83UvH6H6aK0bvECG/g7oNa+HXoz/x6DwtP0nn+Rk5dG6+ys/NcZFfnuBClaKMXKCOlufu06hSFBavXIgZc6dj9vyZmDlvOuYsnIUpMybjn6snSFp5yUlfnTMdJ+eTjFkeiXHPz6dIInpGtvXk0iA6IRypsGHXT9tQ44VqsFhNMDsMMNjSwdNsy7gH/nmCC7RaRJMVIxHAOReKB7hAIC8ti3s+9JzAnwWzMXPuTMyYNwOz5s8ETQ2LMUcjLtXICZWMrqzzakUZJx6xEUBy76Is13KOaCADQbzGVz0LqwSlcqJBcpbpT0HlEa+LMbhAxqFoIPr6trweF/WHzi7nNrLz4GbWc3MWz8LM+dMxd+FsTJ35PXbu28Y81FopZ0W6Y0DPFcugdkPhp8Qj4RpB9sn5oClFQtvLeK/43nSO82E4dAjX3UWTdo2w52dy4BKhTqGoBTL8BKeQ+h3xPnFLo8s6mxxRMCPl9j841LcZEHEKZqsC0S4DyEGMI3DBI3+BeC+NPIvTIjLnXIi0x/L8cXEaRdo9PtorOSiRyXIkworQg2uwvHUtxN/4k22ZP78ahej/9OeR0ujEKMihh0FxEas6PYOoPUtYHi+vnYXrXRoCVg1MNgVU7ileOT03P857AxdKcc6FopsWQX0NyRLZUcvWLcbMBdMxd8kczF40i/vi7+eQfv+bI260nIgvq2yQ40fOoYZW3bDStBxhOoXOrkhbVjuzTIv1SfeS7Mjjw+GCFdv37cALbRpCn6CHHirQCiYEForXF/S2KMAFsX17qyOh3Sphg4UHpqbPncZLls9fOhcLly/A3IWzsGbTSugTqP3puT+krWdZVAb/dmggT4rhZKwcaUD6PVnOK2RlZyNRnWscCqhtciSlWtDzlW6YsVBYap1WneH+kWVAi4gUBcdH3/p5E45QxJDuGsIdOqgcWpjt6VNjBF2V3u/7AheirCpO6Jgz37WQ2yhpvRFnft+Jn9/tg/OfvoaLLzVHRHBVnPmgH058PBjXejTGxda1cOvtl/DH+wPx69dvwxz9/+x9B5hbxdW21sCX9qUnlIRQU+juveKCaSEkIQFCSCih2JQASfiSkB8CGEwxzbjjgg0YYzA2NoRuminBuBvc7d1Vr9u06tL7P++5mt0rrbQraSWt1r7mOdy7V7fMnHPmzJl3zpz5DNQ2LrnS863jb2rlV31HRYML7fjirDP7BgJNn5u34tFpj2LqzMfx2MzHMHXWY3hs1mOY9sTj2OXamfQhtD4pnT9Kx9gfiV0RIEFbjsNJbaVjmYAi6gN/Z9/Gfzf/48/49e9/Keec5KMNyPRcehmMv8sYuZDObM1Y2cShYCb9UaePxAWX/FqEuMP9hRj41z5Yhe/qwAW11lY1PGfQClI99ziW3AZRPLXiaXzvqO/A6bNKyCaXMej/cf9t/mNkwzHHH4sP1mrLIkLJ5RnqXobBEwB4YuEcfP/w74GLIbR/XIWjnV/8hwuTyyIAc2O1KLI7ZIM/WIejf3YkJvzf1YLQcjbvxltvxPBxQ2UhiD1gxQPT74PpyyYse2UpfnHBz3Hbnf+Q9YK1jXtQXbcDJ/Q8HvOemS3RDzscX8AWYLTDNkH1lr3yPH5w3BGSwZj154BL1hrJenGL7PJAcOGxuQ/DdLBJtgib/+R8PDF3DubNn4v5C+a10vx5cm0urz85D7OfmI2Vr70Ed1gb7Mp72zEI6XLN9LcarJYbXKCesINzNFsl/F1vVJQOqfLKb1GHbscSpQmtUm9ZL57mdKt30PAooiOrfYNOdmZHWz2njtoOJTE8NGMK+g/vC3+oXit/ch2Zuq/URyUvPbggyyKmcVlE76LlXNAcOic83K9eABRmeE4dpGsOg7ZvNOtdD+4koG3vmiohSII8Losg39OdBsUz+U33Dd6nv6buSz/yPmfEKo5NU6IeZ114Bv456e8CJroCHMxkXjKT/p7O/C280EUu9Cw5uKCFCUtW/pANzoBNwl69UleXRJKo+ig+EqBhiGy2f3UJZmsnz3Pnl7xbzTQoBzXDoI/3EcjjzMfm7Rvxg58cgY/XfaiF2zfXyHIID9uobkkEearqUOwjbQHzSHC3iJVZIhcImjDngabnhUUvaDO2DjgDtXDTMc0y66Xxnd+wS9reTDJiHh+3tJ+2S7D07UR/LnZRyScJQmTjJcum7NzUJx7DSQN/JhGIzohZi04SeajIhbaDOVk2ELWiOu4EGvdi2q+HwvzuEkRQh31hDiZpdzW9bVMGHbjQmnNhrWxFWR2plag5fZ6GNs/rdIVhzxZuR8aMTtWf4fGBP4bvxXnw+3Zh5uiT4PrPAvjhl0z1dskt4cHK63+L7TdeJMndFv9uDPY88DcAIVibLcldKkqni/q6tAUXLoQGLnC3iOLmXKBuekI2OHQ78YjupLVjXmMZmZQ62z9toiO5M5ZOFq11o9xp/zXSJkU0gEHpa+u9qbyWNhOxyRKKUNyPQacPxN1T7pKi1Pr3gnYj27OluF4ucIE+GWXkoB1iArs4lzSk9p/KNnE2mBE7jCrT/qUuJaa/zOgTsUdJ+67kqnhEPmvXkn6R2Krc+mC+wxqslgWQ73zyJn7c81jsqt4hCYCZC4bvZVm5Ewt3iOCivJ2fvor7zx+EBss6ONEAq+zU0ir79PKlgwsfcbeIUC2qQxZYJSrCCi+By6wRtloiRtqRALxSFiCItZNvxs57b5S8LEAYNQ/eil2TbwFQh7qgHWH40KTeKflXcvMZFV95rGRwgf61O2SVHYIoH9ExXU4cll+vG5xka9UxvZ4lBHyQCJekH6fngTqnXFuopW9Sfoe2TbK6V39kGQhwMOrG4q1B31G9sfLtFZJ42BG2iA1I1xn988Z5a9sqe+SCYj4FRMeK66S3796CI4/6IWYtnCn6tMu9Q5LxvLbmlRRwgeimEqzMagVdaIrWoT7ihqWe2X2T4MKPvgVXPfcyt2OX6wtZfmFu1HZW2OvdISjpJxs/xpHH/AiLVzyHulgddnq3gZmnFe30MqEj8MSiOfj2976FXTXbJCR+X8NO7HB/LuE15/76HPzxqj/IfSoRFRWTIaP/3fYhPvr8fVFUJvq7YuLlsiMGb95m3ozjex2LBx/nOk2g/7A+uGvyvwXMYJLHMJowc940fOP7X8Onmz6WAQydZqKzBEtWvrYCR/74h3DV2aQzlpDxpENJvjgDVln/dsPfJ+B/v/s1HHn0kTj0iEM1Ojx5POJQHJakQw//PlSI7P98+X8w/twzJAM3vykNPouzqmTZ0ZEGn4avXOCCMlLUlbqwG/5EAxoTPtEdGjn97/qy8zoBLAI85LW5iUfSbgnX4vuU/umfU+d02lXINc/V9Y6OfCcHBe6oBcGYHyf2PwEz5j4uuqG2VuroHcX8XckrFVwYjx4CLhQn5wLrzA5GOpoI1yfWoZ6OjWzX2ercqLK4kjrIGUlb016RS41/D7iMpLZpN6r9O2GPmEu2BznLa5WQvQZ8tvUTHHb897B1xxaxA2xvskVfRoe31dh2VkbkhX5ZhAYu9IHp/tJELtBJZzI1T9QmIBejxxil4Yu6NZLkXq31I49ItIFa+9kr4e/cPaDGv09InIIC7Im8W+ckZOOlWSLFYrjnobswdNxgBGPNcAetUia272zPleJ6buCCloi00O+TL1obssOf8AqgzncpfqW/l9e5vIe6zCicmqY9qOHRz+Ne2d6Ns4m5AqIt708OGuS7WcBU8p+64Q5bUR9yY/j4YZg8fZJMJFiC1R3kadD0TAMObLDFHfBHbbB+8R6abOvQFLPJPvRsIy1lSj9PAxc+PPJgJPauRSLhxr6o5lvQJkndyYOWgVDmdzqjdthD3PqwEat+fw48f/sTnP9dhZnDfozQvk9gRZ1sO+lqYqRiGFvnP4g1I09AdNdHmDX4GDjefEZWr9cGbGiMsu1k/k7W+hR4fyZwwdSyW0TnwQWlAzxykFUX4TKaupbtslkf1lV0UVcH9be1ubrFfqg+mHaeEx3aBEG2dsw+Vx/1os477oupmwx5Zij0u2vfxo97Ho/Pd26WJY0qYrbYcmjvfeUAFxS4z+SojXGPRIVwWSrtiZKF6n9pE3hO8IFbyFoa98LiV/4R++N9MturyVZ7nu9Q72mvrrn8Ju9iQtkQZ5QTuPDKX+PaWxg1nIC1qSYF3Gf56X8RaGymf7B1Nfy+HXAlvHCK/Uvaxwzl04ML5j/9Ah9dxK0oa7EvZG4BF0THJAlu66SHqgP1SJXVFrHjk4gTjXE3pk38DT5/6iHsRiO2NXqx5opzse35WQAa8KnfjB0RGxwERtXzWWyo+k6mY6WCC8KPqAMNESeaE4z01Pl+adGiUv/k8hnqFJdAEYyu9e8TMjNpZzK5PHmQv34RWFDU1t7yffwu9WrWghkYMLofgolmuBLWJPidzfa0fVcmGR1I17oEXFCNb289B9LNeGbZInzp6/+DPbbdkjeB2zBy677X1rycCi4EtcEujT2zAl9/60RMfvReGYTtde3QlkWseBqHHvVt2N374I1Z0ZjwYI9rJ7wRLQSXg0cONDfv2IQfHfMjLH+Voedh2XqSghfQQmZXtC0kGbnwne9/GxZnNeqiGiDCSIEE4jjvtz/HH6/WwAU2AK6XZOdH41ufcEviEC7dIOhx4eUX4rd/1EJ0OUu7z7MDdWEn/FEPRowbgjvvvVPqwe3stLVtwP/962/4xrf+F5v3btDC5b07kEAIK197EUce/0Mte2nc0ya7PWfrOZNqa6pBTf0eLeSM29MELeJoi7NNhzv5N2cVauu1XS1++dtf4Kxzx0tZWsCFAgydvhGpDqps4IIqLx2bsAd7a3fBUU8gyytODWdilRHXl1OdKwOXckx2RLym7mt71JwbAgz5gguOkBlB1INZ2H/S53jsqtkliDwHru1/s/hGTclLDy4cNrPI4AJlEOVMlQtOvxXb92yFN+zUAAaRn8ZnVRZn0gmlI0TnQRwgJUfZjcAus0sEFNvKpTg80hL8xPCnG67AhZf/RpYN2f0WaWv7JbggnTzDFJ2wemuw27wdjXEvvBGCQO6MgIq0GbaVpGxawLzk36WSDd8r+sp8AJE6/PiUY/HkkvkS5WJpqIFP1v+yDyiOLuTynnKACyyHtImoE7trtqOmbi+YNE3vgGUsq3JkW9pQK6CX8f4i8I39PicI2Oe/+cGrOPSY7wpoz1kq5iHKxc7JICfuRANnJ2NObEt4sRse2W5Ov5Y6Yx1kK0r2682wvv0sVh91MIJ7PhVA85NADb4I27E94sAXEQeqCRx0MIPI8rKvDiOGz6f8E+vO6gfPPy/Hulu4g5Qb1WGC6k64GTWDZrg+/A9eOaMnXFNuxYfnDUTQtkm+YUnubJGxzEXge/p7M4ELxYxcUP4ddZCAsavJjD3mnW3Ak3R5i83Q9bPyt04/0+vR9m+t/80MMGRv9ywv7ZTafvySqy/E76+6WPOB/Fyqk305Y9syZP9OPveWGlxQvJa+NOKUHGFmT7XIyyMRQKn9L3WGfTFtjeqD0+XDv/OpYz73ik5JsmAPatz7cPypx+K1d1+RCCzaFF9MS/In75QIA0avWFGdcGE3vNguiTy5Q0D7/oEeXKi56ld4/7ejZOvKT5tqsD5sx86IDV9EbNgescnuEVz+mqke9Rz4Rm3YCw8irs/x4qXj0bz2FcklF6g3Y+c5AxB+Z7mAC1wiwnfIbL7yXQto95UKLnBChOMhR50ZNbadaIq5wcgv6h51KRP/eI36lO4/KJ2TaLmCeKWAhbZyo44xyorjo0C0AaPOHIlHZj8k40oN/NZA0WzlNa6nyrLs4IIIkDMITbthD9WKo/GTnsfjiuuuAJcs2PycOd6LKAJ4fc3L+P4Pvottu7fI2n8m++AML7Pwc3/sPgN64/JrLpNOYKeTCRWjWLz8aXz7iG/A4dF2mPjrP2/G2HNHy7IGJmOzBbXdJbbs3IwfHXMUVrz2EqKIaOtHk8aRCkykjP/mLpqD737/O7B7GGblFQeWSxT471cXno/LruJuEZDZbhnYcPDDNalBC6zNtRLuzbL+8qJf4OIrLxRn1+yvBde0Whqq0Zyow4gzh+Hf9zJygXsp18LJveqZ3DDgxI23XofXP+JWd82ydSXXA654dRl+qAcXwq37vktHmTRUTLTFARzLw8bNY12C5NaOyetMlOcKMhFSAGPPGoNLLtO21+Q6Zc7esFMhFdp41ACxLbgwIrkVZXETOpIHWlSMF7ttO/HT3sfhvU/elPBbrqVieF9uHSE7S0W51J8dlwq7zuV+7R5fgk6qpm9n/+YsXHPT1S26wIzLuZU19+91JEclLz24cGiRwQXylaAWQcInn5uPPsN7wd3AREheuEKccdLqQ5BGEXkrM17skHSdkqafGu9LkRCN/GebZLtxNthw1Ik/wrPLnpayM/GdyKigji4/mUk9U5ZF/B49ppcqcoGzzA64wnaJDvvlxefh1jsYxhmVjPzkvz4buJKXOiqZcWtDTSbqmF+d1fs6OlIvnCGz9BuLVy1CryE9UePcK8AP9UmWYWRxBDt6d6G/twEX7juvzW4RTPxKuRbyDeol87QwSzv7yJ/2PBarP3tdeMDr2ewG7SNtPqmQ7xb0DKMWZKafGbhjuODyX+LK66+QBHHW5HppzdZ2xAttRtKZ4OyXHaGoAyHahZAFLsnH0b4DWOuvRhx+ON5ejC+O/R/AuUkc/Ea4EUU9oqhDFA2S4b0xbIGDOpMyaFJ6TFvEmVQbGCfY/P5KvDXqJDh++g00LZ4qoeM1fg4anPBFbKiJuRFtrsUb11+APcd9Df5/cdbVB3OgBk4OoJlTppP9bK5ySQEX6ndhwOwLUczIBdaZuqcN1hO49Y6bccEffiU+DH0nRlqyrORfx2XOp/+l7rTKJ/U8u16xHFruLhf2OHai57BT8fJqTjo1wxVmBCwz+Kv3Zn9Px3XJ/dnM4ELxtqJknelLsw0F4vUYOLYvZi6aIX6HtbE6RTZKL3lU/S/1tZj17ehdHGSq7P3MiTV07BDRJ+ZO0uxGqy7RD9e21eUg0YoQQYmgTRJu8zvt6R1BAW5xG+bS6avOx6Y/cqKNEWEeGYPQPoTgleUNYWZIYP6GuDZY1teBfHWGmW2lGa73l2EBIyDquYW9B3t2rMHr5w0CzJvQBK8kqWeZ2iuX/t3ZzisSXIg6YG+mzY/iL/+8CVdcz8nYOJjjjEtL2tMj+hD0H3jMtS1n403rdWVPWvWl9TeHJHRlu3/j/VdxYt+fYa91l0zscmmb/j7jvOP2X1ZwgR0OIwNqm/ZKCBpDTy76429wxNFHYJ+zGtzCik4RB4Ac6DJy4UdHHSazG0yYtse7DXt9O2QA7gk40LPvaXh05qNiEHe5v5DQw0VLF+DQo74PT50Hv7v8InztG1/BoiULJEmVlaFNSXBh687NkuU2BVxIdnYsZwq4cOh3YHXUoiHiliUHlkYt2ccvfnUuLksui6hu2CUNQMrfVA2bv1qiBna7tyOQaMTZvxiP6/52rZS11s86WuAIahlJh505DHe0gAvVEorMnQeImBOYoGGradiDXa5tEg3xwsvP4aif/igZueDW8i3oOmoaV5UUi2FugjYzYVLUIYnNquv3yO4I3CGBtM+7G7XevagLeNBvUB/cLmWJSdIdzhRx1rhQB5iNkM/S8PH7NCosU88S7hZBI60lZIni8blTceqAk9AU9sAT0fbBlaRwKQ5jtoZCA6SQzszGqLNGhmVlJ9SU8GDLzrU4/rTjsGb9BxLFoOW7KM132yu3kpceXChm5ALrTDvA7TUJKI44YwRuvu1mDVBpMmshji3yYceSe3hre/Uq9DdGupj9u6V89zwyCb2H9ZLM1rYmszZD3FLWbHpUnOuUS+qyiN+jx4zSgAu0gcwN0ww/9tTuwv9+76t45fVVMjBkKH1rTpHMdVPLg3hslV8raFSoLLI9J+WVkFlg8NgBuOn//izyqmncIwMd6ly2Z0t1PR1cOGZykcEFzt5LImNg0bInccSxh8pSOW67Rac7W50JKshOHGXIE6J4y37EThA8YYfZtw8/OukHWPXGKonE4zInmaHKQUZ02t1hCyyMBdi3FvMuGYs1j/1dnPa9ES0PCGfF1HfTjwQXIvDD+voirPmaCZ9fdz4++/ulWPWPS/HGPy7F+//vcrzx59/gv888gkSUoIBTog9a36PsEQF9/ubG5zEXEjEnnj2rH/57+FeBnR/ChTo4goyY0UC4vRGHLKF6+5H/w6smE/DcdETRDIvsQqANeNhHqgFC6/ey16XQe+QbareIEoALMgBNJs7lQOLEvj/FbXfdJu2RyVZbZiM7lHfp+1/yUPy9ZDuaNOVO9B3RW0AvR6gWvoSSt7JjxZdHJjmmgAvrFuBLD41A1cLibUVJ28A8C1E04uMNH+CI44/Axm2bZEce2UK7TH1aprqnXxM7xuW+IRsaEw0YefYITJ/HZaPxlElB9ZwvZoM5xEjVOpg/fhGzfzMKDW8ulfEFbVA2u8jnOZtuDVoQQAI1V5yH10/6PgJ3T8D7/74G79w9AR9Mmoi1d0/E+3dNgH3dq2hgHoeItvyHeq/KwAgJR9gMXxJc2DDnLiDBfFGh8l4yAAAgAElEQVQubN+6Gp9Nux1xJqhkGxCgRul66zvUu3I9KttRKQkdyWeZ5Iu7YXeb8bNeJ2DJqmdlyYGWP6/9PrmcPoTILmqX3ZQ4Lr3g8l/hhluvE5vFZRLt6Uyu8jnQ7isLuEDj3SKcCJPmBWGvs+C8354v20F++OkaWevGgTkFoMCF1R+/jm9973+xcet6ETLRL8508t9r776Kr337f/H+2vfFWdjj2SZZ3J9/5VkcdvQROLlPb/Qe0Beb9m5BjLNtaklFQItc0MCFo7Hi1ZckySK/qcoonY3McMSw4Jl5+NJX/gen9TkZJ/b8MX5y2nH48anHoufA0/CVr34Ft/yFs3lATQO3R3JKdn+WkRSQxDdMABnBkccejodmPCD3Vjfsgz1ohyPolORjw88cjn9PvkN+s0kYHsEBDjqtEnbJrXu47SZD/Pnv1dUvazkX6u2yTWTbQajWEcqa6aTBrBcZuBCWxJVxqXMMERncqWSWGz5fj69+86tY9h8tgQnXN9EppNHqLuACZUje0aix8xl//jj8617NseGOIowSqCTnRnRNtp9M4J93/gXUBf6z+JP76XbogBXeGWUzdiUHF5K6LZ2/twZHnXA03nrvLam3rYl7WHP5igph1zt3PC9+fdt/p9YBcps87uRy+nmjcPu9/0/KKms928xslq58enCBu0X0nJ4EFx7og5Gf3QsvPDLTRgCi/Tp1/Dvbka2Z+4TH8OTz89F/ZD94mpyoo6PAgWsHzmdZHQOulw4zO3g93vv0bfys90+w4YtPwUTBLnEmc08e2Vm+6Z9PARf8ayHgwvzBMD0wCBMsT8s69EIjF4T/UYfkiIkhhrMvPBu33c3tkxOwNbW/80m5wQXpV7kkQexcDP+Y9H8464LxYC9k42CTM1Md6JPiK51ARgWaUYemzavx4PFfx3s3XyTgwnaGc0tETRb95mx6oFYGBDs3v4nFvx2Mlef0wqozT8My0vieeOXn/fHisBPx8u0TEY/YURN1aeu0W+xOqz1i4ktX3IN9EScSaMbK2ffgrfsIarlhkd0qGDGjAQfWqFO2y9y57g2suPkSwLKJqSDhjlplVlz1s2qAoOpbimNWcOGx4uwWQXkzEiCABrz36Xs4se+J2FbzuSzzY84N6q5Qxr5N8ZcyVAMuAvztD0QK5RPLQf9JopuCbgwdPxjTF0wTH9UWYB+syrOfgQvJvCvsyP7yr5sksoTnTNpL4LFQfhb7OaUrjIJhvjFOrJ066ETUBT3wRVwSSSz2paV9EiBwoFomERux88U5eODoL6Nh4RTZKNfMya12dInt1R62oRFBbJw7Gc+ePxjvndcPK3/eHyvPG4CXfzEYb503GC+c3R87/rMQTWiCJcQdMrSoDlV/LbEso36tCMRdCHFnJE70xexoTLgQTHDLXs3Pb6886n25HJXtqCRwgQNzRluvevNFnDaoF3wNXln6Lls6tiMH1resPoRM8lnhgwe7bDvQc8gp+OC/74jNshIkzrF/ykVOB8o9ZQAXNGCBs+fMFmpvNEskweFHH4bv/+BQEFjggJfbfEgjizokqoENz1Zfi95DeuLIY3+IP//1Rvxp4hW46rorhb5x6Ddxxi/HafvlMtrBr2WRnXDL1TCZTLjihivhC3jhR5NsP8X9dL0JbUuzRtRhy67NOO5nx2HFGy9pORcCqeCCWcLUE5izcBa+9d1v4sVVS7Fy1XIsX7kMz7+4FKvfW43+g/vjD1dqORcILnB9/MurV+L55Uux7KUXsPj5xVi+6kWcfcFZEmmw17YbDfE62fnBEWAOBCY6asDon4/E3Q8QXEjARpBDtjthB03wwI11O/6LF1c9j/+88R+8+e7rGHvu6TjhtJ+hMeiT2V/OMKcaKHaIGtHZ4m8MgePa1pffXYEnFs7C0uVL8PzyJViy7FksWvwkHp/9GI756dHoNawX3M0uyeDvCNHxKeGyiGnDi74sQvGB0QnukAO9hp2G/6x+RXb4sAcZKpxMmqMHvHQdU2rDp0OjKIvDmvXZ9u9nOUliZLkmLexG35Gn4KnlT2prvFR76AKjlglcaFkW8XjnEjqKs03HJshQOWDuktkYMnYQmuL1Ii/uUsL18VrEiHIoW/U5VT7t87gY9zJ6SAvvjeKN9/6DY087GjYv92T3lj1JYHvgwogiggt06AjAcVkX/51z4Vn489+1rXlV4tqOeFtOx4Blra7XIktuvu0GjDp7mJSby+i83O9edhAova6k86Sk4EJyAEc+e4NuHHHC4fjPG6+I7ZD8P+3s8CO2p4zLIvg9Al72gEX660HjBuKxeY+IjLgcLB/HTcrO5SAxOxridjRveQcx+yZ4I1bYktuU8p50WfBv6rWAGHHmbLEjFrcjlnAhGncixm2cEx5EE25E427E4UVjyCIhz9rOJlrkndavtg403TEXnAkPfGEb4nAjHLfCHaqFm4mD2TfITiAEIdzwRRwIc3kEBxnJcHufhNzzvs73s5nqnOlaqcEFtkeLX4vuvOPe2zH6nNEia4YW0wcTObTbb9Leq/aq+t/MMm29T92f35FlYQ4tLtV5+6M3cOSJR8Dps6EOnNnXfLFyRF6l16NckQsUzPjzR+P+R7UtHdlGKT/qbXqZuuJvacsSccvcZXH8fuJF+PNt2oyyRFjokvup8jF3AXOdMB9Cc8M+YMsaBH274IRLW4KUxT6o5/kcQcNAxI5oxI5wzIEo7YTYCg/CUZfYh3DEKf43t1TOFC2lbBV9cHcSVON9jNwlyNYasVAc3a4kcKFFbn7KDbjhtom4+i+M3E7A5mfEJ22o8usy61r5fAjN32G+O/67+6G7cM5vzpToJbN/r7YFbYW0hxYdbbGPmXlXCfeVAVzQOnVXs1nQ4EdmPyDbI1565aXYZ6kWFIvGXQxa0lDQ4DsiDClyYcO+dbj25gkYNGIQhp0+DENGDsWwUcMx+aH7YHbvQ13ICW8yWWEIfkx69C7ccjsd4bhsU2n2a7PvnBlgB84Zbc5wrf/iMxx65KF44T/LBFzg2kfV6fGokvvMXzwXRxxzOOqiXkniyC0eg2gSJbzptptw6523ihLS6fb4HRh/wTgcdeKR6D+qH3oN7YlTB52CX1x8Hrbs2YymRAO8ITo2DjgDZkkcwizKg0b1x2138T0JbVeCZFI6RlMw18JTy+bDdIgJh//gMHzjO1/HoT/6Ll78z/PM3S4zVx0pEuvDdzFi5PpbrxHwhUkqv/b1r+Ib3/0Gjjv5aBz1kx/ijxMuwx7HLvjCTnjCXI+nzTB09P6OfleD1TbLIkoALlCPGHLFfw/PnoIhYwZqa/PEUdTWb4nR76iDKXHjZRnoVGuOTRyLXlyAH538A9QHPahLZq4WA13icmSSnZKXfllEscAFfk/aV0BzPmnEb/yb5iwwg70WsaDAhdLNWGWqd6Zr5AGdmBjC+PXFv8Rl1zLHSkKuSfLXMsqnPXChmJELWvtwSJSPtaEWx/c5FstfXyY8YNtSdjITv9S18jkGjqRN9+KL6s340SlHYMXbyxBAPRwRDvLsoKPeFc5yqcEFgqXsH+YsnYGBZ/SFN6hFmdmiFqmztla1650P6ouWgTuOWYtm4AcnHgFvQJsdddLJzqcNCVCkZRu3M8oRdaiBWwYNHfVXyu7zaI85JYHj5ogLm6NubIm4sYXHqBsbI25wGYMz4UYjcxYlk9hpycfoECtwQRsEE0RwJ1yoCZmxM2KBQxJBanyX6IaYC66YS4AKW8SBnRGr7GyhyqvKlRcf8uFZ2r2lBRc4kWEXCiGA088diYdnThF/zB6ySiRkueqZy3dow+kTMs50zPkj8dc7b5KdyixM0C1LU/XyzlNX0/ieS3nUPaUEF9getTo3Y83a1Thl0M+wz7kTdQmvtsyvi30jxQMepawB5jurx3+3fojvHfdtbPhiPbi9O+vA39l+9M/wnG2LZEt4YEODLKNSYwA+k36//m+tPbqxL+bCFxEnNsU82BJ1YkvUJfaB9mJrxInaOJMau8Q+ZM7JwbLRl1H+jDbRJ99SY50i5FpQZW8fXLgOu8DJVQsaotryK/oT6tliH8lj8R/5jSYXTh1+Cl589UWJ6ObYSi3b1mxp5nKUy4egvCUPTMQBX9iD3gN7YdELC8QOmGXZmrYLXKX0p8WWVaneVzZwwRuxS5jq1uoN4B61/NeQ4OCYg3oqVzJULmks6Jg5IhbJfC03t/lfTIwH19EzIzEHrpyt5l7IJIZOStKQBFFIzhxoMwNUIs5GmutqcP/j92PLnk3woxH2SNu1WEz8x5CYrdaNsh0KB+jc/YGNg3sfc9ZZE4y2rzIHhU6GSIXc8Efr0RRpQHNUAyKamCeWe+wmuJODAy4moGKSODgx85nHJb8Et3pj4jgVuUBkk4rPAfOHmz/Aq2tew7odn8LRZBFjq37PZFwzKQwTsHGd+z73TuxxbccuxxfY590Fb8QpeSGI3nO9LmVFo1mshF9qsNoWXBgB09yBuPbD4iV0lM5IlkQkcPuD/8KkR+4WzWFHxM6FiX4y8abc15TMqEPU1xdeX4LnXnlGC+VmxAhl30EnWKoyK3m1BReGwPR4b0zd+QKq4UF9UEskqjq1XMqj6s1t3OoTXlx+4x9k6y9ps1Et3J4zhaXOdZFLWXkPnU9psyE3Hpg2GRt2fSazr/qkk7m+q7P3ZQcX+hZ1WQRl5IpYEUETXvvoFVx5y2Vib2g7xE5ncObS60adYDImOgiaA6ENxNLvK8bfzC9A/flk6xrc8eC/4It4k8u5bBq4kOfuLcUoE9+REVyYNximBwdjguWZzi2LoOMs0T9x3HT7Dbh/ujbzaA7WwJ2oLGeI+sSM7kyUtfTVpzH72WkIolFzPgtcwqPZRiZUtEiiSH5D2ZaO5Mdn5X5Gb9ChTKeothuNbJmmAxbYb0s0gjjl1OtWnda+rSVm1JdD2VIBF1Ry3mS/3lE5S/V7RnCBy3WKtCxC9Wmf79uC3175G+xz75WoSSe3W+6iPi0rL5N+o6vZhrum3I4tezaKLWG+hbZLIioDXHgT29Ac5xK4wspD/acvS39v4bNzcd3fmEA6Km1JtY2s/CrhgDTTN1keLlth1O27G9/G9CenojGmRewq/zfTc7zGdsiIKRkHtInubc8PTIICUbf4wOn2QctjxqUQzF3T/o4HrX5M6ZeaKD8s87KI8oML1E+CQuv3fIrLbvo9bA1WbSvTCMdNqfYzkww1H8Km8yH4TGE6n+n96hp1jOPCRviwx7kDMxdOlSh7X9wKV4yAaPG/qb69Px/LAy4kUUQOLpvgk8RGDL9yBLnNHht5aictRoHXCDCELTITzRkzzmzSKHIrR2YgpfJy4N0yA0BDFLEJoimzisloBRVySEFq7yYQ4ZH1xJz999DJSENAWxwELlGAU8JreU2I9yYccEa1DLQMbVROh5chktwKTMAMAhp0Ai2SVZqghvYdZrtnnW1wxS3CD+6vrBlLDiqTWfF1DhOBh6BkcWiQwTH3104vczZFbSl3EqigDBoZ9gmfbM/ok/VgGppN0IORFbKGTMrYKpts7+/ounKwMoILTwzCtR8VEVyQOmrIdD18suzEw4Q7CZX1u33UuqO6FOt3kZ0C0qJ2QeIpY8ngnNSTYn0r3/coeWUGF/p0ClxQICKdTOplQ8KLhrgnGUJMXVP6Rjkpas8RKO1vqo3Vx5nvJIq6qEdLhseBQg6D7Hx53979bcCFGbqcC+uKl3NB2QvKwpdwSxtS9lTpbXvl5G9S1jaZnksjK0YAcQkZHRlGrLlCjFDSQtLZh3DGoStmHXIDF8xwSeh8/nltKAvWkyA4t9l1cWY4CWp0RX2z6QT1if20O2pDGE1CkoVfDbYLGbAkB6mqfWb7drbr7K9JknAxDUBg/6clYtSWQrDfUtT6PmWnlE7TnmnPKV+A92rtgEfNlqnvltt2tJY7mTQyPaFjEcEFrW7awI7LUr1R2vdkFGSFgQvUH/KG+smItPqoR3YAkOWT0hepPkkdlbxLe2wvcqGz4ILSBep0Q9wtKcNFv2XJKP1P1k3VN13PS1tvVTZ1VHrDBOdczsy8C/RLcu2HeJ+KYlCyVu9u/8j2rI0tCCq2EhOkW1EX0yJ7ZZlDu/ZL+TCanrX/zc7xtqLABd3Yhf0zxxrapJFev9qvr2Y7Vd9dWn2kbtDHYT/KHBEemYRmxKP6fvtlLaVcu+u7ywIuKOZQgESIZBaZyUx0Cqju4VEZFM0YaEKn4Pkbn9cbF96j7pMjZ0KSs77a9VSlaPlmVEscKckQk+Xgb6ocLe9lDoiwFs6ndxrYUDj7SpJ7+aws57CBW17yGR4JQPAezphrM+faoIp1YJ04s2cNVEsUBDs47RsaUqb4IOtVg2aZ/bGFamAP0yHNH01jOfldziwIJaM7GJrqlFlJzTkSw8mQwJZZx1QeKh7leqSRoOFjB5ayW8Q0Ri4UF1zQyqQtOVB1pXET3laaY6Mc3IQLzpBVQLQWXWq3w+qcPDqSm5IX+eeBG+tdW6Ati2DkQmfBhdaIDHb6zMPiDhEkZJ2o06SudWgy8YdtkcAm2w3zoKhs+5nuLdU16WyTW1FKQscWcKEvRhYRXGD59XaSdVbXSlW3zr5XbFvULgA07b8Q69GFbT4XcIHAszPuKGhHHtU/sE+ULdmk3lp/1Fl+luJ5ykKzc1q0Istfiu8U453arFn+dlaiGwqMxihGuXN5hwxCSgkuJNsc5e3gvvERzefJpWxdcY+ydZzAYlsSm9HV0SVxG9zNjMhqwi1pu0UUC1ygX8RZeC7RlfOW/lf1w+qYfzsophyVnaCfyj6Y7+4au06/hDxhf9i6/Xsx69qZd1USuCAyUuOqJPjP8Y42xqk8e6BsAMtNHdPGm5XbP3VGT8r1bFnBhRSFK8CxUEaf7+FsDf8WyvNd6hk14NQrlp7xcj3LN9r7TVvf2wp6tHmnWuPDmQ0CDylAizJgWpInVTZVVzqsivTvzeW8pcxp/NJfZzZbX5QZg23wJjNed3bApwar5QMXkp2PDmRq0ZcuHLRnk5GSrf6Y7d5yXFfy0oMLshXl9M4vi1DlZ11lRkFmBdjZKL2vRHBB6wyVvWDCSV9UAxhUfcpx1IMLn2EfepUSXKDda7ETypZ1rZOZC48lOoxOTbL8rXUof9lTwIWmtTjmvvNwyPwhKcsiFLigBrPKQcylrryH9SSQovoR1Zfk+ny571M2rpTfJUDPQX4pv9Gd310OcEF8iqT90J9XIt+UTtJHoI3nJJFMULXYv/LrUqkjF5RMuASWbYXROpmXgbA/Ln/99d9sKauaJErad/095TnX+yhdz5f0Oqu+oxKWRbBsIjedzKR9JduY9FtdrFd6/mXSMf3vxnn+NqDs4EJnhKRXSOkQlBPZ6dmp8iFUqiNL77xUfVrD0TILMzXJSeZ7OsXjGLfzSgcWOjfgU4PV7ODCQ9gEG/whfpvRHMWrlzJwKku1PvqkM3wq1bOVUD4lLz24IJELLeDCsoJzLuj5pkKSubd0ZYMLqfrIqCXRq2j57Ab5Vk5wQZOTBjBodre8ddXrSUHnne4TUmVeSBlyAReYYEu/LIIyzudbyinSP8Nr+r8PxHP2NQdivXOpczq4MHD2hTAVcVmEvgya7ah8WSi/rNUP61pAtVzgggYsEOivXHBBWx6pTbbpdav853pwgeeVpdfKb64UcIH8SWlXyR37WttYZfGv0uTZ3cvTvcAFHZignCp17C6CaGlsMqBqdd5zrUepwQUN3CCYkE6FG1M1WE0BF567EqaWZRElBheU3hhOd04dopKXHlw4bOaZ6FFkcIH6QOeG1J3Aha6yNZnBhb4wPcBlEZPhBZN8WSSJVVeV0fhuq8OUK7iQL6CQzmPpO1SkRkrESWtZ0p8x/j5weVNOcKG76JlqQyphba7+WKnqVy5wgcC+lpOgksGFSmmrBriQr76rdsUjn03/O9/3GfdXSlvouBzdClwwFIu5C7TsqTyWhh96A6oAho4Vqb2yqMFqV4AL7ZXL+C2zXJW8UsCFWQa40NX60hZcuBQ9ZhjgQlfLJdv3ywUuZPu+cT2zfTvQ+WKAC5WvF6UGF9gG1PIhLVoyk99XHP9v/2lv6TyqLD2qxMiF/Uf2lSXr7sBXA1yosNCmjpRGZT4vXTZwGtB06lzDUoNVA1zoHB870o1i/a7kpcCFDa4tOEzAhaHJrSiLsyyCTg11glRsnSsWLyrpPXpwgQkde80wwIVKkk96WQxwoXvYu3S57e9/G+BC5etlCriwfgG+9PAIVC0ciW8++zsUK6Ej9VzrexU/0v0+9bf63Tim+imVxQ8DXKgseezv/UhH9TPAhW4GLnQk0Er8XQ1W24AL00fAJFtRlm5ZRCXyo9LLpORVanCh0vlQaeXLCC7M7AvTg8ayiEqTFctjgAuGs1eJemmAC5WvlwpcaOZuESUEFypRP40yFaafBrhQGN8MfSsN3wxwwQAXSrS8olVh1WC1DbgwbWRyK0oDXKgkA6fk1RZcGALTNG5FWZzIhUqqc3coiwEutNqUbiGvuB2uiBWJmA8rZbeIX7TZLYIJHSnX7lAfo4z7h5wMcKHy5ajABdmK0gAXDPuYQx9hgAuV364PpD7UABdyaLQHkkKUoq5qsJoRXHhiECZ8ZIALpeB7oe9U8soMLvQ2wIUushkGuNC9nIe2kQsGuFCoTTKeK57uG+BC8XhZKr00wIXKl1GpZF/oew1wwdCZQnWnFM8Z4EIXDRRKIcxKfacarBrgQvcwfkpebcGFoUbkQhfai+zgQj9jt4gulEs2u2uAC93D3mWT3/563QAXKl8vDXCh8mVUafbBABcMnakknTTAhQp0SitJQYpRFjVYbQMuTDeWRRSDv8V+h5KXAS5UVmfVBlyYeSl6GDkXKjZkNiO4sGAITA8OxgTLM/CjDsayiMpqY8W2pZX4PgNcqHydM8CFypdRpbVtA1wwdKaSdNIAFwxwoeTOuRqsZgcXpmATbPCH7PBG7VBGspIayoFUFiUvA1yorM4qO7hgRC5UYvtMARf8a3HMfZmWRZjhijuMvAtGP1zyfli1kezgQn/88fPZ8KEBtkAtfDGn0Rd3kV4a4EJl9b2q7VTyUfnNvpAVTnhwx+rHYVowCqaF43DCG9dhF1wCZjdEuaW90edUsiz3h7IZ4EIXdR77g/LkWgc1WDXAhe7RYSp5GeBCZckrHVzo3RK5YIALudqict7XCi54sZLgwv1JcGHKkJbIBVvQAmfcAafh7JVtcF1OHajEbxngQmXZ9Uw6YoALlS+jTHLrymsGuGDoTFfqX/q3DXDBABdK7tSpwWpGcGHeIFxrJHQsuQzSG357fyt5tQEXZhg5F9rjW6l/M8CF7uU85AMu0DFUVGo9Mt7fvfSo2PIywIXKl3974MIb2IbmuAeusK2i/IZi66nxvvz01AAX8uOXoV+l5ZcBLhjgQsk7KDVYzQwuDDbAhQrTQSUvA1worfHNt3PLDC70g+lBI3IhX16W4/424IJaFpEhckEBC8pBLEf5jG9UVvsulzwMcKHy5Z4VXFhyCd40wIWS+6zlaovF/I7qO4xlEZXfvosp90p9lwEuVNjArlIVpTPlUoNVA1zoHkZPySsFXJh9FnoYkQtd6tQY4EL3aD/KVrYBF7gsggkddeCCkdCxe8lUybY7Hw1wofJ1zgAXKl9GlWYDDHDB0JlK0kkDXDDAhZIPmNRg1QAXuofxU/IywIXKkldbcOEP6DHTiFyopA5VX5bM4MJQA1ww+tyS97l6PUw/TwcXBsy+EKb5g2F6zEjomM6rrvrbABcqq+/tKj3I57sGuGDoTD76Uup7DXDBcHRK7uiowWoKuLD0Spi4FeU8/bIIh7FbRAXoo5KXAS5UVmeVEVyY1Q+mKcayiFJ3lIW8PxVc+AzH3n8+DllggAuF8NJ4pni2KDu40A9//HwW6ozdIkruE3Wkzwa4UDx974jX+8vvBrhg6Ewl6bIBLlTAYK6SFKIUZVGD1VRw4U8ZwAUneI8ykqUoi/HOjg2wkldGcGF6Hzy+axmq4UF90CpOmCGvjnlaDL0zwIXy8LkYsuI7UsCFpnU49v5fGuCC0d92/cCVMghb0RR3Y13dLgycfVFL5MJln89CvQEudL2M4ja4my1oRiNuWf8kvvTwSFQtHIlvGjkXulw2xeofiv0e5YcZORe6l59QbD2olPcZ4ILh7JTcWKvBakZwYe5gTPzoIWyGHf6QAS5UgmFQ8moFF7biMJVzYXpfTN1pgAtdJSd31IFgwIl12IfeM/+AHkbkQsntV6GyTgEX/Aa4UCgfjeeK6yzLICRsQ1PMABcqVbdU5IIBLhRX9ytV3sUolwEuGLpSDD0q1jsMcMEAF0runKvBqgIXPFE7ei5NRi7MHZIKLkSMyIViNe5C36Pk1QoubEmCC8NgIriwaxn2wYO6lsgFe8l1qNC67E/PUS4auODCOuxF75mXJsGF/hi5bjK88MAZtsg9ci/vT9L+xIfuURenLnLBh5Ut4IJK6Pg0/KiDkdDRcAjLrc8chLgJLjByoX4XBqRELsxGQzJywRtzShQhbUi5y3ggf88dsyMncCFibEV5IOtJet2lXccc8IZscMKL21dPg2nBKJgWjsOJb1yHXXBJf9MQNdp1Ou+Mv4tv4w1wIa3jZIcqnWqcg1x7Bmrdj5yN2aDceCAOSsQJe9AGZ9SB05ZeDdP00TDNHYZrPnwYG2BDU9AGDmgNnubG01LziQ6oN+HCBudmHDbzHPSYMRymaX3x8K5l2Ak33EELPDEb3KTkcpZSl+lAfr8z7oAjakdzwIm12INeMy9Bj1l9YJrSH6M+ux8ueGENW2CP22GL2+XoiNlhj9nBY2Z7ZlwvPl/Yfl0QeUVsiEfr8FLTOhwjyyIGwTRlEK61LEITfLAFzYa9M/rRsuqAk7YgZEN9zINP63ai/5wLUcWEjo8yoeLRAZoAACAASURBVOMsNKAetkCtAApyr8jHsBPFtxOZeUqe2+NWOJvN8KMRN69fkFwWMQrffPZSvI5t8MfccEZsZdWbA7nv7R51d8EVdcEdtMMCL24TcGE0TAvPwIlvTMRO2GEJWuGLuqR/ciXBw+5Rt8rwiRWvNMDVCW/caQCvaWNoBdQY4IKOMVQUAgsc4LqDNnhDdvjakA2+kEH58qAuZEV9sw3uJjM8ATtOW3IVTNNPh2neEEz84CFsjpkRaLSiPmA1+Fsp+uU3oy7iwGbrJhw28ywcJOBCP0zd/jz2wAlfo1miFxjBIHILGu0i33aR8/1ij6xwBywINdiwLr4Tfaf/Dj1m9dYSOn6ajFzwm8V2ucN2uEN2eJKU2ZZlsm/GtbY2P1+eOODjEq+QA+5mK9Dsxcq6z3Dcfb/CIQsGa+BCzZMIxN1wNVaDa2Rz1oNKsQ1GObqtzDwhG7x+M/xBJ9Z5dmDQ7Iu1nAuP9sdlW2bADx8cDdWoC2r2o/PtId/2Y9zvDlngra9FEA3466cL8JWHRqJq0Sh849nf4c3Y5wgFXfA2m1FntMNu2w6LbfPZ33gDdvgabbDF3Lj9LUYujIZp0Tic+Pq12AUr7H4LGgNOeELso9jODJ8tfx4o++SAj5EiMQNgUICC/miAC0lwQUUskDnuBIOKfHDDJ0cv6pJH/u0xqAAeeOARbjoTTvjQgF7LroVp+ihtt4hPHsVWeNCYIG/d4L0an90Gr1t4oXiS65G8U5TrM633UQZuCa7zYXPDDhw252z0mDEMpsf7YmrNCuxDAzxwtbSQevhQB1/J/+M38ietBbMVZ6PSlzzzFzLVJfOdtD1sFR40w4f1sKLvHC6L6AXTlL4YtfEB+OCHAy6JYGAro3Row0ha61P2zDjSvpeW6oTvLrgRhh8rIltx3JQLNHDhoUGYYH8aATTBmbCXvCSlrqnx/tJqUrH5q/WqbjShAesDNeg35yJUzR8C06P9cPn2OfAjAHvcIfam1QcqdimM92XTGvbCTrjgjjvQhCD+uvkpLXJh0Sh8a+kleBO7EUB9sn9Wfbbq641jq99zYPFCa9deeBJuZjDD//tgViu48NYE7IYXdrglMknzB6iBPDO8g/ysUR0XBWt+lUQuOOHjMV78pQX6wXp3OzfABT24wIgFuPHmvjX4xep7cc7HD2D8Rw/irA+n4KwPebwPZ314L87+cHLynH+XmvitPGlNhvt5LQOduWYy8qYPJuPMPGj8msk4Y81kjP/gXoz74B6M/WASvr7wHJjmDBdw4bBll2HYp5Nxxrv3Yux7kzHug/sw/v37cEZGmowz3tfRe5NxRhFoHL8rdC/GvVcAvXsvxiVpLOuRN92Dse8WiyZh7Ls6emcSxr4zCWM6otX6e+7ByHfuxKj370a/N/6BQ2aORNWMITBNG4CfvHQNRnx4J0a/fTtGvXsXRr13N0a/dzfGvHs3xnaS+I526Z27MSZvugtj3uk+NPqdu5CRVt+F0avvxLi370L/927DwdPGwjSjD0yP9cXXXvgtxrx3D0a8eQdGvXUHRrz97xQa+fa/MeqtDMTrBdLpb/8bBmXhwerbcTrbx1v/D+PevgOnvPlXVD02Fj1mD4bpsUH4watX4cz378Hpb92JMe/cY1AZeDD2nXuQExXNDhfLnuvfU0jfkvrM6Pdo5+/C+PfuwcB378Ah08eix5xBMD0+ED9YfjlGr5mMkavvwOj37sTp798pR563R2Peuws50/t3YUxniN96/y6MzYU+uAtjC6a7MfaDctEk8YvGrJkE0ug17EvvwJkf3Y3Dl3Pb7uGomj8CPRadgX4f/wtnfDAJY96bhHHv34Mz3iNNwhnvT8L4D+7G+A941OjMDyahYFozCWcWje7BmWvap7PW3IOc6MN7xA+nL14y+uhenJVGZ390L3Khcz6ajPzpPpzzcefo7I/vx1mkj+7D+HUP4bgVE2BaNAamp8bh68suwNi12m8//+gBnPsx6b7S0Cf34dxP7s+Zfv7J/cib/ns/ft4Onfff+6HRAzjvvzr69AGcVzA9iF98+iDOX/swzv30YVy8YQY2hffAGXeinstRGPWui4TvbmBAsctrgAstSc+cqAvbBI2a8d+l+MrDI3DI3HHoMYcO4VgcNHsMDpp9Og6aPTJJPB+l+3skeszOgWaNRI+8aAR6zCoSzRyBHgXTcPSYmQulfqNq5nC00Azt3DRzGExPjIBp3kiY5g3XQIYZQ9FjxghUzeAgtgOaPgJV00eihxx5XgBNG46qTtGw1ucfH46qFuLsfoE0dRhMKTQUpqn50hDtmceGwvTYkE7SIJgeG6jRjMEwKXp8AEyP9JWZLq7TNT3Cv3lU5/y7kkiVLcvx4f4wdSd6qB9Mj/SDiXKYnjw+NgCmhwfC9LBeFlnq2yKrA+H3EuvhowNgykj9UtvH1IEwTR8C0wwe2a5YroEwPcq17gZ1igePEbDpiDprC4v1fEd2Wdl72vFcST2T61F7b9XUwTBNHQTTzMEwzRoI0yyCx9TFQTBNHaARbYz+nH9npIECThCgaJ8GwTRtYJ7EZwogtrOCaTBM0wuhIdpzqq/M+UjboKfBqJo+BFXTh8I0awRMc0bC9MRwjWYMhWn6MJiSxyoCD6QZ9M+GtVDVzGEgZfXbZg1HDz3p/Tv99Tbn7fijs0egR96k+c2tvrXysZPHOSNxkJ5afPC06/p75ozCQYXQE6NwULt0Og56IgPNPR0HJenguaPRhuaNxsEF0RgcPK8dmj8GB+voIN47fyyq5o1B1YJxAiyYnjpDlkZUzR8rvx0yfxwOFtL+PnjBWGg0DgcvKAalve/JcTj4yTOy0Dgc8uQZ7RB/T6czcMjC8R2QuodHdT4ehyw6M43UtfH4n0U8b4+0Z7/09Nk4ZOG5OHTpJXi9cQuscTcaIga4kA5OGOCCAhfiDtSHbBJK/Ninz+ErM4bj4KfHoGohE6KcDtNCZl0dAdPC4UkaqTvntWGoWjgMpie7gobC9GQaLRgKU5fQEJgWpBFDLtU1ngslwYW5BBiGwDR3EKrmD4NpwTCY5g+Fiedy5HkazRsKUwsN0Z7nO/KhufxmOg2GaW4B9MRgmNrQIJieKIA4g9SGBsI0J0+aPRCmNjQAptk50ize1x8mbnVIogNKorM0sx9MM3rDxPX+M/ukUd+0v5O/c4Z9v6LeGg/Ih0w0vTdMpSJ+bzr52V8iSVqceQINM3T8Z7JHRW3klC63fP7mNyqYZvWFqctJx/tZ/WGaOUAbwBFcmMGBEv/mdbYtHiucWNaKJfKyI8pW/o6ey/B7rja0zX2ZbHIXXmOfwjKyv5k9CKZZBBlo32n7+8E0R1Hf5DmPafREP5g6pP4wPZEDze0PU9FoAExzs9C8ATCVjAbCNK8dmj8QphypSvyioRqgMJcAAyM9R8A0dyjkNybhnEeiP5T0q+hntfhYOr9L+V9yzOIbduRDpv+e8ncWv5c+sZ70/rH+eptz5WdnPlYtGg6SidTikyfP1fXkPa33joBpkUZVi0agDT01AlV500hUPZVGT49EVQqNQtXTGeiZUagqiE5H1TPt0SiYniaNToILCmTg99p7bjSqnknS4tGoKpjGoGoxKcM7nh2DqoJpLKqezUBLxqKqQxqHqiU6em4cqoTGouo5kvo72/GMlnsOen48qpacje+u+B1ebtoCc8yFxjCjFozIBT3AYIALLeCCE96IXVaav7T9DQx67s/o99Jf0Wf5X9Bn+S3os/xm9Fl+I/osvx59lt+QPOffban38huRmW5A7+U3oPeLN+ZBvL8w6vXiDchIy25ArzJTz2XXo9cLN6Dn8zfg5Beux5cXnJmMXhiBbz11AX6yYiJ6Lb0Bpz4/Eae+cF1WOuWFichKz0/EKTnQyc9PREd0ytKJUHTy0gnIRictnYDO07U4aWkO9Ny1OKkDOvG5a9AhLbkGJ7ZDJy25Bic9ezVOfeZanLJkAo5b/CccNHMkTDM5YzIYhz31G/zshT/htGeuBu/l907mM8nzjsqY9fcl1+KkkpJWRqmfKq/iQzt8O2HJNSgmtcf79N/Ud3n9hCVX4wTKZfE1OO6FK2CaOgKmGf1kZvFLT56LE5dejxOeuQYnLr5K5HfSs9fgpMUTcNLiaztJfEdl0snPTkCX0pLk93lccg1OfvZanPzsRPRcfCNOXXw9Tlk8Eb2evRZHPvsHmB4ZgSoO4qYOxbee+S1OWToBJzz7J5yw5Kp222O6TlT239fixCVlpueuxYllIM1uTcBJz5WL2CcUo39Jf8fVOHnJ1Tht6UQc9dy16DFtDKrmDIFp5iB86+kLcNLzN0mbOmXJRJzyXCF0HU55ri2d+tx1KD5dj1Ofy0b83vU4dWl56bTnr8dpz9/QKWKZez43EX1evBFff+pSmGaMQtX8kaiaNx4/WTkB/V64Eb2WXY/eyzryDVt9Tb6rU5TB183k/+Z+7c/ou+LP6KMj/t15ugl9V2jUb8VN6DS9dBP6vXQz+smR5+3Rzei/Ml+6Bf1X6mjVLeifRgNW3YKOaNCqWzBo5S0Y/NIt6P3KX3H44t/D9NTpMD01Bl9efC5OW3kz+qy4Gf2W34y+K27JSH1eugV50cpb0CeF/oI+K/+CvlmIv+VCfVf9BX2E/oq+q1qp36q/Inf6G/qtypNe/hv6ZaD+L/8Niga8civ6v3wrxr35b6wNbJNdoeoj2m4WxrKI1rwTBriQBBeYjMNH5CnugC1hw1ZYsFHIhs0gWbEZZmxGTZJqsRkHDm1CLTpDG2GW59djHzagBicuuwKmmRoK/4e1U7AaZmxBtfy2AbXYaFCX8oCy3ogabIINrzZvxnfnniNLajjjOqn2eXwCKzYlKMtaIcprk8iYbcSy35CqUyUc2YbI722owevYg5PmXYIqzjI+1B8DNk7CetiwFruwEfuwCdXYJPKjDA0qHQ9o1/T8ZZ9gxlZYsYVtBDXYDRvmxj7GDx79OQ5mFNbDg3Gp8ylshx2fibwqsU9RZTKOrX1+9+aFpqfV2AjSXmyDBavC23Di3N+iByMFp/bFb3ZMxxfw4tM47YjWH7MfKCax/zeoYx6sj+3CNrhw1db5OOjR4ahaOBJfX3oxnsVW7IAd68XG0/5Y2iH+blDl8qA92bX+pvnP/Du7LLXxCfuffVgPJ677aCpMCxhxPQY/fuNP+AC1WIt9Mrbh2CWT3mhjHjX26aqjFRuhqKvK0P53N8jY0Awz7HDGtLEjx5AGuGCAC1n2JnUKwFAXdaI55EIg5EYg5EUw6EGIFHIjFHIalCcPgiGn8DIUcMLvtyEQdKLXkj8ld4sYips+eAS74nYk/E7ZYikofCavDepSHjS7EIz4sN32BQ6fda4GLkwfgNnbV8ABH8INTgQCLvgDTjQHnQgGXSK/UMgFg4rPgyBtUtAJNLqwHTUYMvNy9Jg1CKYpAzB63b3ww4Umfy1CIRtCIbtBZeEB+wPFa547pH+IBF2IhNwINzuA5jq80bQeJzxwPg55kltRDsH1lmeAhBf+RnPyficiQYMMHpRQB0IOREJ2sD8O+W1AyI3Nnt0YPOt32nLEqf3wpy/mIA4/GqmXQQeaQw4EgwZ1BQ/CDRYADfjX2oX42sNaOP83F1+E9xPbgZAPTc2OpI9KP9WgA50H4jcHXAg12VEXr8ekN2fCNJ/LusfgpNevRi3saGi2IxbwgP1TWMY1XoSCOgp5ESqU9O/pzucd1T/olfbmD7vgkV0itElp/ZIA49wBI3IhLbunN+6UfUtdUQdcUbtBReOBFa6IDdZgLewRK05bejVMM0bDNHcYrv3oIRAJbAha4Y7YDJ4Xjeed019nyAxX3I51jg04bDYjF0bCNH0AHt25DLu54WGzDe4o5WVtpZjuXH/dOG/lUWd4EbHA32zDOuxFv1mXocfMgTBNGYgR6ybDASeswRo4o1Y4Yq3Ev5WMSnJdJ3On/rt5XmfZVDnT61DodT6nr7N6T67X2+Ndehn13/FErXBHrXCGzYhE3FjR/BmOnfJLHLxwCEwPD8XV1mfQCC9szbWGvasQe3eg9Pe2mB2OkAX1MSc+9u3QtqJcMFySO/7hizmyYa+tuQaeiA1O9scG5c0D+jGFEvnt4PNNtQigAX9d/yS+8vBIiVz45pJL8Bo+R2PUBXuY9rJzfbzx/P7DPzvbddQOZ9ACC9z41+rHYVowBqaFY/GzN67BFzCjNlgLT9QBR8wOp6E7nWg/2jIIT4JbUDqzTFa3zuIfiGCDAS6kgQt6JWCIi0HF4IEd7rgNnqRT4446cNrSq2CafjpM84ZhwsePYBPsaAo54I22hhYZvC8G7/N7B/Vf+E6DGbHCk3Bgo2ujDlwYiKm7lmMPd/oN2uGV++3wxEl8Vp0bR40nxeODO24X/gYCDgmJ7Tf7MvRgIrspAzFy/f3cGR2OkDlps7R7KQ8+p8oif/NaMa/rZK7K2Ob9ybK3ua7Kkjy2lFN/f7b3d+I6v9NZXqTUNa0e3qhd7B0HGImYF6sC63Hcg7/GwQuHwvTQUFxjXQw/fHAELXDHtURQhr3Lz1YZ/CqMX464QwbLTXEPPqvbjf6zL4aJ4MLjg/DHbU+gDo2wB80Sxalm5mTShRMvBpWcB+S5K+6At9mKEPz424aF+LKAC6NAcOENbIM/7hHgp6W/Vv22cTwgfXbqgTPukBB9d9gKZo+7ffU0mBYwcmEsTnjzWuyADZaQ1q5pAwz72TketNjGmAEu6MfN6twAF9oBFxSTjGPnEDg68a64DXS4nSELvFEnej5/lSQpMs0fjokfPYrNcMAfcgq44DJk0qVIqAIXvBErvAknNjr14MIATN25HHvhRX0SXDDaR+faR678E7lEHQg2OwVc6DuH4EJ/WRYxav0DcMMDZ8gqkVe5vtO4rzSy80UdArx5wnYg6sUrgQ04/sELcAizoj88FNdaF6MZdTLLxDw/hhwMHpRLB6R/DdvQFPdhQ90eDJz9O213phZwoQn2QBJcMPriLmmbBBd8fhvC8OPWDYuS4MJIARfexDY0xz1whTlhY7QbgweaDhBckLYdssIJD/7NyIUnudMdwYUJ2AUHrCEz6mIOKHDB4F3h7ccbSwVbDV6m8tIAFwzjXPIOioMiGj1GJWjggj0FXJjw0aPYJOCCXQAIA1xIbaTlNloKXGBYrDfhwkbnZhw2+2zZL5vbHz6++0XshUfABZbNkFd55NUCLgR04AK3C31oAEatvw9uuKR9MeyRclHtjvLheUd6pL8/V5nyPkUdvV/pSqH351uHLr+f0RERKxJRL14OrMfxU36Fg7kV20NDMdG6GEHUwRWwdCgXxVfFNx7VtfaO+vu7nBdp+lhIHdqrq/pNX2d1rb1jvvfr20gl8JR1y7cOErkQtqMx7sVndbvQf85F2lbRUwfgsm1z0IgGOJprURdzprw7V5m1x2/jt9zbrq/ZjDAakuDCCFQtHI5vLrkYb+ILA1zI0QYeSPqmBxckcuEdA1wopfxTwAUjeqGNT2KAC4aRaqMUxW6QyiFLARe4LGLGKDBy4VoDXCi5DPKRKeXFUG1PxJ4ZXNhDcMGF+qA2c2I4nbk5jPnIINO9IhdGLrQBF/qnggvJjk7uTw4+eJ7pnfprvCffgUo578+3DqW+vyO957IJVwq48GscYoALLTqm171s55WmX/rydLV+kWeFtFkOQtxhGxrjHqxNARf647Jts9GIetgDtbIsQl/fjvQ9mwyN6x3b3nQekde+ZgvCaEwDFy4ywIUc+rJ0fh4IfxvgQv7t7EDQi66qowEuGIaqw0FHZ5VTOUAp4IJuWYQBLlSWUaS8UsGFLSmRC9P2LMNeOFEftIruGE5neeQncskILgzAyJbIBXOb9kz58NmO2rFqp7w/V5mqe8txf751KPX9HdXZABdSda7S9auj9sHf9XUotX7l8n6WqZA2yHXZjXF3Ely4UItceLwfLts2E43wwRaokWU9+nd3pO+58M+4J7VNZOMHee1rtiKMpjRwwYhcyMazA/26AS7k1rYOdD0pV/0NcCEHp7tcwthfv6McMgNc6B7Gj/JqH1xgzgW3AS6U2XaIXJLgwjpUow9zLiSXRTCho7YswgwvEx3GtASqrTZFXUvXwWzXeV+2Nb3p71bvLMf1TGXKVodCr6fXQ70n/Xp7PGIbSo9c+FU7kQt8tyLFT/V+fl9/rdDrfH/6e1Tdyn1d1SH9u+p6seqc73sqiUfZZKN4lC/vNP0SkCBsRVPcnVwWcSGqnhwCk4ALs9CIOtgC1fC12BH9d/iObDytJN4VyqNsdSvl9bZyFhk1WxAiuLCRu0UMR9XCEcayiDb2S6+bB/Z5vuACdUxRrkBm2/7jwOa5wY/s8jfABcNYZXA4sytMIY0pO7hwurYs4mMj50IhfC3VM9nAhYNmjoBpRj9M22OAC6XifXvvbQsuXI4eswdIzoVUcEEbRKQOApQDy6PeUc52nTZADST09xd6Xb1Lb1sylVO9P5/79XXQvz+X6/q6qfvTv93Rdf6uf49Whrbgwq+1hI4Zcy4oXvCor4O6nv7+Yl1XdUt/fy7X9c/o78/lupIz79XfX+h18iPTe4pxne/N9J5cruvLpL+/M9c7wyObFpWUBi6Y8gIXMvGC1zJd19dZr9e5XO8KHvGb+u92xOtMdc7Gi2zX2/IiBVzYsABffmQ4qhYZ4EKqbdTrk3FugAuGDlRS+zDAhRRHzlDOUihnu+CCbEVpgAul4Huh7zTAhcq0A8UBF9KdYeXYKsdXX3d1jcdKu64fAOjr0FXX03mUKXKhM+BC+vs7I5uu4lG27xazbsXS02xl7arrxeORDFw7DS60V56u4lG277ZX1mLpS2few3KzjCStDga4oOencZ7a/2bmhwEuZOZLLrwz7ik+7wxwIcVpLj6DDaVtXafadlnE6TAZ4ELawK3rdTAzuHAOjMiFrpVNruCCYXO6Vk6K//lFLrSWWYWqygDD6J8qzj4q+XbXox5cWFe3CwNmJ3eLkGURs1GPetgkoSPDpvUD9lYd7a517y7lTgEXNhqRC91Fbl1ZznzBBfoTXVle49v7N/8NcMFoYCU3MDRi7CwNcKF7GJNs4EKPmcONZRFdaC/agAtPXIYecwbA9LA+oSO3NnSWvE0bjkHHbTkTuHDwwmEwPTys3a0oaSsVGXzumM8Gj/LjkQxck5ELmcGFhiS4oG1FqWbTDT7nx+fO8EtkpM+5YCyLMPq0DnwPA1woX/vsTNs+UJ41wIUOGuyBogilrKcBLnQvo5cVXJg1AqaZRs6FUraV9t5tgAvdrB3pEzoG1+P4Kb/GwQuHG+CC0ed26UApf3ChNVy/Pftk/FY8+2SAC8Xj5YGilwa4YOhMJem6AS4Yjk7JHZ32wYXhmGAkdCy5DPIxOtnAhYMEXOhvJHTsIpvRHrgwqmUrSiNyIR9dL+W9KZELeYALpSyT8W7DAW0DLsxpXRbxx22z4UN65ILBs3K3GwNcMHQuX50zwAVDZ/LVmVLeb4ALXTRQKKVQK+3dWcGFmdpuEQa4UFlGMRu40MMAF7oUBDLAhcpqJx3ZWQNc6F7y6kie+8vvBrhQ+XqZGVwYbmxFafjrWX0QA1yo/Ha9v/QhudTjgAMXvEnj5C3BumT1TnXMRQClvodlUVTqb2V7fxtwIWZHz+evgskAF7J2FNl4WY7rGcGFOedAAxcGGJELXeTgtAUXLk/mXBiIURvugxsuOENG5EI52kgu3zDABcPZy0VPyn1PdnChP4zIhcrQ2czgwgh887mL8Sa+QHPcA1c4fReMyih7ufXZ+J4mdwNcMPS/ktrCAQUueOPJgbY65gEwqAG6HONtE6al/85vFSJo9Rzfl/58m/Ln8I3W8jqh3p3+Xv6t7lPHTPcUeq19cGGEsSxCN1htkXEG+RfK/3yfqyxwQW3TZXQc7YML95cVXBA7kQQu89WvA+X+QsEFDiwUHSi8MupZPvtmgAvl43Whep0VXFhigAvZeUqf2dXGb85+f+XrQT5lN8CF/Uue+ci+Eu89YMAF5Qw7w1ZY/TVwR+wyoM5FKOpZR9gKPi8DwLSBvTfmknda/bXwRB3tDuTTv6nezyzvtoAZ7qg94/P8LsttC5rFgPK59Hdl+pvPuSI22IPmtDrzeQIuLjhCVnkvz7X3ar9pmedz+06mb/NaRnDhhWTkwoJKAhdYT7vwnzLIVp+crhPAoo6k6EkrT5XM02XYoltRO9wRm6YLlFESEMvp2zqwopD7uxpcEL5Rb6J2uKJWuGX/bw0YLKQ+qbzOLAOJaIq2dk4av13Sltl2XKIPlINqH7y3c+0i37q0ARfm6iMXygcuKH6y/JSRaitKbvnWS+7XtRXymjx3Ux6666nv1eSo8YRtRWuv5WwnqeVp1R11PR1c+PFDuSV0VPZSBhidbMuqLJV0FBkl7SLr6o3n119KXZJ6ITYiaSd5XdPBzO1S9DZpR0W3ytx+K0UG3QFcoKyUbVFtm7agUzamRT+SbTXD+1psG324ZL/bFXLbH8EF8pO8pFz1NqAj/mr3qn5Xs/uZ/FJNdq683t3Rt7vT78UGF5S81HhG3/a0tqEBOeyv030ATRYqalrfN6bLT/tbf782JtHGJTwXfyCqRemo7/KYr2yUzvFZrd/Qyq29k9/L7tPJ96i3yYlY/bflveqdwgvaDk0P9fepc+1+xbtUH7/cPqUqUymOBwS4QMXwxRkybJUjAATQKArG66I4WZw4UTwqctSJZjTBl3C3vEf9xnd4oi54Ex7EEUMDvHkBDOo93pgbUYTRiHppOEpp5fekU+SLeRBDGHUJd4ff4PMsGxsSyxRFsKWuvrgb/J435pGyB9GMGKKC/PKaL+6Bl6TuSYIOLWVKOoe5KKVyllu2ouSyiAoCFxT/HSEL7MEaOMNm8NzazHNrC89yqav+HvKKQJCluUbeZfWb0ULNtSIXfls9w/t5BNKmmAAAIABJREFUbg/USjlcETMcYTNs6l7qah58V+/N9ygDNn6HAFzChY3OLThszjkodUJHpecM9+Q+63bWP2qGNVgDR8gGL3W2gPrzvY6gJs8W/lMWzbUCNPJ7PtqIJLig9MEeIOBmgSNqgz1ihTVghiusOZ1aJ1DeWRKRS9SBYMCJdahGny4EFwhU2gJa+2AbobzIR8onXxmR3+6YG7aQFRbKPWwVntvCFvmbzgXvoR4r2biiTlgCFliDZjgjVmmvliDbTTqAqndsyntOcMEdsSIR9eKV4AbkCi6wnspm5tt2u8P9oh+0jSELHBELPAlNvrnojZK/I2KDJVADW5h2wio6Q91hH5/pPcop5PO0BU4CEkldVbrVHXhXjDJmBRemcVnErC5N6EjZKRnZKSdO6LAvlv7A1mIHCuGDkrMtVANnNCl/HXDP3+kv0Y6x/+c3eE09V8g3C31mfwMXVJu0h8xwxnS8zdqf6/yimBN22nq9/6TO2Ycn/SvpgyKF9UGFyqmSnismuKB0nv2pgEFp7UAmJIM26X/tEQts4ZqkD9Bqfylz8eWU/8ujkpvuaGu2gL6WjKGS+sD309eyNNMfsMAeqYU1QD/QkhyT0BfOrT8Xm5K09bQn9PvoW/C99M/pX7siLDffxzGR8jUc0kd4kjaBdkjZJ6XPvNcdccAW4PuscESssATNsAdpq9r6h/LuKPXZKrxjORTvCHjLeEw3Jqgk/cq3LAcEuMAOwxaoRjPqsXXvJlx+9R/wyaYP4Ue9OBpK+TIxT1MeDs592LBnA6rratCABlFyDvA5SHeHnODgfNPu9bjkqouwrXYrmtEoDYvf1pP6Ft+riI2XoIW9yYE5S+Ziq/lz1MMnDpC6xxm2SRl2OnZjwdInYfVb4E24kzOqDm1wxM4xOUgSZyruhDNsQTPqsHbbx3jxjaVwBWyord+D6obdqG7cjb31O6Wcy95aiofnPghbsBZ76nZiX8Mu+Z33VDfsEePuY8OLKFBCa4DumB2umC2FPDLT3DrzrxzlVHDhai3nQhdHLpC/vgQdzlrUwwUgjgSiAGJy7ot6xGj4Em0NRTZ9EZklnSSCWNq7tPfx/RpF0QifIKF1MTdIvqgLdn8NImiWZ2KIyL1hRGAPWsWI1cXt8MXs8AqSSzS3+NuEdRW4wHZC40+kXPEsLrKIi+7bA2ZQDuRvJt63vdbaxjQ5kPeJNtRM6C1qRz3baswBHwc+ATOaRHZxsAwJRBBHSCJb2Il4Ei7peDhAUfrd9vu5dX65PidySQEXrkCPOQNhepg5F8oTuUCwiQP6RtQRowV1NC4UBm0BwTC2J9q5XOolCH/MBbO/Fg3Cb741IUAnz8IIwRGwJR0Pzkxz1oszDg6EEJAyENAl8V8T6uEMWESWqh2yHEpGdNr1xOu5lLOQe9qCCxfktBWl+lYpy6a+Uc6jkgd1gwMBAt4N8MClBnod6Ayfk7ZPEDDhQETkH0nqYBRxhME+yhmyJeXvEMCQ/Q7ryec5EKmHB40JL1zx5GxYB98tJ4/K8a1KBhfYB9DON8Ir1kX1xbS/9DM0MEprz60znB3ZGtoj9t922Jqrpd+th1fsgD4ySnwwDqbCdgTogYltSAU0vFEnFJVSVvsLuCBtPtlfWwLVnJ4T2cpseBLYycRH9RyP1AnND6CFZ/+t/9fqT8UQRIAWRUWd5OwnlK4PyFS3Ul3LF1ygjrXtYzR+e6J2sdH0jZo4WRrT2oE22eiWwTQnQfmPvTUJnJyM2OEKWVHPicmIE340JGVGOWX7R9sdER+PvKGPwShxR9Qp3rj2lPZ8U6Ie9oAdvjh9Z09aZLDyh/VHLdqAOkQQgfqk+ZZauemLxxCCK2wRksjUFoDDCS+cMrnlinCMF4Avwm+6JWqV7yR44gzbk/4KdVPTRz/qZCwl/qG8z4k6Tg5G7XAELAghKNVKyP1ABBE4Aozq4VjAK/1Yq56opcH6evG8dYzVem/l6PJ+Dy7QoSDaZfPXoCHmw8gzhuMnJ/wYX+zegrq4W37j7+amaolOEKOmdzaiRKVqEUEIF0/8HfqO6AdfoE5rRBGbvMPZbJfGNenBu/CN734d2/duha2pFru921HTuAc1DXraDbN/X2vUQdQBi59Gtw4bt2/GQd85BK+teQNNaEBN414JD2Ydav375Bv3TX0QR//saJi9nF23obZpn9TBFbRIo2bHR4CBDhVBC2tzNaJoxtU3X4lR54zQtW7NSNMh47/bJv8dw8cOSSq8NqjV3SyOvCfE2V0vvIzSSPIoE7jAMHZeVwqvHPtKAxeUrBmt4Is6sce1A/+69x8YMLIfRo0fhodnPQibl0tQtEGvqrOqV6Yj30m+8zceX3j9OTyxeBYWLJ2LeUuewMIX5sv5ohcXYLdzuxhhT8Qp4ILdbxaH+d2P38aVN/wRPQeegnN/czYWr1oCX8wLZ7NNQIW6GAEGGzxxvdEpnlGhvGgUyxW5QL7SULMdElxwB214dM5DGDZuMPoO641b7/wbtv9/9q4DPKpq68YuRQi9hBJ67713aYLIowmIoIBUH6CgqCjYEKX3pkgRBBQBQXrvNZSE9DLJ9JKZySSTnvV/a9+5SYDAr0hQfI7fdSbDzJ17T9lnn7XXXjs6QDYjBL9+L9BDJ4N9wHm++9gOrNm0Cuu2fotvt6zBdz+uxXfbvsW67d/hSugFcDGwJHE+m4XNwE3q1RA/TJk5GfVa1kbbrq0wf/UcGJwaWJKNYORUXTj4LM5gLm5UZTzJmMrOXHi04AIXXkYTnbAjTBuM92ZORcPWDdCqSwvMW/U1omMjJYXFlBIjAE1O80N9j33OuUJGmCXFBAJotzRB+Gb1PLTr0Q41GtXA0NFDcfTsUbjS4mF0q5REpkxoEZtsxbELRzFu+gQ0btcYTdo1wYyvZuBW5C3EpdphSdQpdtDjYKo2iP2U/bjbuXqI8+gu5sIfAxfUtnpcn9U+VgAkpa85fiJjQ2Vp+fXoL5j//TfCIjR56KT3u1fFtirRZL0zGtt+24zBYweidrOasrYt+nYeos1RcKRZpf/taQQLFUYSncBIe5j87onLR/D+7KkSbGDqGR3p+/3uP+3fxFYl6+BKt+CKPRRN1VKUfzFzgePFSOAyw4agqAB89OX7aN6hCdp0aQH2rTZOA7MnOkibK+NLtSM52F51/HEdYAQ20q6Mu5/3b8PijQskACRAsWediHKEScDJ4jLik3kfwj/KTzbDAnh7zs8AgHrk5riQPkrgJsSFade+R54FbfDEhraPUbWILMCH67ra9tv2/IAVPy5BIlyy3rNvcmpHWRs86x3n7s8Ht2PND6vwHdfvH9fIGs51nK/XbF6F1T+swLptq3E58JyAF5L2nN2Pz2F85PS7j/N7DwIucJwpa2BWf3G/E+2MEFu56ed12LxnvYxDzgOCC4y6E1gIiPbHu5+8g+Ydm6F9z3bis5lcevGljQla2cP4R90QP2vtj/R/12It+8xzfLdlLVZtXIG1m1dh884N0Dk0wsjmGkHWgjnZhiXfL0XnlzvL3uTjLz9EmCYY9nQH9JkAQ9Z1K4G22zfgtjS9+CIcQxxzZpcBm3aux8Dh/dCkTQP0HdIbW3Zvgj3FAnNSVooCxwHHUIQ9GG6O1QQTPl34KbQOLeywC7jA9mD6pi3Jig0716Pvay+jRaemGPXfEbgYcApx6bHQJWlh8QRbbClGmBN1cKU5cPTiEYx6eyRadGqB/wzthz3H98KR4oAp0QRbilUABnUOKCDC7feVda85z5+/wzj+R4MLslh5gANuokeMfh3FShZFqCZIIpGk9dKxSJKUgBRB4yxEprMZJb4WqiUsCNAHoWrt6ujWuxsSM7j9j4WJTmyyRRCrZq0bYc43X8mkJB6moHny5x3/y/BskBQHWxsfKf++ZvO3qFqvGhxuF6wZFkHvOMAZSSUAwUfTji3xzoyp8lqXqAUReEaAiPRzY8RBJQ5VmhH6pGjYYYLWFIGylUrhp50/Yc/BvZj80WR8Nu9TzJzzCWbM/ghfL/gKXXt3QbV6VTFn/pf4+IsPMfOrGfh0zieYPe8zTP/sfew7sRdJiIc50QhbahY9PSdwgRGG+4ILqUyL+OuYC5y06sG+JQPl9PUT8KlSBjXr18I709/FhEkTUah4QbTp0ApR+jDEploygZ77TVyel+dkVCUmToMyFcogf4H8KF2mFAoXLYQSpYujSPHCqFClPE5dOC6ONSlUpP2RSfPZgi/wZL6n0bt/b0z9aBoGvTYIXk974fUxwxCfEQejOxq2FG6cSP97ROCCmWkRL+VatYisNjOCDl7jdg2knd6eMhHvvv8uqlSvJO11LeSKjHU6oJmO4z2cBp5TQZV1cKfFoX7LOnj62adQtlxpFC7qjaIli6FEmZLIUzAPln63SFB3skYU5ogbW/dsxgvFCqJFx5aY9v5UjBkzCgUL50Grds0QbYmANdkEPYEQAgvpyob1fuPiYfybgD7ZmAuN1j5CcCFdAVk5Vy75n0OJckVRu25NvP/BVLw9eQIKFMuP9l3aQ2ONhA1GSS1SaIY5L36Z84+pFGkWzFu5EN6liqBWs3oYM3EM3v/gfXTp9iK8vLzw5Zyv4EqPhzlZiaYw0vDl4tl4ptDz6Na3JyZPewcTJ72NSjUqo7hPSRw5eRwJaXZxFvg7bPu/C7jwzIY28JrfGuN0m5EIO8xuhSL8MMbH3+kc0r+eDaBCNSWQT/AuVtau9dvW4VnvpzBs7BCZe3RoVVD2XvfBtdCSqocrzY6eg7rCu2x+DBzeH5OnTsKbo9/AC0XzoWmrZgiPDkFCeiwstO1MC6RTnEJWGnDa7wTyeudB514dkAE3TEn8XTpuOY/Tf+L7d4MLr8JrXSt4Cbiw6pGnRahjhakPiXDizMWj8PEtgxr1a+Kd9yZj7MQxKFSyEFp0bgG9i0EVHQhGCYstc4xl9Z9qW5Q0OgvI+iQgwMd3W76F15NeGDdtNBjpjomLlHWC4AMfEbpQtOvRGsV8iuNG6HXxr8jUUkFIFVjgc26OjccdXFDXZ27A7J62/3bTang944UpH/1XUnRjXJH3nPP8Pu0BgQmtKwqtOrVCwcLe8ClXBsVKFc88ipYsguKliqJE6WLwesILu/btQBKckkrDcZCbffR3O/cfBRdMKtDO/Y4HpGPaChm1jO4vWLEAXs964avFX0pwMcbNtAYyoRPw84GfUahcEXR4sQOmfTAN498ej0LFvNH5pc4wOHUSXOW+avuuH1GibAn4+JZF6fJlxOcqWaYkfMqUQslSJVDetxzy5cuDsuV9YLYZYUkyClNRF6dFq54dULx8KYx/ewKmvTcNtevXQpUalXEl8Ari0uNgSiaL1ZpN++ruDTjBBaYzcK+27/Re1KhXHdXrV8Ubb72BadOnYtiI15C/cB68NLgXTAmKbp70a6pBWN9shyhTONp0bgufKmVhi7fDlGZWUmRT9DAlGtBnUB+UquiDt8a/hWnvv4suXTvghULP4Ycdm+CCS0ntTDHA5I4RgIP7K++S3hg0dCCmvj8Vg18bgqfzP4OpH05FQoYbFjeDw0xLJ0OCdi27n3/nPWbZvb/bePzHggs0LDROSpQkDTM+m4F8RfLizNVTSEYCaNiY85kMN3Ye/gVL1iwRgowhQaukGnjozrJQeWjS8XDhZuR15C38PF4dOhCuVLsYvoQMOy75nUHe/M+j74A+mPnZTEx5dzI+/exTzPh4Bqa9Pw3vffAeps+YjsnTJuHrJV/B5NLCnmaUhVLn1CIDGejZpycmTpkgi5zeHgNzggFmtyJWRnrSpZsXUMa3LPYe3Aery4ZwfTh0sTHQxUYjyhCBCH04YlNIqeGA00ObGCGR8HU/rkGJMkVhtOgxdda7qNa4Glp1bYGmHRqjcbtGaNOtOSrU9IF3sYJo+2IrNGvXBC06NJWjfffWaNiqLlZuXCoLgkotUg33A4ELorkwGl4rO8LrL0qLkJyuFG46zNJmFepWwIjxI0TPgk4HaVpWpwlFSnvj7XfYJ6kC8HACc+G730Tmgsi0mJuRfqjXuDYuXj0Ps9WEaF00DGY99CYdDBa9UKzYjmSy8PdWrF+GZ7yfxZFTR5CMRJAyRVr4ifMnpG++XPCFjI3ouHAPPTx3DItsYnmPquaCgAu5V4qSmwbmQfNue/XrgdoNa0Jn1gpgRzpsQkocOnTrgPadWsOd4oAtWaHeqWMwp75gHxFV5r8lpcejXrNaWLpqMZKS4xGpCYPexH7QQ2vgPNOLo8qxnYx4nLp4DIVLeOPrhV8hVVJTqEaSAL0lClXrVUS/oa8IOKmNi/TQbZXNK5k5OR05Xd+DvJcjuLAm99Mi2M6mRI5XC+xuK8pXL4M3Jw4Xe5AMF0jqi9JGwKesD8ZPHicUVm4UaH/v1Ud8n/OEgOWpa8dRqaEv1m9dB1dynIwD0qETEY+fdm+H13Ne+PXAXrHPGkeEbEB2HP4Jp6+e8tAQCeMmSt+9NKAnKtepgoQMB2wi8qiMgccJXODGQj0eZJz8Xb5D0EjyaMkkSLYKOyUkJgz9RwxA215t0bh1Awwf+5o4stRV+f/ABd6XHRaY3Dp8/8taBMcECKWVlGnqEMWYolC0dFGMHPem2Enm1pJey3FkdOrxxrjX0aZrC9SqXwM9+3SXNCdDUrTQ7f8ubfYoriNHcOF7FVx49JoLqq0WUN5lRN36tTFkxKuy9jHaSKpxtDES5aqUweujCEZBdIyEwuwJFGRvN4Upw/RNG8zJ1LFKQ3B0MAaOGoQWXVuicaumGPvuW2K3mP5pT7fCne7Csu+WCAjdo3931KhXE9cCyVxwwJAYnc3Bz501N/v18/XjDC7QtvNgegmDbCGaQAwa3g/turVCo5YN8M70yTJvGTC7J3PhDkaKKdYIg9kAo8UIg8UAA5/NBkRGR8CdkoDPv5mF7n1fFAo+A3487//np93Z5o/7338UXBB/gnsFtjXbK9kofs6N0KvoNbA7uv+nGxq1aojZC7+U1LMoe7iwES4HXoZ3mYJYvmGpzMVUJCk+gD4MlWtVwKhxo8D3uJeyJhqht+hhspmUw2qCyWqE0WSAyWwUX7hVx+ZY+f0yOVe4JUT6cMDr/VC7RT2YnRYZQ/S/ucb36PMi2nRog4QMBhsUgXvO97urhChsNGEd0c93G9DpP+2FBetMYEqnkkZJP+Nm2HUUKF0AUz/xBG2ZoplhF429RWvmo2nbJug9oDcatW4Eo01JyYx2RYl9GvzGq2japhFijBpJp2bqLB9zl36J/MXz4kbYdUkhZdCMftLiVQtQvGwxnDh7XD6npD5n4NiFI3i+0HNYv32DnFfrUlI4Hucx+Y8DF2hQVKOijWeHp+HL+Z8jT8G8OHzhEFKQKJQfa4YJMQkaYS38sHuToNnzl82TgU0BPjHumZtIJWcv0hEmRnH7b1swctwbsMQbBVxgZvCYCSNRuFghtO7YCrXq1kKjpg3x9DNPo5RPKTRt0QR16teW51p1a6J3v14Ijr6JJDhw9uYp1G5WG9Xr1kC+gnlRolxx1GhYFdUbVIFv9bIYOvpVWOIM4mq/+8EUieSV9CkB7yLe8C5SUI6SpUtIdLxm/ZoICrslFG9dQiT0yQrboWWXpnj73fGySMcmWj05UDK2Pc458Nncj9G1F40zl3JqDmR/MMbjko2aunCog/5hgAvjzi3EdRgRn2QQJom0fS5Hkuj46hKUaMXHX32CWvVrIjE9AdZkIyJigxBsCZAG2Lpzs6DiwVEBwixgzi7bQL3/nJ4ZBSGAdfb6SdRvUgdh0cGIy3AK5YlpJXKkMWdMScsRp9ptQvW61bHsW8XIhliDBHTgMx9zl36DCjUqwJyoCJNSS0Md5zldw595L2dw4SU8uaotvFY0wdLwXxABCxxcxFVH6AH7i/fANuUm89djO1GsdFFcuXFJFqcwSxDCLUEynqOMkXi2wFP47cBOWRhkY3+ffuB5yVyg9og7Iw5V6lbElu0/iD3QxkXBmW6DPdUiz5I7xxSieI2ASK8M7o2Bw/pLuzNqwuhWhPRDKs5cOY4iJQrj9PnjSESc5Aer/cAFmqKQdx5/pi+yf/ee4MKCXNRcYMoKkXoX2wb47OuZqFmvhjJXkowItwUi0OAvNuWXPTvxQrH8iIgOE9okxZLUtsl+H3zN9znuGSUJNQci0hYqABvfI9gW6QxBhIuOBvBi7y549bXBYpdEfClRKxo3bsTDlKCF3sX+CRQp3AvXz6F46WI4cnofUuGGPjFKhJr+BRcezaZI7WdFQNECSwrzUs0SkZn62TSUqVEW/Yb3RxKSMGLM6/jPkD7Sx9rEqN8BLih2l/aX0BPHDscD0wdVO/ntxrUoVa4kovVRolMTjzjMWTEbler6ou/Q3jBYdHhj9HC0bNtCfpdpVmTaqdf9v/B8f3Dhr2EuKDTsdCxcMR++VcpJ/zL9MsIRhvBYxQ788NMGFCrijeDIADgzYjPFO++0MdxsWFKVcReX4cLkmVNQqUElDB07DC64MXTkMAx7a7A4+wS295/5DXXb1kbDNg1w8uIJXPS/gOJlSiAg5KaSOuHmmq9GDx/NPHqcwQXacG7qmOr73udTUa1BZYyb9JYAgANe64/R40eJl8kA373ABVkjMhmmTIXyaH2RNctD6Pmk3jsQqglE6YolcfTUQQGmuVZxzfpfmMvZ7/FBwAV+n/1FlldcqhXj3huJao0qYtrHU6SPXuz1ImZ88ZHYSoILfLz4cmeMGD9ceS82Anw/xEwfIBknzx5FUZ9iCNIEyuac4K7sGTxaJUyD5EEGElUPlq9bjLpNa8PhjoUpXi/z7diZwyhZtgSuh1wXgfvI2DBoYkPhyrAi0hiCgsULYPuureLLcQzlDC545mmqAkjTjws03BQAgDp5/FsTF4lQm+JfL1q5SPYADDRxTO05/SsadqyPtj1a4UrARRw8cQjlapSFLc7qGdtOHLl8GD6VSiM4kr5HPMKtwaJnp7UrKSU9+3bDyAkjpZ24TlFXrVLtCvhu07fyXrglFNFxUQgzK9cwe8EXqNOkLhJS4yVV1Jj8eLMa/1HgAhcZHtzcaRzhMvi+WvAVvJ55Ar+e/FUiGGHWINFQYGSN4AKZDRwY325bJRv3eUu+kahxpDNcGAzqRpK0TW4+mDtmTqGAR4osbmQUBEbcQLGSRfDDTxtl0Ci0onRUqVkZ85fNlfecGVZkIFmMH6OhpF8nkwJ49QSeK/wsFi5dhIMn9uOH7Rvx/ebvcPTUYfQf+B/UbFBdvh+mD4ZvjfL4fO4sHDy6Hz/v2o6de36R5/2H92HBkgUoU7EsAkNvSS5plCMEvLbj546iTCUfnL58XFBH3rPWGYVg402EmG/CX3sFjhQT3vl4Apq3bQ6zIxqhMdcRqvdHuPEmIsz+sJA6KmqqnnSCTNCFEVsDTGm6PybomJkWQeZCG4w/txA3YETcIwIXxNix/GYikfUMNGjaANM/eV/amZEMCrEZ6OwmEynXwqdcSXy/jQYhHdFxEfcFF3huOqxEWX87sRtNWjZEtCkSpgSWQFV0MpizZkykQ2sSBg3RzkPH96Okb2mYHGSqmBCdQGebVROoyG+A1h6DUhVK4scdW2QcMZVGHZvZF5iH8TpncKGnAi6sfNjgghmRcYox7jesD/4z+BWlH2yhsJKhkKhFjDMCiRnxaNe1HcZOoGOSIRoq/59jwkgYxduMLi1qNKqC/Qd/ExugsYfJYspzmxK1srjSHnAjEhjmjyI+3jhx4ZjMH+qlcKNkZQWL+CiJdtZoUBWfff2JXCeBB9W5vRNUUP9+GH0iToA4AlmaC5IWQeZCLoILMleoteAB4mo1qYEPP/9QsUnWIHHgtC6mieih0UWhTEUf/LBtk8wVluW93xiVdks1egTWrMIMkjxGCsSm6xEVHy6AwqdzZ6Jpy6ZwuG0yJ63Mu6bqs6QIaRFLQUAuxCk6BETcRIUavtixd6vYWm5a1f5hG9Jpz35wrD+s/rnzPDkJOv7etAgVDLnznI/T39wAWGUjYENcmhNLNyzGPgF9uAIm4ZVBL+PVNwbKWPp94ILSV8oaz8o+MZIXy/6MjqdgswsHju0HGXjB4UGKbgxM2LJ/E7bt3Sp2gz/2yoA+6Phie/ndf8EFai68Cq9M5sKjBRdoWwkCM985Id2JZm2b4v0Pp8kmINqZtcbR94rLiEXl6hUxb+HXyphxKXP7ThujggvWNBuc6Q4s37QMB89z4wnhN/Xs+xJGTuDmKFk2t4fP78OydYvgTKOIJLDjwHb4VPBBUFiACAQaBFzgev3oQCiOaWum5sK6x0pzgZtV2ikC+Gs2r8Cp80qUllHi7i93FXYbfan/D1zgOWT9IXOONp+VmzwH/w5zKOnNg0cPRJ//9JbAgJSZvw9j7nGyn3/0Wv8MuMD0sdgkI1ZuWIyrty7IPEhMi0frzi0x6yv6OqmwJBmgsUagdIUS2Lt/twQcNQ5lc09fK9qppKO1aN0cs775VM7BVAqmMZGlqBx6CepRtNXs1KFyvQpY/+O3slaHmpRN9phJo9Cxh6IPp3WFI5Yi5qlGRDvpDyTjxZe6YOREstMyEJPA1BoliJRTe6k+BlOomD6uT1AqTshnqXeXQJ0HK45fPI6q9arAL/CSiCsevHQQTN2jbgIfm3ZuQoU6voh12aBLUoKSw8cPQ99X6a+mI9wWLExZpqRH28OQjkSs3bgK1RpUgT2JAd00bN61AdVqVYMxTkn9MCWR2UmgIxqOjFgEhPijpG9JnPY7LYKPWndErvkmObXVw37vHwMucBDxIBLNZ0Y2Pv1qJor5FMGhMwdkgGidMXDDLR3HfCAOANKdmevOx+EzB1GwWEGsWrdSBkxUbJgsPoxsMn2CxpE0L1aL0MXroHPFyHtvTRiF+k3qwp0SD9J69C4NdMYYlK9YBjNnz5CNZrg5UPKQKPRoTIiB1smUhXhc8DsN4KAwAAAgAElEQVSDEhWoAxEoA5Aqq450ZZH7aNaHqFG3mlzbp3NmoXKdisKciM9wSOSO6qWKYmsGTl85jfJVyiM4PFDuJ8RyS77H3P2O3TvKb4Vag+R7ny/8DGWqlkbLzs1Rv1UdNO3QEBVrlUOJskXRqE0D1G9ZG83aN0CdJjXQqGU96OM00q50eGWy3uGQE2DIftypYqo6yozsSjmX28CFtnjUzAUuWMZkg2wmAyJvoEJ1X+w/tldAJorFMU+Lz6akGCRmONG9dzeMnTJG2jM6PuI2PYk7JyTbh5F4sj9+2LkRDZo3VNJWWIHDEYKY+ChxpgTBpSGSjXUaduz/CRWqVoDeopUKJBS14blJ7af6LtHMWs1q4esl3yjXQZAjG8hz53X8mb/ZX9QSuC0tYo2HufAQwQX2A8cNVaSpKlyncS18OEsBeQSR5pxOM4oTQgbSh19OR8361ZGSkSxtyLl+r/tk21CbgdGTW5rrKFu9NI6cOyjUvzDLLWjjwmFOYmqSApgxWk769AW/8yhSrqAsMlS2VpkqpNibJC83BX36v4xXhw2Q+aqLV0Cge13Hw3xf+iW75sKaEXjyEYALdBZpl0J1wShXuSx27P1J2oqlobiBpoI7RVGZCtStV1e89oZCXSYt/X5jlP8mYyBV2WBQ/0acSQ+rgRs/zqMPPp+Olu1bwJkcK/nT1F5QSoEyDYWOh0H6kwJ+gZH+KFelLI6dPyQ2W590e2lKaUOOb8/xMPvnznPlBC48Tc2FBW1+l+YCr/HOcz5efyuMP2EGpRmlLwngBZtvCYOQUcxBwz0Mod/FXLi7PVg1xJxCBk2oABbbd29D+WrloDUrlWXofDLFjGBGsGdNHPBqP7Tv0k7s6L/gwl8LLpCSzT5gIISsS+9SBXDy/DEPK0xhDIjmVAJZmOlo/2IbjHuHKQ0QRpnYizsYbKpdUdZYjjsq0TsQZgsW/4c50m+Mf13OEcENkfh/6YixMzoai73Hd8PH1weBYbcUTSQ3bQjH3r3Xm4c9L28DF/zWI8+Cto+NoGP2PqHPTNZrlCVMfNCX+nfHuEn0pX4fuJBTu7J/6RcpIuhXULlmRZy5ckL6Sk9xbk9lkCzRu0fXbzld76N670HBBa6lTKWmL8R+iUu3I8oaJuzb9t3aYuZXH8umnhvt8/6nJVh57vJpJGQ4lRKS4sfpoXFRMDUNI8YOx0v9e8r84kY8cz5KJS6ziNDzH79e9CVadmqmgBSx4QJekMHaqkMLfCJsiTQYkzzi0OkGRLsi5DpmfjEDzds2RWJ6PEz00+9TLj7rtxWAShG8t2QyWwhWkalw6NQBVG9QTfyHWLJaoTC8wy3B0g4/7d2OCrXLC7igTVZYF72HvITR/1VYONFxYbJWE1ygtgIr9J04dwzlK5fHef8z0hafzf8U1WtXl30Hr1lJGVTE4k0pRtgSLGjUoiGWfrdYPh/jjsq2/pOJQ+be/VnTj2qs/Z7f+eeAC2x0cTT00DqiMGbyKOTJ/xz2HNgNZ5wdV29eRHBUEG6G3cTlWxdxOfAC9p3YDSpWb9m9EV8vnYOff/sJ3fp0FQYDI9VclFg2hGr+hy8dwI6DP2Pn4Z3YdXQXgvTBUn7krP8Z+fzWX7bI56PtjOIZEOu0oHyFMvjsm5kyUKIdYaBaqAzuVCN0cR5w4eoZeJfKj3PXTiIWBoTYbiHI7C8gwqgJI9GybXNEaSMlbePbH1ZLiaRggz+0Lg1i4jUIjQ2GI8OK9Vu/R6kyJREUfgvWFKPkER6/cAJPPfcUho4aijS4EWIOlDx+on7N2zeDxhiFE1eO49yNM7gSeAnXQ67iov85HLt0ROhHcxd9hSee8pIqBaQSccHjwvF7Blb2z9BJlu/mCC60uQ1c4GZBFtZcdKxpcLTxBIYysI2CM2WKQW9nnhUjbVlCidp4RtTTMPbtMYLgcoOrIKV355KrmyI5tzhCwKqNK9Gjr2Jk2f48F3OD2T9EcfkdjTNCGDY/7dsO3yrlYXWaBUml0eO/U83cnBgjjnmtJrXw3/cmKePJeX8GRfb2/6OvZeOVI7jQDl4rmz60tAi2lbIwGBGivSWbwm27t0g7EVGWhYGVUuKUSinrtn4Hn0o+sCfEitjNvRYV9XuMbLI01aXA86jdojos8QZpO+a+EYl3pluEucBqEqy6QnDhot95vFAqL/zDr4nDSzqb9G0q0eZo+R6Fezp0aScOMAEoAlF/tI0f5PPSL9nBBQo6PgJwgWOV5VF3H/wF5aqVRag2UKJSskBmGGBJp2OhUCbp+DOvlg+2HTcGbL/s9yvtme19RhXEIVRLBno+rwrddnypPUaOf0McH0ao1XrYjJZQfdmSyOoRSt++/9H7qN+8njgEZJiJqvwdv5/9WnLzNcEF1s/OSLVhb6IfKs/rhz8CLuTmtT2acyt9z/nITWRMQpSwBRldJItvwGv9MGg4QTpAmAsssUuwL9vY4HVmf09e0y6mkl3GeuJaEQBTysYCzds1x5sTOVYg6TWWdKMwXGhPqOvAx4DB/WX+8vW/4MId4ELQo2UucH4SpGQa4Tm/UyhavhCCQgOlSgO1DpTSs6yWpbDbBg8fhK69mb6ZLvXqZXzkNF48c55jibn9BPW5pjLo9PKgl/GGh9ZNu0X7xs8YEqLET8oZXLjdhuX2/LkNXLi24bECF7LPWc51pilQJ4WBvJ79u2Hc5GzggidgxXmdvU3vtAHqv6m2gGsLH8PeHIJ+Q/vK6xhXBGwZKgBJQEFlm/yPgwsbOqP6obEIhVGi7qL1lq4A7NnblRtjVizjYUmk/oIbAi7MJriQIsyhczdPS9rZxavnBFwQBi7te4YBUQIuABPfm4C2XdtIn2QHF9h3yqbaCGO8Fg1a1cXmHRtFv4oMcgZzNOZwVK5dAb/s+0lSY8VP5rWSyRhHRkAStvyyAWWqlIDJZqCkvqwDd46f7GNQxoxnXaEQq1L23SI6Wwxi0ZaQYd6wZUMRriSjQOeOEUZBTBxBzQz8vOdOcAHoMaA7Rk0kuABEu8JknWIbUqTZlWbFjaBrqFClAnYe/Fk+Q/H86rWqC9BN5qUKLhAoI7sjIcOFNh1aY8YXCjOU7GVZO2UvpOpKPD7pPv8ccIHOS1ykbMrHvfeWbPgLFiqIitV8Ubx0YZQsW1RYDMXLFUOhkt7wqVBadAqoRl6lWiXUa1AbNamH0L+XHM8WfA7L1y0D0xmMDj1adG6OAoUKoEixInLuXfv2yIC5qbmOtVtXI9ISLvW1tY4ImChmZtMJuDBzzgzJ7WMePyOfFpYmSYpBlD0YSYgDJ2mh0gVw/voZEasKtwch1ErWQSrGTx6Llm2aw2DV4pOvp8PkoMhdqlCUpaoFLNAlRssk3LT9B1AtnQJ1tmQTrG4T+r3RX6512FuvSxQvRHJ7MjB20lgMeUuJLspN3ON/+w/sQQHvF2BJpDKzAi6oxuiPPN8FLtwh6Dj+3CJJi6DmwiMDFzw55EvXLEaFWmVAYTobWQvpZL4oC5MmTild9uHM6aher7JEzOkEM0WGzogsnFw85VDepzEgwsrHR198iHqN62PxysWYNPVtzF81F7/s+1kUbuNYBzdBI1H5VCTjyKnDQueNMoZJ6UQKwNAQc0xrBYhKRNEyRTDu7bFy7miXJtciKbeDCxZcM91EiTU98dSqdvBa0eyhgQscQ6THxSMW56+eFL0RpglRF0VLyjudxsx5nYLtu7ejlG9pGJx62DNsd/UDNVZ4kG3Ac7OfmJm9/9Qe+FQqJUym9z56D1/M/xxbdv4IvVMn6U1cTPVSW50pTgEo5OONXft3CPocbguS9CdDfDQ0nlJmpP117tYRSRkuZU6nKNoTf2ROPMhncwYXmitpEdfmwAKlnOfDRLfZ/mxPZQH+RgBMuwj0ceOsh8UDLnDhlzE/ezrqNK0tABGdeTKV7p4rGumb2xZ9RpsEXFD6nOlnZJf5+V9F4VIFcfLcIdkYMK2LQATbglUjeF3cmOjM0fhi7ucyhvYe3C2ijyr4xHt4kPb+s9/JDi7scV8VcOGZDW0zq0Uk/YOrRWRvu8x+5gaCwLpUR0rCgGF3MxcIGN01XggMeOa02IQ0k6yVFHvlekj2XogmGG++/SZqNKiBW+E3wXrorBKgfN4oY4Zlmfn4F1xgmldWKcpmLEWppkUIuMBSb9FSdSq3gX6CC9qEKAGb6ITnL5IH0ToNYmEGleul/6QUN9fUDEz7ZCpadmqhlJVLZpWlaMmf5vhQ12OOH14/x5o6XhTR4BjxlfpkAxeiXGHCnuMYZcSR4MNvJ37NgbnwaG3IPcGFra/iIG4hId2qMCBzMQiTfQ7/8ddZwCLZRfoEnQDUPQbcDi6QEcI1Qu079Zljgmuy2I5s9pv9SWCBnN3L/udRpnJpAaVIeTckMSBhkJQ6lkP/F1xYAq/v28PrLnDBBOMd4AI3xWQuyMabVRjcJmF2d+jWFrO++ljsLNMiom2RKFKqEH7auRUpSEa4lX6qXtinIbG3JHjW7eVuaPNia7G1BICz2/9oSXVMxjdLv0LjNg0kaMZ5HhNHoWYXrgVcRsGiBXDO76xE+A1JWlgFXDAIuMAgx4ETe+BbwwfRukgRSyRDkinH6thRn/XxCuOaY0Ydv9RxYeU3MjGpu8B7SkiLEx2prxfNkWvWU4jSo+tBfS4+ftnzMyrUvj0t4o23R6Bbr27ih4RbA8WXtSTrEWEJQiri8dvBPXg+bx4c9jDnN/2yARWrVES4LgKGRANiXNGS8kxfn98z2rQo4+uD2XM/l9+kHWPbKdf+L7iQ2YlqZz6qZw4gOiZMcTgXcAoL187D+h3r5Dh59TiWrlyMImWLYPdvu3Dhxhn43byKa7euwLuwN37cvkUmhcmhgzFOJ6kOXy76QsqwHLtySJzcgLAbsuhduX4JL3jnx8FjB8SppaGjk2tOMsKcZAAHpikhBrEOE3wrlMOnwlxIR4QtFOZEPSw8knTQOOg8x+H81dNSkSA4gmkR6bBlmGBO1cngem/GVNRrWEde8397j+3C0DGvwpkWC5NbLwOT5ShJ+dywfb3Uho8xKYjumo2rUKN+dfQa0At9Xn1FJjGZC3TFJ04dj5K+xWXDO2zUayKsRXEtOca+jmGjhmD8lDF4sWcneBfJD30co7dmmB6QFpgFLrCP9OAEr7f9LXit6Aiv71piwrkF8IcB8UmKam1uOzSMpjIazsfiVXNRtX5FcSrocKn0R5bRi4pTorGLVy1EtXpVkJhKgTilrA03wClwS9vTyKbIqwQ4MswwxEcJ6rvqh+Wo16oO6javhZr1q6JC7XLIVyQPmnVoiitBl2BPsYHIqOSIuozCXJg24125LjGMLLmVqIyFNesVTZB3P3xHUnNomBTap0qXUhH7P/+cBS7oZDxeM99AidW98OTKDvBa3hxLw3chAlY4EpWIwIP2Fw0nwQXS0k5dPIHiZYvjsv8FaUmCZqpjyEWATt++Q3tQrGwxaGyRUiLMBpOAZmpf8DM82C92OqeJ1FFw4Jz/KbTs0hzVGlVFlXqV4Fu7HAqWKICyFcti809bkIhE6AVgULQyXh74Etp2VhZHlQ1ldCtRz9+O7UHeAs/jpVe6w+5meVIdTH8BuHAVUWi6Ri1F2Rwd/b6GFWZJ9YgV8SRGfP/8WGAfKOBCBuYs+AI+5UtL+hAdQgUMoNq0kg/JgTt7wedS0pY2UaUcKvMjSUAjpa/Y4gmy4ROnhvme6SwrpaS1RTrI6kpCjDlG+mjK+1PEJhvpbAqDRCOMlP9+OAFNmjdCu05tUapsSTRt0xS3QgIkyqJzhouzRKAlu3PxqNYj/s7t4IIfKs/th6fXt4XXgtYYq9sk4BXbiPPtUV7XX/pbkudKJlJO4IJRdIGSwf84XtQxQ/lHt/QjASMHLAiO9kevQT3QvHUztGrbUkS++g7ti7hEp4ANjEixbKp6rxxfyjj+F1wQe52shyvdgiv2MDRbPVi0j7yWNMfrgWvgwJ3gAu28ejz8sRrj5lqcim2//oh8BfJAb9aBgtvG5BjpP9oFbjb5mLvka9RvUU+o22SU2mGTij7KWMk+XhT7wu/yIBBKlgs/lx1cIHOBqXn8DINC/z+4oLaDsvap4+thP2cHF97z24A889W0iCE4hMDHAFxQxwk1pJRS27T9jPaOn0JxcUDnUmjfcXDKjOc6QS0zBlvI8ExiLDvVBIenD2nL2S4xLoJRKXj7nfHo0JPpTakyPpTcewOs6fpswAJf525fPey+f9DzsW0sbKtEAwywY8ax5fBa1xle67ugxsFxCIMRFFl2kuGdQ1og/QXOA2qNca9CLbp23dp4NBcyQK0q7lE69+yIl//TS/qQc5AAAsE8Pg6e2Qfv4t7oM/Bl6Utdkkb8A/oI1Fbhem9zGVCnWS2s2rhcghB6Mtrio8QnuHT9IvIXyofrwdczwQV1/Sa7lAGH0xePo2y1UgiPYpq3Q5jiVPFhhQr6HUrlqAQBKwhSsj3Vc8SmMSXCgmh7uLDIec39B/dDq84t4M5weQA7bujpN5gR41Tszs97s8AFCi0yJefIpYPI650P56+clXtnijN9FHqf7jQXBgzrhxcK5sOxc4ck9YNrF4Njs+fPls9nltVN1svfC5bPx5NPPyHVBJlORFF+9ocyHpRretCx8Vd875/DXGDekCf6xY5nNIsLBeub8rHnyK8oXakUnPFO2XAwx8+aYEDe/HmwefsmcV6ZumBIiIY1ySRlJvcc34VIC+k6rEeuF7SUUZFn8zyDg0eoRp4EKRlpM8GVEId4twv2ODviE52ItVtRqVIFfL1YQcOMViNc7jjEJ7oQ53bAaGcZTJeAC4VKFMSBQ/sQYgjEhcAzOON/AmaXDqMnjETjZo2QmpGESGsIYuxRqFK/IoaPZ/mudMTEaYS+Q0NMynjlOpVgijXIdeYvlQebtq3H9JkfoGPPTtIGIeZbHnBhHEr7lsDEKeMxePhgvPbmEAwbyWOoPA8ePhBvvT0KXXp0RIHC+RRwIf0hgQvckKaaUTcTXGiOCefmIQD6RwYucMIqWgcKuFCpTnkZK9YUCsMok5nGiCrkfCxdsxTV61VDfFK8XLt/zA0cPLsfh8/vx6FzB3Do/CEcPHsQp68dhzVRryyGKQY4Uq1wJTmRnJGEpDQ3ElLj4B9xHa1ebInK9SsjjCyFVBsinRHy++u3rsFTzz6BeUu+hs1lhJllbxwGTP1kCvoM6iV5Zm9NUPJNqTKbpZKrGNCHZUBUcMFGEc8MI67fAS4sCd+NCNgeGrjAyOPpS6cFXLh4Ixu44HEqiOByLu8/vBdkHkVZIiS/P8h4E0cvH8Ih6Yf9OHzugBwnLh+ViFZshkKfZtqQM9GOxDQ3kjMSkZiWAI0xAm+MexN5C+bDkdNHxelUouVxsnh5Fy2AUZPegNGhhcmqhyPejCXfLkCLLs3x5ugR6NSjA+yJVgEW/gpwwS8TXGgKr/nN0fHqHNhgFmYUIxAUQOJG/M+OCc4DFVz4ZuFX8ClXWjb2Ai5ko6wz8sDIIvMoq9WrKqCPJdmIm9F+OHjuIA6dP6jMlXMHcPDcAZy+cVLSxBTRSxMcZEYl66DxKFIfu3AMZauUw8hxIyVCondTuJGRFdbCJtvFjtlLP8eAof0wYvTrGDikHzp064hm7Zrh4Ml9ICuA16iWq/uz7fAg388EF9Ji8avbD5Xm9sfT61vDa0ErjNVvknvghud/ClxIoYgWS+/eDi5EJ4SL03dL648DZzw2lbaV4+Xsfhy7elSElNmn9gwTIk1BmPj+WAwZ/iqGj3od/Yf2Q5O2jdDl5U4I1PjDmWFTqgmIPVd8g3/BBcUeyMZCZS44wtFUwIXWyAIXnHcwF7Jv1v68Tbl9LjFdhmBTCn7au00qZulMWqE7E1zgesxDBRfogNdrURf2FCtiST3WXMe+0/tx5MIhHDzHNfkgDpzZh5PXjiubGY9PqIALMWLns4MLtzMXfg+4kJttkdW27CNV0JHgwvPz28BrfVsU/PFxAxf0CrggKSlJ6DGgB8Z7yq1TsJNVHfyirmH/+QMiunn00hEcv3wURy4exvmAU7DT5jOd2DMOWD6erE+WJvWtWRY79m8X34DVRggiUC8ri7Ggvv7fARe4KY5l+Uc48NHRFQq48H0XVD84FmFQUsnuBS6o85IsHwZqmSbatnsbzJqjiFdrYsPI75W08gIl8ksFEGOsFjaHGXEJsVi0dh5efKUzXhv5Gl7s1UXABX2yosvEtVABIFKwZdcGVKxRXiL1ZIabkmNEWJEBh8s3LiN/ofy4essvC1zw9D1BJWrfnb10SjS0QsKp3eNCmCEQRy8cEb/i0Dn65Puw/9xeHLl8QFLjWL5Y1eKTyldOnscFQ2wM2nVvja4vvQidXZOVruxJs6LvozIXMsGFOJv4VASvqSUyYvQIlK3sg+OXDiM2zgKbw4SwmFvo3q8rJr03Ea3btcSO37YjLsMuwtWr1q3C8y88h5XrV8Aeb4XNYYEhVoexk8fgzXEj8FLvnpj84X9l36FzUyw8yyao/fO4PP+jwAUOBh6MBpFOzg3kLcNNiYYsWrlQxBqpX8AyZ8znDTEE4Pl8z2HTj+sFNQu3hyqCYW695B0RoCCwYKN6vzMSxlQtLgdcxNPPPYXfDu6WAdD/jb4oUao4qtWoBt+KvihfsYI8V65cCc8/9zwKFS2ESlUrolzFcvCt5Isq1SqjTPlSaNGhMewJZpy/dhrP5X8GZcv7SK5R2Wql4VOtJCrXr4i83nnRoXMHEYqMcobJYA43hKBQaW8sX6OIfoRagiXtYsGKeaheuxrs7lhY3HrM+Hoa3KlOjB7/Frr37SHXSiEt5v2PnjgKQ0a+Ku/d73+//rYLefI//3DSItK52WEZRT3MqSbU2zkGXt91gteWlhh/cR6uQ4uEJLOgibKw5mI0j2NEBRcWrfwG1RpUEtAlO7jACRzlARdmfTkTNepVhTNeEdL85JuP8eRzT6BoyaKSKsM+zvtCXtRoUAUxxgjE0WAyF1go4Rpo3ZHQxIdAlxQlBoZCnBTG++CzD6T5Y+JI6+K/GbB63WKU8CmKEuWLo0L1iijuWxz1m9dBjFmD5p2aSKoFv8QyOjaqsedY4/fPGSRudqQPmCaSYcJ1sz9Kft8bT69jdY8WWBy5G2Hghp2LthJNeBCDR4eBtFZWVzl54QSKlS2OSzeo1pss6T6qQ0FDTkR6x57torkQZSSjJAOrf1iKZ154BgWKFMALhfIjv3d+vOD9AoqWLoJLgRdl9pJZxIWFVTf07nDo3GEwJjG/VlH87fpKV/Tu/7JokegTYqCPD5cSsbt+2yrVXgqWyI/ylcvCp0ppFCtfFEdOHcIHH01Ft95dFNQ9UQNzKp2YP9fmv+f7AvqkGpGUYMYlRKLBuhF4ZkNLeC1rhVY35sAKq7Ci1CoVDxdcAObM+1zABUagpJZ4NnBBnU+z5nyM+k3rIT5JmSuTZ/4XTz77pJTMzVcgn/RRvgJ5UbN+DWjtGqEl8npZucORxpr0ifhmxdcoWaU4lq1dJHRpI+mDSTqJevCzIsKZqpd/U+0XNydh+hAMHzsCxcoUx+WAC+IcKTmbKvqf+32UvR8zwYVUO3YmXkXFhf3w/PbW8FreCm+aNsjaIuBCNtpm9u//I1/fBS4omgth9kCJSn06fyaeyfMMChX1Rt4CecW+co2uVKuisAKN1NigwGgGxccy1O4Xtopf0CW06dISzTs0gd1tlbWEvgDtSHbmQv9/NReEhhuXbsEleyiarRuMp7a0gdfq5hgWugaxcEkEjvNMgIjbNmwPdw6xbxRwIRk/7t6cxVxgxSaPGCvXawru8vHBZ9PRokNzKUdIcdBZ8z6R1M+iJYoiX4H88C5SSPyz+s3qQRMbLnpUjJhyDWCE9U7mQtQfZi6oG9bctfnmdCNi45UA1OTrG5BnWQc8va0j8u8YjN9wC+40q7Ax/v42IgdwYfIE6UuW7uNmceL7k/BMvmdRqFghYQWzpPuzeZ9Fi06NEZduhcmtzGGOFWWDmooFq79Gg6Z1pbqWNcUsKRQCLnhSWrMAhoc7Xv/O7S0+G0thJxmhQyxmnFgBr82d8cSPnVHj+FsIgU7mlDPVBI6ve4HaKrhAccXs4AJTQ40J0bKfOnh6L2o3qIFSPsVQs3Y1VKpRHiV8isE/+Do+/WoW2r7o0VxIjpLUSVOqUjGCHU8AeOKk8WKzpdoWy8JL9Tw3Lly7iLwF83rABaf40OIHenx2+oFHTh9C+ZrlEBzGaiFJ2LnvZxTzKQraAJYJL1qiCAoWKSjV1c5cPSkMBgLLtANkFjAwu//4btRoXA0T358AV2qsAAu0D9R/UvuYducucMFlk89wHEqVG6cWo8a9gcKlvFG5ZgXUaVQLRcsWwqi3RyIw9Caq1ayMs1dPydpG8dj4NDvmL56DYqW84Vu5POrUr4PyVcqhVbtWiNRFoGefrvhiwWcyP2LcuSfart5jbj7/s8AFD8LFwag2GunvrPAwe/6X8PEtDXMs6Xak55ihtUciT77nsW07y/tRvZbK70rEj+cgHZt0aUaISd8mHfNm6DU88/zTEkXlRn3Dru8wd9kcLF49DwtWfI15y+Zg/vI5WLJiAQoXLYze/Xph3Za1mLPoCyxY8Q0WrZqPBcvnYfmGJcKgOO93WgQdd+/ZidDwYFzyu4hzF89KPe4x499Cw6b15fqJvLO8JCtM/PTrVuTzzoddB3YiNsUidOOvFs4WQRIqtlM1ncrrfIyZMAq9+imigmQukEI2bsoYtOzQHNcC/LD/+B4cOrMfh88ewGFG488ewJ6jO3E18CK++PpTaR+K8aiCjmq7PtAzKc3JOphSDWi+cRyem9sVXos6YMqJRQiBEQ6WolQ3trm4WROjEa/QndZsWIGS5YrDnmSBXXXy+ZxqFKoWDdGYSWPRqUd7YbewsgEj5zcDbyAo9BYCQ1ObKMEAACAASURBVAIRFBqEgCB/BEUESDUCoX6leuoHpyi56YbkGBhTdAizEwzKwLgp49ChRwch/xncivPDXGRWMAnV3MKPuzZj8ZpF2HlgBxxJVqlwUqluBaxZv1qMo4biRaKKnDXWH6hP7tnOCpXUBgv8zQHwXdQHeeZ2htc3rbEyeBeiYYX9T4ILvF5uruKIhvtfQskKpfDb0X1K2gfLf3kQZC5AnGvrt34H32plYY+3yXhkPeEbgdfhH+yPgOCbCOBz0E3cCg6A2c08a2smdV+EMZO1ksZA+mSEPVQAxc27fkCZcj4IjQyGM8MhFSYMCRpJWSK76Jf9P2HhmgXYsmsjwrVMXQJad2iOdz+aLK8pIkXK38Nt+5zPx/xk0h7jE00IQDTaLx0Jr3kt8dRnrTDgzFzYQFBLJ4wFpS77n4/YcIwx95Wb99XfrxBwwRinlY0bGRuy8HOD4EkzmvTBRDRt01jahmBNpDkM1wOuy/zwD7qpPAf6i/CsLVkBClhdhwCT2WFAj77dUb91HfgFX5Z5QoeGoB/nJn9L5pbYeVI8oxEVHynCthS4tSRzwwm0aN8U/aVEFMSmP4q+yek3KCZIUcnkdAcOxfmhzhf94LW0PfJ83hYzIn9EHMukJsaI2GFO3/9HvpdiFLpnVlqER9AxQRGoJeBE28o5TJsaEBwA/8CbCAoLVJhanjx6biS4KY2KD5ONZ0QsNyrxcCbGomCJF7B81VJZ6ySiSYc7W1rEwP9xcEFAymQ9HOkW3HSEofmiwfBa1A5eX7bDJL91cMIl+gMEF5QNCO2IeuRsmx54rBI4cEdKGuG+E7+iQPF8CI8KVYTaBFxQ0qUo5MrH66OGoWvvrh4wWAuNNRL+t27iVsgtBATdwq3gWzJeQqKCMtcP2g01LYJs0+zMBVF591SpyUqL2C2lKG+vFqGus2o7/Hnbet82ow+SoBUW6qcX1yP/Zx3wxJJOqPrdUJxOD4Ir3SqMgPue455r+0Puw/v+TnZwIRE9s6VFxDgjZX2OskThJv2nsKAsfyrYH2GaIPFlCZKr6ww3qdxg1m9VG6ymxgdFsYXGLmA37+0R9dF97/tRtrHyWwoQaISNATzY8OnBpXhq8Yt4bmkPNNo5ERoYZLPueFBwgeneEhDSSsqKNV6Pn/f+iIWr5mHrzh8QoaVvC/Qe8BLGvaswbLWJSqlugvxc4wPCb8K3ankcPXlI0lcZ5LGlW0FfgUyAm6E3UMynGA6fPgyCG9RcED+Q4IKIn6di254fUb5GWZANztQ3sg5Yejg0IgShEcFy8G+mmrMEPL+vBPqYTpOE6Z9MRZW6FfHLb9vlenkNFFTkHkcJ1ilzXfYJHs2FTOYCwQWpSqis7dYkg7DkGXRevnEZlm9ciuPnDst5d/76M6rVrQyTi6l8Nql8wQpl9PGj9KHYuON7LF67EL8d3iu+qNFiQLX6VbD72E5hfVAAmULI9wKB/u5z/x8DLqgNrRoh/s0IBwXemMf12sihaNe5rVDUta4YUTvX2SORN9/z2L79R3Fkmf/O78i5Uo1SF5XMBRX1VsEFSYs4ul8mBxVOuWHnJlR58LUSUSFjYeHKefI2QYHsD4qXUI31vN8ZFCpTAAERN+R7zAeyJBnlo9M+eldKXPJ8zNdhJQOtU4naTpg6Hn1f7yMTkvmosxfORr2mdRGXRhTOAFLG+Rgr4ILCXCC4QMP83/cmwus5L7Tp1ErK/9VpWhO1m9aQo07TGqjRqCqatGuIitXLo6CkRTD30fTAmgvZ+8bMahDpJiw0HMC7mu0Yrd2Mn6xnEEYiV0qWkVS/kxvPNBqqVsaBE7+hWKmi8Au8LCWpeH2c0OKMJOngRjy69emeuZkkjZJ1cclpYT4/SyhSM4BpNqRqc/zxmvkbak46jYORVR/SjCJUyHwqlpRs0r4xYlPoJHi0KDyAFsec+qAzZE8xwy/4CirWqYBTF07Kb8ckZhd7efgLGa9fjFqGGZoEDT6P/BnvarZgtGYDTiT6IwYm2CkcmumAPtg1sJ0pZqNzaOFbpQIWLF8ot66AJ0pbEuTjHHhv5jQ0bFZf5jNBCbYvC8nGZ+sL9gfpfPZ00tcUx1TtE/6WMp4YLdNIFOuk33HkeyEPLl8l0yFB7EUsFebjFcomQQ0+qG7vTDMjLsmMqnUqYeXaZfK+IO8qKJXLzgbBBY5NV7IFkRkGfBexH6Ojv8eU8I341nESLEVF+6XcL+/1zzvAorWSrJfxfezsYZTyKYlTl47L2DckKboYRPAJvpJ10KNvN4yeONLTNlHMiBQHWZkfnCNxmXNHNi/JOqnaEWUOR52WdTB8/BuIT+FnnIh2hHuoroZMUCHLHni0FDLMUjmEQJImnmUH3fhm2Vdo2KQ+bAksp0rBMFVL5cHGaNZv/rHvZ4JBqbG4lhaFpSE78aZ2E6aHbcZu9xXEZhhlg6COzwf9ncfqe3cJOirggt4dJTaX4yX7WOF4UW0s24l2ic4dDwH1MrIJ8DoIGLqEldd/YD8lF1tKxRr+BRfusE1KSTYTIlNisCRyN96K2YCJkVuxLf4KbPwvxeDRLPljY/6PjkURdExUNFQo0Je/eB5cD7gq9oWgpjXNIvaMlbH46NCtPSa8q0S+NQ7qatgkRU5di9VnYZxmCzYpPhyrRdwOLsSwhNxd4MKv9wEXcrc91PaTcZ5iFObFIbsfPgj/EeNiNuMb7S+4iQg4JID0aK5FvaYHe84OLrhBQccszQWNrFfceHGeu8SHUuY7+1H60DPXxR9JZflwB66GXEKRkoVx8PgB6U9GpfnvYh+yBRYf7HofhzbN+RrVTSjZfUYYcMBwFpO0WzFZ9xO+tO6HFgZp7yxG0j3O40mLuIu5kBAjPhfbmkxQiq8rlbfoH6XAnmKCxhiOBi3qYeueH8RrouYCbbWSkpaOj7/4EK06NZcNOStGkBVuS7MIo9mZEQtzghE16lXH8rVL5ZyqICT7UmFHpuGT2TPQpktrYbiSmUb/Qx0vHDNMm6FPzoOgMpml3D+RiT501AC079kaMUZFtyPGESHrDq+B6dq/C1zIYPlIrinU3NJL1Rr6oMojQ0QxM+iHLPoSrTo2F1Y0dSxog+iTse0ItKi+Zbx4ni7x7cvXKoeQ6CCZCzoWAOBe5A7b/biM638ouKBMGjraLCkSnx4H3+rl8d7M96T/o2xUGXUg5g5wQRuniORxsFJ9Nkh3EwGR1+U1yyVlggvPP41DR/cLshagvwYbN/3xESLSGGELkucYQxTKVvDBh1+8LznKt4zXwdQGom88QswBEh294HcW3qXz49yN00q1CFswQs2BImoz4d3xaNC0nqD0FI6TzWqKAbHJJphdeuhcMRK1402NnTQOVLEn0EEULsLBmrMEF0ajd78scIEDesykt9D1P6R1p0Pn1MKaaEJssjnz0NqVzdzGreuQJ++fT4tQJ4M40Z7J4oQV8bAhibn7pCKRGi2bNGVDqX4nN555HTQKzOG2uLWoWrsyVn5LcRmlfB6jtSyxQ4NjYNWPauWwZccmaa8oV6SwL0jjIjWKRlMOz9+yueN98H5IxyRYwdfcRKcaoIkLFwbEex9PQ4ee7WWDS+YCa7Xz32mAeL5oZ7hEg29EX5U+/fzrmWjcopGMBVZSMKVl6UPkRhvxnJZ0ixzmNDMSMmxIhp1LCJwZjCArm1guNH/m9/l9lVLfonNLvDn+TemHcEeIMDPYhmxr5uOxJOE705VSnIxUc9MouiPxd/QDdVOyRTvYpmxbRpF5rex/ghc8584jO+BTthRCI4LgylByjZXPKhtmdb7e0t9AXJod+0/ulRw7/7BrAuTJxvVPtsEfab9MJyrVLAtUMtgvNsSTPeEBRv9sn2S/HrYVBc+MLLeZZEZp31JYuobpCimIjAuVxZtAHT8XbYhA+eplsX2PUk5UFx8tVGSCQ9nnicwdfifFIEdcihVN2jTF2KmK0BfZZpEEFlLNwiRj/8XKBkAB7TiXmF5FUE4p58QNiAVaNxknbsxZOhtNWjSCLYGbdyV/lNeX/b4e1Wv+Lq+NKtx0fJLglLQblqqSvvSk8j2q6/mrf4fMwNurRWSBC3S86ARyfNx5qGOMbcbPCNie6XRxLOigiyO4lIDXRg/BoCEDxW7yPJzP/zIXbt9IqHaEm3cGSBJhFYUq0tAVbRNFt4UbldwcM2RiMf2BvpXOGIPSFUti3ea1AkCKWjp/n9UG4qPhTLfLxmPpSrJSILZflOrjI2RMcVyph4GbHw8YRaE62gFuVBhcyc5cyBlcuB9zIXfbQ21r5loT2KXtSEhnupgTaXAhEbGZQOvDtPPq7z78ZxVcIPjsRs+BFHRUwCGuC/w9zmXOb/pTfCZQLc8emroCJirVQ9jvH3/xEeo2qo34tFiFmv4IfKGH3y65M47UMc85Q2ZSEhxIynDAne6QsaSsR/ztewcf1DWT4EK7bJoLjPDzvEpbkAURDTJ/YpxhCNJSgDEW+4+yMldJaC3cY8XC4AnoEASgz9CqQwv8d+pEmb9ahwb2NJvMU4qTG0S8PB1de3XF4DcGK59hxQQGuug7u6hNloRur3TFlA88JdlZYpbjh2PHM35kLHnGE++FAWbui979cDLadG0lYqHOVAsi7cEwCZtV9b8JLihgJu+Rv5tTWgTfJ7hAxgX9D1OKUYJVTKMmIzbYGIBkJKJzrw6Y/pmy5zS6swSwyZwlmB7tDIXGEYYA3U0JmM2c/wk6vtxJWMrGJPpcSkDyX3Ahc6FXB99f86waXObOcNMSn+HEvlN78UKR/Dh+7oigSNH2CEG1oh2RIujItAhutJn7zkGuk9qnGfjoy/fRqktLiYZxU8iaqjdCr0o+2K7fdgprwJJgwJ7jOxFji1AWSHeUgA2xTgvKVyyHWVItAlJ5QDVQvEaWK2SZvPN+pxRwwe+UOEChllsINN6UVIcJU8bdBS6IAjxRsxSLoPbMveeDwiLtO1E5F4KkEcjg462Jo/FSf1VzgbRuggtj0L57O0TqInHR7wKuBVzF9Vt+uHHrmjxf8DsHjT4CC5bMRd78zwu16GGkRSiGTYm+MlpNATduzoQtQOf/ETra7ANuePjoP/Q/6NpTqZ0daQ9DpDMcgaYAQV43/rwelWtUgtakAZFVKY/kuU6eg/ckhsjjyKj0PAXVpGGLEtpepCMMUc7QTPp449YN8Y5qIOMiFYQ1SY9oZxQ0jggRkwyPDRaRM32sFlVqVsKytUvkelnz2yq5hbk9x8yweqhi3NBxo8+Dm9hYlZ3xZ+a9px2jJZ82HbPmzUKVWlWgtUXLmIu0EmgLEPp4kCYAeYo9j6NnjwjwFuOi88j790Qsso2dzAU2zQi7pwoByxVpnOHSt1GuCITY2L/A6+OGSZ4bEXiWpGSkmyAEFyTOIZZYjHSGgjaDj849OmHQG/3lNc+npKbkdj/cfX7eIxdOS7JO5hGjCIozmjUmVXvzZ57VtlTLq3bv9yJ69Oku9jIiNkwW01sGf1kcN2/diBK+RUUfhOCtwU1AlNdDJ1k52F8yXzj/PFTnRSvnoWbdaiK0ScA3yhmh1JkmaOSiDkaM1Eknq4vno9PihB3a+GiZL1EyXyIR7lBsXs/+PTBgsFr7PNKTJsI2VCIHD4PR8UfalCl43LBZGb3wHIwcq2vVHznXY/9Zai7ER8k6TDVtdS6xOgwdyHvdn9haEeczybpLQJpq8xQSjY4LR4QtWBhQ7tR4VKzti6WrqUmUhhhnhIibKtEzhVo/gOKfXZS1kqk1ZnG0755j97qWf8L76tql2BE614od4dygXSWooB65eb+MtpolxYV9k4a3/jsSLds3Ffsa5QgH180QW5D8vXbzapSpWBp6O9OyzDDTwRf7r/Ydxw83TXdvnBRwgdUiEvGylKJ8XbHhLoKYynmy0iLIXCiDoLAAuMWOKcKSudkOOZ9bARdiCaKqtsOzWeN95/wdtS3+Ls+eahEeQceeA3tg/DsEkTMk7ViCANn9qeyvhZWmsJQ4XgkO8dGzbzcRHudrlpclg+nxaY/c7ZfM+cAgXirBWqWqnDmZv5t9zNzb1t4GLvRgKcqZ0u6SwkDAn5tpVyRYqp0Bhgh7sIBB/FD7nm0w4d1xMpeVaiAED7XCLgoIv47S5Urj1wM7BWggYMi1Ua7Zk37JcyxcMR++VX0R67bBmmhElD0U4bZgONJsCIoKQPGyJXDo5CGpgKeVEsVZYyT7PXLMcHxwDrPEZblK5XAzyA/2FAtCrYGiu8e0Vq5H9CVY6U/S4jkGxb81QuvZX/289ydUrFMesS6LaC6wjXjtBMK4z9Q4w8DKM2E2JTXk0PH9KFWxOMK1weKvUCuIAQYCafxNTVyo+JYRsSHSNia7AaWqFMe2vT8K+MEUfc5v2keVkfJ4zPes8f2PYS4ok0pxrAkscPBbk42Iz3Cgcl1fDBs1VAa8xa2TfEI6qBpqLuTPgx+2bJSByo0dN7uMgLBk44jxr6Pby90FLaPegR1GAReefOYJHDmh5NUMGtEfhUt7I0jjL8wDTTxLnBhgd1pRvkJ5zPpmlkxMVh5QBwmvVQUXzvodR+GyBRBtUkACooUJcMh3Ppz1Aeo1ZinKDJi4qHhQQ0ZhSCdi5I6bJj6GDBuMl/v3lteykfLUnad4Y8/+iuZCsJn1V5Mx+f1JeDLPE2jdpRVqN6kldenrNKuNus3qyFGrcU00a98YlWr4ZpaipFP/MBC07E4NFwUTFf2JTMqEzm78sgZpbkwqGg8qj7Ne8tVbF/FkXi+skNI4kOgnG9LsMuGFUvkxd/E30gcqBZ79p25q1WtT3lOumf1DY2J1m2XMSafIq2R5OWXGJJQqVxLh2hChhHPjzu8z5yzrwdSaVOis0WjYoiG6vNRZ0FAK31lSSfOmA5XbbaQ4N4yekFXCvuIh9/4Qo/XUolDGtwk+1Uph0JvK5p2pCHQ4Cfy16NwEfV57WUpW6d0UdcvKw8wcU54xxL95jRLxIEUwXi/lytS2TZM0JmD1+lV4Nt8z2HPwF0l7YKWY2BSz0LCpwaL8dppsnJPS3Xh9/GuoXLcCDC6tQrdn6dKH2A5/pD/lnj3zRl2A2E8qwPBHznW/z8r9MXLoVsp6Xg65gCfzPoVVm1ZJczI9iPYpxqZBkRLeUkaJGjcxUipVoRkS4VeuLas0oNhAj2Dq0DcH4/WRQ+R87uQ4pGWkIjU9Bal8zkhFSjqtVrIwJ6gp4xd6GecCzqjdKc8UauNj0apFIgh1/MwhiVKyHKkCMN1743G/+38Y/yabNI9ehGrr+Eww9WGc/7E6h5SiZKpisqQvDH1LERbWkgKaGRW7064pQAwdZKZBHTy/H/4R1zz9z3mq2EqmP/Yb0hcVq/tCZ9YowrruGKH3M9VJLyUPgSEjXhWFcNqV/1VwgWOGc1DWLbEjSulUlvGzpZPV92jABRm73AS4o4XhefnGOeTzzou5S5QqW0xL5ENjiAI1s977eKr8TUFusYHqPchamH2O374+quACI4r9h/XD6ElM3cqQDQHtJ9vBJKldbmGnVaxeEcHh/kik15f4V4ELtA+KDSXDg/4XD9WPfFzmPduekWtGnV8Z2geT3qMafroCLvyOIAX7mYEobubM8XrUb1IP325YDVLPhZ5/26b5Ttvxv/W3Oqe5vojPxmf6bfcRcLxzHGUHFyi++MXcz6W/jNRcSDHDmcG0XdpcJf2bq3M6UjHo9UGo26gOzE7aDpOImrPv1JSmbTu3oELN8rAkGGWvxI222B/VFpHh644Rhii1B4aMVNgLSuqFknbeumsL9H9tkPwyGb9ix1S/765xYACZSbzOFd8vQYu2ZHZnIDk9QXw6XjNTlDOQhnS5gxSpWiWAF+1KusHDXMjAL/t3oEbjqoh1mRXRR+pApZmk7GVWWygptKcvn0KRst5Y/cMK8UGEgSUBBovsNzwLl7QpX2stUajRsCrefHu4pNoz6CL3ddf9PF5j+R8BLigTSlkgODFIdyFFx40EdOjeFhWqlIfOFg17qkWhR3tE5Bh5LFD4Bezas1OGVmRsqESzVWViKk9PmEwKTwbCY4NY3AzXgi8hb7682P7TNnR7uSt8KpSSOqYckBQN0TMPOVUPO5kLd4ALKqrGCcfoM3NLT/udxAsl8mPFmuXYd+I3bP11Mzbv3ICTF4+j36v/QbOWzcDtjdBw0ozQJ8WAkV6WZopO0CDQoojMDR4+BEPeVBx0UkHJtOCD4EIPD3MhQH9TqOCj3x6Fzi93givdCZZVDDEFIcwSknnc0FyDA3asXr9SBB1jHFGSakEhRtUY3GmQHuRvLpLqgvkwgIs/eg28F9KPCOjMWTQbTzz/BPoN7ovla5dh5uyZKOpTBENHDoEzzSZ1f1WUPaffEaRTAAtlEQyKvoXGbRqhz4BXMHfxXCxbuxTTZ76PavWrS1Tk10O/IC6dTAiFOk665sbt6zBizOtY/u1SYSmMGj8ShUp5o1e/3jAmGEDnmmV7aPSU6ExuGxs1B818Wz89bOfGkq4Hc/NIzz14dg/yFnseLdq2worVK7Bo6UJUq1UFDZs1QJQpQmh0ROM5h3LqB76njlHS46h18mLfbqjfvBG+XDAbS9YswedzP0OrDq2kJNDytUuk/8lIYZkrOkAHT+3DgOH9MG/VN1iyehGmzpgC3+plUam2L66Enpc0KTUXULmOe1/Lva7x4b1/d5Tu4Z07m3aIB2CgzaIordezXhg4bBCWr12BD2d9CO/iBTHkjSFwpjhgZtqW6KcwrYEbGIIKqliSZ8xSMNXFEnSp6NStoyi+N2pcH5WqKRV1qlSrAh416tZC2Yrl8dqo4dDFUu3djT1HdiF/ibxo0b45Zs2ZhcUrF0l0pWnrJihauii+3bRWdDeoMu5IN0s5M85PpV1yt73u1fYUJeOG7V7//r/yPtkJrGlOx65nv254aQBZMJCUlvsxFwjYMrrExwdfTpfx1+/Vfpg9dzaWrlqMqR+8g0o1fVGlVlWcvXYaCeQZqsBCpqCjwlzo9nIXNGzRQM6lS9TA8i+tOtvc4Px4tOAC7TX7l/aA83vZ94vw1HNPoO/APljx7XJ8+Ol0FCrujQHDBoi+DtOtZL54AOa7545yD9nfJ4CvT1SYC6QrDxxBTQ6ALDYBFwieu5k2kYjdh3fghcL5cSvkGtykdv9loqtZ4ILqO2a/p8flNdueGknchLbv2Q5vjh0ubS8BwEy7fG/byDVWZTvt2vcznnvhWQRG3VIEcT0VRR6XtnhU15ndr87++vf4buwvph3SLybDdvqs6bIRjnawYl0cTl47hiFvDcL8FfOw7LtlmPrRVFSuVUlAHwreU3vM6I6CXYSus9JeJ7w7GpXq+ErQhsAC92qqH8dnikUaE5gC68KpSyfhXawgWrZrhqUrFmPekrmo17QOGrdsCK1FA3uqVfZy6vfv1a5M2yA48cX8WeJj/B971wFeVZV1nX9m1FHpHQKEllBC76CDBXWwYEHs3bGM3RkbIEVEujQBu9gLVsQONkSKKL2nvLzee6/r//a+7yYvMQmhmoQdvsN9775bztln3XPPXmeXQcMGomefPPTs0wO9+uRx6TegD3LzumHkRSOxV7ed0xhzliF653iVd8Z7n76Lxu0aKOkmiawJG+CNOjFu2v/w3wn34/llSzFz3gwmt09rdAqemj+F5UfXoWeXAm3T2Pbq+y9yJolFLy/CM0uewW333oamWY1wze1jmbghy0a2pKpifltZW2va/jpDLtAqJa18eJIOHrh+27ERfQf3Rst2LbB5xyZ4Yw4mDug4Gwf4IvNaN5q3a4EH/qfkFaXAUZSPlFjVb777kicwr77zMlsxFDj30GsG67euQcOm9dCgQQNcOvYS6O1aDmTGygZFJY2SyZ4Fbp8THbt0xNS5SloRslwoeUGkUyvR/dZv+wUNWzVAdrf2yO2Xgw49s5Gd1x7dB+byw3XuqHMRigbZVJvMkYhhK//nCDqQ3bkDJk1T8tGSwkqmovT3nwfvwsVXk0VDihVp2vfopEdw5c3K6nAcsfKXY1aPdn628jPUa1Sv5HdKS0gAVpW3IwFmGuzUciSudzDXoAkNuy+ETZyR4bNvP8aoy85Fy+xmGDJiABa/vBDBlA+WdDYHand12k4DpyNqxesfv4ZLrroYnfI6omWHFhhy1iBMfHoCNJZCNoWiSRLVgfqLVmS/+Gklzh19DvutZ3VqhdFXXYw3PnoNnpiLzcE5rR71AQ/alZu1HYwMqj6W+lspah9V5+VU9TUrmURwHmRtOnjlb7jh9uvQKrsFuvXtismzJkLn0MAVt3HEXRfjsOr200uHVpwoL/OXa77Adbddg659ctAsqwm6D+gKCoj6y+/pNEXEFJPZZdTI/bBx53qMvfFydO7TCa07tMI/zz8Ds5fMgC1gBsUKoUmR8lKrHh4OSR7VmHQp1yU5VC2Lw7k/tVPFPX0mwoZiT6z4fgXOvvBstMxuwanhnn/zObgjTpiDRiYW6LkiayfFwoRIKhVLSv/TNek5oYnI+1+8jccmP8z5tCc9PZF9asmvlsqTMyfjianj8PLbL8IRtLB5sC1owqqfv8ad99+OHgO6oVnbpugztBf+O+4BbM/fypZH/GyxyaWS/adUBkdPVqX3KI9xpY9KM3gc3T6rvB7l6/UnfI8rPtb07nvvq7fwwbfvKkRQzFjliixhj3xVyZ3EEjBi2buv4Kobx7J1Xavslhzga+ai6dA7dPwOJ5y6k3bFJSZN6hDeKCbDe1++g5eXv8CTWMp4ooynf4Isqv2MH726cSR+UtJZRiouFdcIlTA/2nhSxpe0j3OASGY3vli1AiMvOhutOrTAwH/2w7MvL4I75oQ1QiR7epGjUrJObUep3Ii4Ipc+CvL2zuev4+PvlnP/0ztVbR9lFKJ779Jvw6JX5sPkJldIu+IK+Kf0lTpmquNnaXvUOteGLcs+RkH3vHh35Vv48oeVLCpXQQAAIABJREFUrKSSlbBqjVtVO9R3BSm2m/asx4JXnoGTYoSRAlYpwVQ7ZVWVHA7mt8z5Wubn6lyD+osUf1/Khdc+fhXf/7qaXbjJspNi0W0p2oSxt45BryG9kNUlCyMvGYkFL8yHM2SDJ+HgeAKU3YldZ9MWwhH48d6Xb2HZRy9zkHQiMMr3vTIOkKuBAb6kB9sLtuLme25Gu5x26Du4F6bOngirRw9XhOZ26SwSVazuq9bJtGi1fufPmPDUOEyePhGT03MLnmNMewJTZkzC+KnjMGfJLBTZ93MGCqofvXMIo0R2bC38HYuWzYcrYmMLGmvYBHfUidlLZ+L084dzqmRKf3vHQ7fxvJIs3zkbCrmY0VyHXUO8+GLNZzj3kpHI6dMFOb1zcNkNl+GDlco7kNwyaIxS51ylwSVpHKh9eK4b5AIRBmSmkrJhr3kn/jfhIZxa7xQMGNwP+wt3K5OIEPn3pJWBuJICj0zu5j2/APWa1EO3vG7I6Z6DLl27oGfvPNRvVA9X3XwFux9Qh5N/UQQ+zJg3FSf89QTMmjWTzWnccSezqqQkEgB4wCQm3utE+07ZeHLOVFbOKRiJSi4QeChoGU10fv7tJ/y14V+wduPP8If90Jm0KNQqxMBDDz+A3LwcJYhfgCKMejBt4XRce9v1uPPBu3HrPbfgzofuQNdeXXH2qHNgC9g5HRtN6DMtF86//F9ch1sfugXDzx+KDjnZaNyqEUZefA6GnT8Ep/9rWJky9NzBOGf0mcjpmYO//P3/cNYFZ+PS60ejwELWG45ywbRqH+jVB5X6gVxoaBLq4AwdMcQRhN1j5sGUzOKdHGiRXmSKb5h6buXbtDKWVFwiaJBxBxxw+ByIJBUTT1r9pYCRrpSdBxKFGDPzoEvmwi6fA06fnU2HiRSigZ4Hu5RiQVD5vWtrX5DMKOiaEviSngta0XZ47fBFyEUoxS81S0QPV4nVBk0gK28vvahoPHDGTEiyyXwCnqATdo8N/oiXnwfyvyVSULkmZQlR3I1oEkOWJJ6AE04vBToL8vHupKMk77ISS6DUzL+qutTm39QXXcmWVhfCJpBrCbkqUGrfUIpwnVSswmg1IiMoEk1U6NzyMuDrEXERt3AKQRZwlf8lFCuEBBHI9GwpWXn8YS/sbhsCMQUn1FcU6+FouIiUb0P1v6srqeW3leO3+teubddIx5qIW/i9TBM3FSP0zFbUbp50Elb42TfzeE14Iwx4Ai5+RiMIM3roHUkKqCvlKHct5b50Lwr6Sc++unJWET4rqkdd3HdM3R+qGq8zSExS+Om9SZlfbG4rIill/LWzvzdZOaSDrjG5UDFmyveVorgox9KKLOGOjlHHNZqbqTggl1l6/xCRTPKpDJfl73H0vtduckGVPS0OUEYh6ldV9uqcuCrZKe8KsoIzs/86YYOuRT7sR9oNsKp6HE+/MeaTFl5tp2fFGVMW4tQ+oLmxP+KHK+DidOo0+NI8mp5dmsepfU6uA1TIVTyCIMh9UVlwKH3eSuVKzyfFNHCwlS69y1NIwel3IhxX5hgUBJ7mwjRvL312K34H0u80b6c6UzaJ6vxRtiIKYK1em7Z0PpEqNDcnzFGh+E/OJM3RY5y1whNwIxSjOpIzb5AXDFXyhMdYuk5CsZJOIgZPyA1f2Mc6JJ1BQSlLrLdpzGF9UrX2VHTLUjlV3N6a9nvdIBcSyooaPQTfrl+J3F5dMGPu07zC5os7YQ5oOXWP8sCUvozIvJoIg182r8HMedMxc/50zFk0i82mv/rxc04DRECmSQhFFQ3CjXVbf8KbHy1jEJn8BphCBgXo6RV9IhfoPi6fEz1652H6wun8gGgpBkT65UqAJR9DYnJ3FGzBZTdejF267Rx4hFZbyV+fHsQPvn4Pc5+bzb74FGCOHszxM57ARVeMxgOP/xe3338H7nroLix9eRHsQRO8SQdbOND11Qj8FLzxwrEX8XP1/JtL8fiURzBn4WzMWjADk2ZMwtTZU0CZCx567EH8d9xDHI/hf+MewoOP3YeJ0yZg/nMLMGn6E5i9eAb0nnTgwXRQIbU9tXHLg1968CFrF3KZMfkpUrGWU35ayf3Ep6apSWOmAiWporaT/GlgIVM+WkEjTJC5E20pUEsZ5Sd9TRpM6HdSdplMiJo496/BrymdBNPkm60WasfgUpFsqtpHcqOXBgXJoUKKJxF7FOuCmGoiYZRYE6qSVrkclJebooia/MWgYo+Y4CSzs6gZJp8OlHGCsw1kTGzdCQengrUEDXBGLPxSJWWasMBsOT3DNKmNUTT10sjCVbWrLv3GL724DUYKshgxwxmnNFJmUIBNwi29zNXCrgj8oiwdc8vLgvqcgyJRFh0Ozlfxlp4lV9wEF5tsm2CmKNEByjhh476gZ4ezUrDJNAWdIqwoE5Dy9zz231W8lt9Wjt9jX8djWxfqd0q1RVZb9JnfzVUonyQPevaJYLDFDDB4i2Dx63gVyxGjGDfkX6tl6zxKQ+tOuJQJWsaYze/ltKUYjcuE07ou5wO1j5XnSi0Aji0mWMFPLwCRayeNCzTW8nvTV8wKB6WcVVMMq4EYD9TGzN8JaxTfw0RxFDKwQceo+KB7mvxaJhZIMco8Xz4fOiY4oB1ZtoVMB/3skWJGzytZHxl9ZBZv58Lv4gOMG9JnB99n6phMQRztYTO7IdD7lGTJfRCgeS1ZONBigzFjfkRjeSnpo5KXFPeI5rb0XPO1acwv9/wpzz+dSwSDE+YwzYGV4K2uiAkmH83hjIwDOlclGKrqX+W9Qu7PRiVTXxVzDLJIJSJBrR9dl74T7kgPNPopu4VKLijjEMX/sgSNcEassIctPAehuUoJLsklj4iZNHlJ5IuJZBq1cjEG9XyOel+aQ5UuXJG8qdTOMahukAsMUmWC4k052HSFV9JiFnCQtnQwrVK/2/SLJB3Eh5js8n/ke00vN14x5skPKRUmJgCImSKzW3JTIPZK6XwCABXFZI8Gv19+XYudmh3wkv9nhkJOgFcfLHfKziw6gcoc0rEpNz0INPkhto3qQUClB4muH08HoytfXwelZosSo0dyUCLeEwNPZsKbdvxKGV9L3B2IXVNK+av88TuxbOqfUgdFdlU90LXhN7UPqE2sDFHAlQQpJSY2vScyidrBA80hPNzKoKasxNNgTIMKKcrUh8rgqwzA5WVFx9Bkigph4lDvX/66Nf+78vxSe6k/aLAlmZEcuB9YbvSSVE1eq7ZcUM5RTNJoYKfrkWka+cqRWxSRA+qLh7HA1ydTPrJQIYXVAltE6QvKHqHiRe0P+q4cWzsH/kPHA8lNeWYIn+SbyfJJkwosn8xJwwEUR1WeXB9ScsoXlZBledPYQ31BL3zF6oH6iMZLesboXCI/lElQGk+H8Oweumwqm8SVJxXU75UdX/f3U7+TK1KZ/j+AkqC6ldD7jZ5pjqCf8YwqkzIilOylq9sZ/a9iU7mnMrYf+b6uXX2nkguZc6M/WybKuKy8O4nQpXeiMv6qgWHVVcuD70PGHWNCHf9L+ytzjCd80RjDODsALv9sedWW+/N7Q80OkPFcVrf+3D8qCcTztePt3VuK1erK7HCOU+StznNUy11aOFPSenMmCnr/04JNyTNCz5Wy4s79HadFGPUa6fl0etwvPae0XXQOv8NpPpFSXCt53hyhbAtWJTiz+t6o4jrqtakN9JndeVUSVd2W1Fm5f+bzr55PW/UdRS55NOdzp+eIVFeKKUXtp3kI1zO9mFLyrmGclpItdA+aL6my4zl+eu7J+mNJdq1Mq4XaifO6QS5Q5xDQCEikiCdoJUNhvUtfJqUAJsDQS0M12aFItMaQFvqQlgNLUfoSip1QAqw0iD10fQp2wv4+CsOmPEhlgcAgTVjZ+oDiOnCd1PplAJrrmyAXDX364VTqz/XLWMkmZUutCwWd0weVulJ99UENTGGyiqDI9TTxpolr+qUbtzBBQSkvaR8pa8SqKTnnaVvMgSGp7SV56IPpzyENDCEN9GEN9KECGMMKG6fWma5XmwtNptR+4m0F/XN02kcDRdWMZJl6lQw8tVve1ZFlZj9kyqA651Z2TMl10s9wme+Z40YFeC45lvugVP6V7a+sDnVtf2b7K2qbOubycUfluSolDjLrUvK5XF9XVMdju08lE8pvSzF1bOtTe++b2cesAKbHx5L96jMt6emq9X5WVxZpW7MxmPneVBQdtc+PVL3V65Vs0+PIkbq+XOfwMFbSL+lnXOR5ePI8KPmprg4Z73NV5+J+Ud+5TO5nkguUhlkp1blfZh9nHl9+nKrsuMxz6HOZuh0CoVXmeum2Z967os+l5yhEi7KYqOhw6m+Z55XUk0mLTL2yaj1BvVZN3dYZckFZEVYYnhKmu4pBiEyuVcCyoskPh8qa/TFNGB1DZETZCY3a+bQtyy7Rg8cm8ZRCh8iBzNW8tCKjPpy84pY5SaoIxOmHtySVmepzlN5fmt9ZIRcYsBTULmIoE/yEV+kzTZfT56t1yQS9kwYUIiy4lD6oNRXMtaNemZOkspipHfU/hi+0ChR+kZHIv/ZhoDypoH6Xvqx9fVm3+kydA9UuckHem/Lc1K3nsO71p2JBqBALasDYQ++z2jNOVdTGP+qHFfd3pm5QuW5Z8bkV3ffP3VcnyIXywiZFmfapUVLL/65+J4KBSllT60yz60xzH+VY5Xi10+g+alH3ZW6Veqj3q2jL5ohV5qAtew1uEx9PVgrpOrESllnvjDqkzU+Ve6vHZPz+h3Mz26wer27LnyffK+rTA+9TMVO2bw98nsj7YGWkjgFsFlcNsoJ8O9VysPc6fo5Xx4PMseLoY/Ng+7Lm9EemvDI/H32Z1RwZHNm2ZmKh9Hk9tnisC7ItmUPUeMsFwo+8N+sC5qQNR3YsrJnyVJ5VciVgPasacy9qhzqW0zazXaquxvpSNa+Vef6R/6y+x6vTl+o8Xz2nbNvK1i1zjMv8XJ371Kxj6iS5QJ1Fkw+Kvlk9pYI6W11NytxWBYIj15FqXcuCrLLrl9bPRcFG0hYYB3du+Wtntv/YtLl69S1fT/kucqs+BtTnSs3zXB3Z2RImqKU6xx+fx5SOQcey/Wo/Vn9crz5WjmU75F6H3y+ZWKDn1V7y/j78a0v/iAwFA4IBwcCxxYAyX6st8y9VZ6qujNTjae50fOhYdZJcyFQq6POBB4nMjs+cOB99EGROkg5cT2pLaf1UYqH6Jo2l55YFeGb7j36bq9fO6vSbHCOyrBwDmeMAPWfVkZVKLNC2Oscfn8dkjiPVk+uRkFPmWFm9cf3Y1e1ItE+uUf3+ysSCPLPVl5tgTGQlGBAM1EQMKPO12kYu0FyoOjrT8adjCbnASkdmx2dOnKsDmsMbqDInSdV74Evrd/DkArVHLZn1Vvcd/fZWr42ZdZPPIrNDxwC9sNRSHTlWZpZXnXOPn2P+nPFC7UfaHj+ylrZW1NeZ701bwgy1VHSs7BMMCQYEA4KBmo+B2jP/Otg5UObxx4eeJeTCcUUu1PzBRV4A0keCAcGAYEAwUBUGypILigsk7avqHPlN5CMYEAwIBgQDgoGjj4E6SS5kTjyqt8pFTFKpRUDp52PDMFEdD25ipNSXYi6UDTB59AEjD6XIWDAgGBAMCAb+bAyo7016d1bvPS999mf3mdxfMCgYEAwIBuo+BuokuUATDXXiUb1JBynrlZWjDwK1vgf3wCnEQs2Jnnr05XRw8pH6iLwEA4IBwUBdxYD6jhdyQTBeVzEu7RJsCwYEA7URA3WSXKiNHSF1lgFEMCAYEAwIBgQDggHBgGBAMCAYEAwIBmorBoRcED9N8VMVDAgGBAOCAcGAYEAwIBgQDAgGBAOCAcHAYWFAyAUB0GEBqLayalJvYYQFA4IBwYBgQDAgGBAMCAYEA4IBwcCRw4CQC0IuCLkgGBAMCAYEA4IBwYBgQDAgGBAMCAYEA4KBw8KAkAsCoMMCkDB9R47pE1mKLAUDggHBgGBAMCAYEAwIBgQDgoHaigEhF4RcEHJBMCAYEAwIBgQDggHBgGBAMCAYEAwIBgQDh4UBIRcEQIcFoNrKqkm9hREWDAgGBAOCAcGAYEAwIBgQDAgGBANHDgNCLgi5IOSCYEAwIBgQDAgGBAOCAcGAYEAwIBgQDAgGDgsDQi4IgA4LQML0HTmmT2QpshQMCAYEA4IBwYBgQDAgGBAMCAZqKwaEXBByQcgFwYBgQDAgGBAMCAYEA4IBwYBgQDAgGBAMHBYGhFwQAB0WgGorqyb1FkZYMCAYEAwIBgQDggHBgGBAMCAYEAwcOQwIuSDkgpALggHBgGBAMCAYEAwIBgQDggHBgGBAMCAYOCwMCLkgADosAAnTd+SYPpGlyFIwIBgQDAgGBAOCAcGAYEAwIBiorRgQckHIBSEXBAOCAcGAYEAwIBgQDAgGBAOCAcGAYEAwcFgYEHJBAHRYAKqtrJrUWxhhwYBgQDAgGBAMCAYEA4IBwYBgQDBw5DAg5IKQC0IuCAYEA4IBwYBgQDAgGBAMCAYEA4IBwYBg4LAwIOSCAOiwACRM35Fj+kSWIkvBgGBAMCAYEAwIBgQDggHBgGCgtmJAyAUhF4RcEAwIBgQDggHBgGBAMFAnMOBMWKGWmjA557okS+vkTH+uCXWjOqiyonrx9xpWv4OVU/n2ZLaJfjvY68nxouQLBg4OA0IuyGRCBlrBgGBAMCAYEAwIBgQDf8CAqozZY2Y44hZUphir++1xM1/DWaUsrVCPc1RT2VOPV+tT1WSfjnElbVxXqjPV/Q9FrWcVijQr25Wdz9c0lcikfH2oDiUyiZlhjRphiRhgjRj5syrP8uf9Kd/jFtiiJlipflEjbFRiJoV0yJAP90GclIzKFXS1f+hY5bNCqlC7+Pw0gXGgdh5Mf5e9VimJQ20okXu6TXQs90sl9Sipf0ypP2OgHJbpGKofl4qwVW6fes+y9Tw4ZU3OFXnVJgwIuVBu0KhNnSd1lcFGMCAYEAwIBgQDgoGjgQFSolRli5RiUqbUfZlKl7LPBlvMAkvYCGvEpCj25eZX6rVoS8qsOaQvuZ6jKmUvbmGlvKJ7V9RuVXmkLSmYlrCBC92PPpvDepiCOuj9Guh9GlZAS+qWuXqfPp+OV8+jz5nfWQmnczLOozrRvekcg78Y9pgJXjgRgg9BePkz1ytiKJFvRe042vvUOhoDWrhSdgS4fn544YItSspzhlVDwsp9oGKA21imf9NkStLKRA7hpaS/iIyIW2AK6RTSopK+VtvL/RZVSBj6rPaN+nv5beYxfGzcCoNfyzj0wY0Q/KBW0W9ENpSpV0YbeD/1OWEzrC8hWLit6T4ufwxhqtKSxkoJKZeBk/JtkO8yhtclDAi5kDGw1KWOlbbIQCUYEAwIBgQDggHBwKFigBQpOpesADwhB5yx0tV4Uuj4umnlj451pRzwRjzwxN2sYJYco5re07F8vAXeiBO+hAu2NBHB91KvqR6fXv13xWxwB+1wxktXpdW6lW8b7VeKouDTuZ6AG9FkBNEElTBiqTCAOIAUEojAHjWzMkntJJJAVVZdSStcMTu8dH4inD4/fZ1kmK/pT3lKz0nLwp20s8LpStgAJBCMeVFo3Yd1O37Gpn3rUWTbz/siCMKRTCvwGW0v36aj8Z3aaI0a4Ek5WBY2nxWbC3/Hxt1UvwIEYj64U04mBej+1BZPyAlXxK5YhWQQT/R7idxJZlEbPGFHaX+RXKJWBOJeOGKKBYMzYeNz1LaVnJ/uczrfHbWnrWAqt5TIvDd/TlphDhsRQwThZAj5pn1Yt3Mtduq2wxmwIYpgaV3LWGAouCHyhOrvDbvgSil15Lpl4IL6LJD0IpaMMgZoG0/F4At6EY6FkEjFEEtGlJKKwJtygix51OuobZatjM11FQNCLgi5oEwQRA4iB8GAYEAwIBgQDAgG0higVV5SlG1+E668fgw+++FjVs5UiwNVmXNELfDEnTB5zLjyxquw+NXFSCGmWCZkKM2k0BrDesQRwm333YiXli1l5ZssCNiNIUPZI0XMENAijhi+XvMlLrz8fNiCRHTYy6wol5+c03m0zxrSIwg3ln3wErr3y0Ne7zzkdO2C3G5dkNe7Oy665AKMnzIe3635BsGYB0F4oA8Uw5Gy8flkdRCGH+98/Dp69u2B7j27onPXzujSrTNvu/XshpbtW2LpssUIIQhDQMfneZIOmAN6+FJ22ANmzHp2Onr07YHm7ZqiXsNT0aBZPbTu3BqtO7XBsy8ugh8eJjbKt+NofleJBXfSAr1dg7seugNtOrVBgxb10aBpfbTu1AI5vTpjp2YHHFErrCET/BEPxlx1Gd7/7B0mIwyB4jLWKXRN2kdkzdsfv4GrbroCgZQXpqAWYXjxw6ZVGDVmFMw+UtgdMIfIgsAOV9yWLna4ybIgZEAKcdz5339jwQvPgP7IioCuX5lM+Ddy14ibGXNkHfLZ958gr18esjpnoX7j+mjVoRWatm6CcZMfRRQRWMLkvkP3toOIDnvKCn1IiyRieOvj13DRmAtg8ZnhThJRRsSDggvCJBEUT82ZiBZtmqP3gN7IzctFTvcuGH7GMPTr3w+5XbugR15X5PXqhi49OuGnX7+HH07YI0ZuY2XtkP1CNtQVDAi5IBOpSgfsugJyaYcM2IIBwYBgQDAgGDg4DJBS507aYLQXo12XNnhl+Yus+JESqfrdk2Jn9Gt5/4dffIi//OMvOPOCM+GJOWENm3h+kakY6oMaxBHFWReMwMmnnoRt+7ewGT5dky0H0nMyOkfnLWLrgvc+fhuNWtWHzUvWCPYS0/aK+pNXh+MWWII6pBDB+KmPomHDhpi1YDqenDURTzw9Hk9MG4fb77sF/Yf3wSlNT8Lg0wfi540/sfm8zl8Ee8LMijKQxKx5M/CXv56AGbOfxpOzpmDSjIl4cvYUPPXMkxj/9Dis+vUbkOm9JWLk+psCWnZ92LRzHXoNzEPH7h0wb8lcrPrxG2z4bT3Wb/oFP/yyGhNmjsO0BU/CAyfHOCDT+YracyT3qSvnNoonELdA7yrEoDMGYOCI/vj82xVYt3EtNv62Hqt/+gaT50zE1sLN8CQcsIVN8Ad9aNmqGeYuns0Kv9ZbWKa+mf01Z9FMZHdti2gqAIOviEmer3/8AieccALue/h+hBFGkauQyQVn3AYqpOQTuWAO6Pj6Q88egPv+9x/+bAxqD0guUNvoOMLW828swanNTsa02U9izS8/4dfff+V2vfjqc1j08gIEkj62VmErhbgNjrgV1rgZ+qAOPvhw1W1X4YS/nIA33nsTKQCGALnvKFYU5O7hhwsrvv8Qj099DE/NnYrJMydh9qKZaNy6EUZfcTEWPj8fE6Y+jqlzpmDSrCewS7sNPjjgiJnhyiDQjmTfyrWO/vMjMq6+jIVcEHKhzAtCHp7qPzwiK5GVYEAwIBgQDNRVDNDqvSthgc2tQ49+uXjt42XsSGAIFpeYllNgQkvICDLxv/r2a3DDXTei24BueO/Td3kVuLxiaAhpEIAfY66/Ak1aNMWIUSNg8ZjYPYIsJVRZkrKo8xG5kMBHny9Hh27tYPeR64VCLqjHVbQlxZnIBTp38vQJGDxsMCupRBYkEQVtgRhCcS92Fm7HZVdfisZNG+Prn7+AH24QAUJkB/0tXLoI7Tu3QwIx/k6OFMofqZ1AkNTGOFlUWDmmgC/lwOa9G5GV3RrX33QdwvEgr/ST0qvENPDRnbkOZC2hxjDIJGAqatOR2EcypetQnAlyCXlw0n1soaC0J84WBmH4QJ9IRp6UE7aImd1hAmE/cnI7YcEL8/hw6pvMOpX2VxLPvrgAfYb0TJMLGr4ukRet27VCk5ZNMXfJXLYe0PuIUHKw4u5OpMkF7jfgvNFnYdykh/lexqDugOQCxXOguBa7NNvRpF1jvP/pu3wu9Se1KYYA4yGBKLeH3DxY9jGyeLBCHyRSKIgfN/yEQWcPwWVXX47RV1yCMKIwBQwl8SdUAoysF5Q/wpLy139Eb7z2zqv8haxz1D8fXPwcEbFA2MyUm3wWedRFDAi5IOSCDHSCAcGAYEAwIBgQDAgGymCAyAUPBV906dA5ryNeX/4yK8q6YFEJuUDWDaTA7S3ehUbtGmHrrq0458Kzcevdt7FuRS4PauYIZXW5GEkkMOTsobjn4Xtx4SUX4uqbr0kfS8pmOmYCWS4wuZDEB5+9y6b6Np+Z/eAzSYiKJuaZ5MLEp8ehe68eMFi10LoKoXHt50CORHqYIlqyG+B73/vgvWjSohH2F+3mOARFrv2sgM9bMg/NWjdFgSYfWnchChx72aKC6kar96rJPtXJEtPDGbIip3dn3HDzdXxdst7QuQvY5YIUWCq6QBG0/kJYYgZWmkkux4pcoJV3inPhjTnRd1BvPDXrSa7nfssumANaGAPFLB8KREmkCWW4cERN8Ie8aN+pLeY9N4eP1/jy2cJDlT+TC2lLkwVL56JbnxyEUz7ofYWII4iPP/8QWdltsfD5Z9G8dXNs3LGeA1yqFissg4QZxqBC6pw5ajgeHvcg36s8QaXeU93ak1YU+/IBRPHim0sYK/6wF/qAhvub2kVF7yuCiYKIZsRPUORuhd6vWEw8Pm0cRl1+Abbu24Z6zerj162/skUL9Rvdh+7pTNrYrUPr1UDjLkKxpwjOoANd++dg9vyn2e1nv3knjF4NdN4C2NL9rNZXtkIo1HUMCLkgk4kyk4m6DnhpnwzqggHBgGBAMCAYODAGSskFPbrkdcbrH7xSSi6kFS1aMSYf+dnPzUTewJ4cI+GZpXOQnZPNCr036SxRwEmBJKsH+ut/xgA89PiDMDtNOOG0E/D2irfTiqSuJJBeKbnwHtp0agl7BrlQpTIet8Cctlx44ulx6NmnF1x+OxwRC7tUUN/TqjURAlpvEcd2oJX6YWcNxS2338j1yHfs5e28JfPRPKs5TDYTr14zmZAmAxSFWCEGTGFZ2c5qAAAgAElEQVRSTuOYOnsSOnbPhjfi4lgFBm8x3BS8kOSVUcj1whZXsmpU2ZYjOEel+lKfUmBMm9eEnn16YP7iuWzNofcWKfWkoJlUz/QKO2cJiRC54EN2p3aY99xclkvV5MIz6N4vF5E0uUBWA1+s+hz/9/e/wOlx4p5H70ZOz84IIQBriLKLqBkcSsmFs0adjkfGP5TGRNVuEUwu+IlciGHhC3PRtktrOLw26ENFHLSS5E9FdUnI7DdqK7m0OOIUNNSNnD5dsOSVxXzf5h2bY/q86UggAZ2/GDbuCyX+ArlJUBwGyqpBbiYRhNB9UFcsXKrIR+8tZGsFZ8IMZ1JNy3ngZ07GJZFRXcCAkAtHcOCuC4CQNsjAJhgQDAgGBAOCAcFAxeRCAvq05QK5RNhiRjah7zG4Gx6Z+AgrZTv3b8NpTU/F8pXvsSk6kQSs0CWVoHl00PCRw3HTXdfz8XOfn43GzRtj295t8CbdnCaSIvVnkgtZnVuVkAuUKpCUQiUCv9pPFKBPichPW9UtYkIJueBQghOWc70gM3eyQKC/Z59biDYdWsObcEHv13K75i+Zj6atm0Gj10Dr06DInc8uE7TibghqWQmntlH6TXJ3yOnRCROfnMDX03mKQAEeXayIqvX8c7dEqpAlALmM/OuS8zHqkvOVunqLYAzoQO4JajwNkiOTC2y54EN2x/aY95wSZFHjK/ij5QJbmqSw4DmFXFAtF2II4vNVn+PEU/6OXXt3sCLePrcd7rz3Dr631lWU7k8zB4CknRWTC0oflx+b7AlyayhCFH6s/ulLnNr8JBSa9iOBMFuaUNBI6gcl24iSRYSxkrZgMAX1XCcKHNqiU1Ns27OZ6/XAxAeQ0zcX/oQfNiKsooZ0ylGyYKAAj/Y0uWBCFOFy5EIBkwqOBMUdqbje5dsh3//cZ0Pkf+TkL+SCkAtiuSAYEAwIBgQDggHBgGCgDAaIXOAI/i7VcmEZK9ykWJMSagkZEIUPazetQZvObfD9hh85MJ8/6cYNt1+Hf40+lxU8sm6wxc1sVk4R+elv+DlDcPeDd/JqP2VluPXuG9FncG+EEYIuUAxrzFQSc+HDz97j1WjVcoHIBVpZt8doa4Q9ZoQ9Y0sKnUouPDF9HHr27QV3wAlnlFaalSCTiiJhAq0sWyI6DsL44/rv0a5DO6z59ScmOSjjxYLFC9CmXWt4/R6OK0ExFmIIs4UGxVGgdI2WsBFhBLFu+1pkZWdh9c+reVXeRC4FaQuPmqK4EClD/UExA9Zs/AGNmzXE4xMe5fgY5N6iceeXWHdQncktwp4mF9p3InJBibmg8RXCnvG8EMGikEGVkwun1j8F23dtQwAe/L53E5pmN8Oy9xVXG1OgEO6UjQkOhVwYgUfG/4+xYgxRZgoz97EzTjEglELZIYgsISyQFYopTBlCPBh73eXIzmmH/abdnL3CEjRwBg+Ks6CQUmn3BkqfSvJgq5MUxlx7Ka6+8UruZ8L3uk1r0bh1E872QPLShzSM4cx2E57IAoVijnQdlIOFS9MxKbwKoVZT+l3qceQUZ5HlgWUp5ELG4CiAOTBgREYiI8GAYEAwIBgQDNR9DFRNLjig81BgQODuB+/CWeeeiSTi2GvbxW4SFISRMjFojPnwwgFr1KSQC2m3iNPPGYp7HrqLzy92F3Dax64Dc3D/4/fzPp1Pwz7y5K7w4cr30TanNVsukHJIiiQplaaQFqZwsbKlz+lCpIOZV+eTmDh9PHr17c3kgqsCcoGICGtUz3EWCoz56JjTER9+9gEiCHBgw3nPPoNGTRri/Q/fw4rPP8KHH7+PFZ9/go9WLMeKrz+F0WuAMajnQJevvPMSWrdtBZ1DCw9cnIFA9dOvKc8LkQBkrWFmgiGAb3/8klM0nn3hmdi0YwOTR/aIucSVpSy5kI1nSsgFyqpR+gxUh1w4pf4p2F+4D+awgeMtvPHRMtRvehp25G9DCF6YwzpOJUkAOGvUmXhkfDqgY5pcIBKI0qBa0oXaYAxpFTKE3BtiJg74aXBoccV1l+PUJidh0dIFTJzEEIHRp1MCM6pxPdIBLim9qd6lRaeuHfDme6/x8UXOfUzAnH/xubjxjhsYk9pAIaestCdL222LGjPIhdxSciFtrVNT+l3qUdpnIoujLwshFzIGRwHc0QecyFhkLBgQDAgGBAOCgZqPgfLkwhsflFouOGIW2EJmuGMu5PXpgQmTH2dlfLtpC0xhAwqNBWjToQ0mPjWeTfBpVZkUbV0mufCgQi5QkESyXvh1+0ac2vA0vPvJ2yBlcI95Byt1H36mkAslAR0jRs4MQBkPlMwPfFj6vxT/ZuJsD6XkgifgQmXkAgXcc5OC6SAFsxOWr3ifzeSpTvOWzuEUii1bt0SDxvXRoFE9NGneGKc1OBVtu2Tht52/wRI2cTaJhS/MR8s2LeGJuTgDAinfNY1coOeOiADFgqGYXTnIjeWCy85Hg6b18cjE/8ETdsAdszPBwEROOuZC+47ZGZYLB08ukOXCvoK98MOLAsc+tlq55qZrMGDoQESTEVCf6XyKi0omuWAIauBKWtgKJrOn1c9kSWIj14OUjQkGe8yKKEJY+tIiNG/ZFENOH4RfNq5h0sAUovgKaRlQ+kq2WgAWPD8P7Tq3gc6mgdFfjD3mbSDLlamzJqNZ++ZwhBwwE5FAOkOGNUpZywUhF2Rcr/nj+rHoIyEXhFwoYwZ5LEAn95DBRzAgGBAMCAYEAzUbA1WRCxTgjiwVPv7iA7TMbgGzy8SKfgh+Ts9Iit8Dj96P3gN6cdYFxXJB9fcH2HIhTS6Qmb4+bQUx89mZaNKqCbTWIlj9RlZ+P8qwXLDFTHAnbfhx6/cYOKI/ho8YjKH/HIzhZw7FsBFDebtx2zo4IiZWDifOUCwXKiYXFPmTAk1pDPP1+9ChSwdOfRlGgE3q5y2Zg6atmmF/cT6KrIXYZ9yLIlsB8m37oHEVciBAyohBfwtfXICWbVrAFaH0itYSV5CahnOFXLDACQun3bTHLBzU8a2PX0Orzi2R2yMHGzav5RSS1LZStwiyXFBiLhT7qiIX5nJARzXmAmWLoJgLpeSCh61SLCEtvHEvcvrm4N7/3cMyLHLuYdLhzFHkFqFYLlBWBlfUjrsfuwv9hw3AiHPPwvARp+Ps889GzwF5mDjzCSYTTEEdW2VYokZQ+kpKqamzFOKm269F/Yb1MG3eNEQQYfcJIiOI/DGHtYyT80aPxN0P/Yfr4EnZ0xhOQu/QIatDFl56g9w3AFPIALJ0UPtUyIWaPYap/STbY9tPQi4IuVAySMrDd2wfPpG3yFswIBgQDAgGaioGVHLB4lRiLrzx4WtMIJDCaQjqOM7Av++5BYOGD8DGXzfg2+9WY9UP3+Hb71dj7fp1mD1vDlq0aoEf1v/APunk264EEyxLLnA6wjj52yuBBi8Y8y+cPepM+ONutmhY/uk7aJuTxW4RFESSfOc37l2HG/9zA267+xbcctdNuPU/N5eUzXt/hT1sZPeMiTMmoFffXqiMXCBFmzJAkJXCtz9+jbbts7Bl7+/wxB18/rwlc9GibQvYnFb44IUr4eCVdx/c8MDJZvhkmk8ZM976+E2Oz7BPt5uOVFbRM1a5a0o/q5YLjpQFVEwRHSj1JCnjjogVl115Cdq0b4lC3T7YwyaYAzolFWXH9pi7RMmGQORCZnvIEoJcWShQ5Pylc9Cjf9cyqSjLkwuEA0oNGYIPv+3aiHpNTsPKbz7h7xQ34ewLSt0idD4tHFEbZix8Gjfcdj1uv/ffuOWum3HH/bfjqluuxKI35nPMDDWThyNlhTVu4lSUnoSdSYG33n8TJ9c/GeOmjed4GcawAfpgMRMoGzb/ArJMWfzCYqzdsBarfvoGP6z9Hqt/XIXtu7ej/5ABuPTKS9n1xRKimB1KulRqv7hFyPid+RzIZwUPQi4IuVDmBSEPhgyUggHBgGBAMCAYOL4xQAookQsU8K4suZDgoH9euLF9/xa079QOjRvVR/MWzdCgcUM0aKKURk0boWVWa3YpeGTK40ghyQH/VHJhOMVcSFsuKAEiHbBGDLBFDNCZCtC+Uxbuf1hZzX5j+TK0y2kLm88Ed8rOPvY+uNgigjVH/k91kUjCByfMTFSobhGl5AJZKWRim7NFeMgUP445C2eha89cVrL1XlKUk5i35Bk0a9MMOhPFdzBwSkJygyDZUCYFuhZd0w8Pdmq3o1VWS7z3yTuswBpCujIm9Jn3/TM/M7mQsrLlAlkvOFOKm0CxtwDOmJWlOfTMIbjlzpuQQgRaTyHC8QD6DuiLKTMm8e9av6aMHBVyoYhlNnvRDPQZ0hOUglLvK4RiubCyxHKBAjoSDugcrTef3R3mLJiJNu1bY7+WUoDGccZ5w/HoBCX7CMW0cCUVsqe0v0s/UbBFCqpIfUnFkSR3FIrxYeZgjYoLBvDqW6+iYbNG2Ksj1wwfCt37EUUAM+ZPY5w2b9kcTVo04WMaNWsEKs1bNUf9hvXRtmMWNu/YxISaOWTguqt9XxrQUdwi/kxcy71rzjtLyAUhF8q8IOThrDkPp/SF9IVgQDAgGBAMHGsMqCvbZGZO/vH7C/eiSctG+GbNl2xCXuhU/OWXLFuABg3rYf3Wtdip24bfCn7FNu0WbNdtxcbdv8DkNeD2B/6Nbr26wezUwxW3QuvZz1rhsHOG4j9pcoGyQzgTdrhSDhgCOrZy+GH9apzwfydgw7a1+H7NKjRr1wQOv4UzCpBrBCn0Om8R9Bz4sRh6HxUN7yOln1wtiByYOH0CevXpDW/ACXc6oKPaPlJEScm1hhX3ix59u2HqjClcv3yHUs8Fi59ByzbNYLYZOfWlNaKDM1kat4AUZLoe3ZOsFwaePgA333UTX0PnyedYAeox1I9873TMA3U/bY9lH5fUgQiGdDpGuj8RN2pazqkzn0Ru9xxWvknOZNVw6RWX4sbbKX1oCsYgkQtKtg3lemYmEqjhD46/H6efPZzlr3Hv53NXrlqBU+qfjH0Fu5mIIUKJzqP7UowDsngYdelIDD27P8tuxL/OwIOPPcifyUqGjqW+MvgKYfQV8pYsHyhDBfW1KkO1Peq1iRyjvjEH9DC6dOjasyveeP91tkKg+B/ukAtd++Tiv4/dD4Nbg193r8Nu3Q7sKt6BrYVbsEO7HVv3b8apzU7Gsy8u5DaR5Y7SZitnH6Hgokq2iLLkAt37WPar3EveFTUFA0IuCLkgg59gQDAgGBAMCAYEA4IBReGLKykIi9z7QRYK635di+btm2J30XY2P6cV7gQi6DusJ+64+9+sADqTNlYaKVVjkJwCkjZWGCmOwd/q/RUfrnwPCYRQ4NjNxw89Zwj+w6kowUEenUk7qNAKtTGg52Mef+oRXgF/+8PX0T4nC2aXAW4olgtqCkJlMm2FI56hyMUtafeLJMgtIq9XHqwOI8xeHa/CG4LF0AeKofUVgtIU0t/dj9yOvEG5CCQ8sEat0KRjQBC50KJ1UxTri2AIFEHj2QdDsIhN7klBNpJiS1YeET0i8GPFt5/g7/X+hjUbfkQSEey37mLll36nzAvmiJ59/un+9JmV4mOshKqKt4GU9UAxW2FYwkr9NJ4CxBHBtFlPo1f/Xqw0F7n2M3EyY97TyO7aDuFUCFpfPsuDMjhYIkYYAhpoPfnwJ7wYfOZAPDmTSJokiIgirKxc/SmTC3szyYU0sUHKvytug81jQtN2jfD8y0tw2TWX4L50HAZyOyE8sUIfN8NFhYgNSkvJwRlLyR4infQBjZJVIm1dQiRZsbsQZp8R/Yf2x7J3XuEAnIS3b9Z8g3rNTsH2vb8zcUbpLclVI4QAx11wJgjHwM1334DBpw+EN+SCPWoBxXWg+hDRRYVSkXYdlIuFS9KpKClbxDHu15qiWEo9hOQQckEmEzKhFAwIBgQDggHBgGDgOMZA5oovrWDT6nxR2srghdeWomNuB179twYNrAhS+sBmrZrgk88/RARhFHny2a2BFGhyGaBVZqNfh0gygDPP+yfG3nAZkw0aF5m9p3DG+aeXBPHTs4m8Qi4wyZCw87mhlA/nXTQSrdq1wIiRZ0BvpawBNlbmqlRg4haQQknK7eSZT2DgkEEcfDKJKMdWoOwCZGVAf2aPAVfecgXa57bC3uId8CScMAT10KcJjkVL56NdxzbwBz2Iwo8AnIjAx6kqKV0lKaGKEknBKjWstN58z41o2bYJduRv5XsQIUIm+ta4kbcUqyGOKAerpHaosq+yTUcIm6ygUzrKFMUiICmE4UoROWNUUmfGFbeIsTdciTHXXsH1z3cpGR42bV+PUxufgqWvLuX99qQRtpge1pgZ1piR973/6Tto0Lwe9hWRhYIbRe58buvnqz9Dgyb1sK9wDxNW+oDiFqG2mSwmmIT4+lN06NoOHbplY9rMp/iaFJxRVdSJTHBxMSkkA31Op9ckwomIAfqje1NbKUYHpa+kvx/X/4BmbZtgt2YH3AkHY+Lqm6/B+Zedx7jQ+gpAxBNh2BY2sUULkSN0zVU/f4WTG52ITTs3MorI5YXJBUqxGjczudBreA8sfp6sGwAOhJm0lknXqbZVtqJ813UMCLlwhAbsug4UaZ8MhoIBwYBgQDAgGKibGCBFifqWlDhb2AiXz45wIozd+btwWqNTsfSlxewLX2CjaP7AnffegQHD+8Of8oF80GnFt0QBTAe8M3CAvxheeft5nNzob+waYQwXc/yFIWy5cDdfi8zT2WohYYM7YYUnaYM5bIAjaUOheR/a57RFbtcucARsoMwGtFJMCp2dIv4nzbAlTPy5BJtELoR0rDo/MXM8crp2we9bf8P639bjx40/YdXaVVj04iJcevWlaNupLQaOGIg9xTtLggJSSkNa1Sfle96iZ9C4WWOs27gev2z+GT9s+A5rf1+DXzavwc+//YTf926CM2ZjwsUeMcMeNrP1wzW3jsVJp57IbhbFxiL4gh4EIn54Am64/E68v+I9LH3tOfjgYQWY0iOW1P8ozktJ0Q7AjT2FOzDmxsuxev0q+CI+eEMeuP1O2NxmPD7lMTRu1wTbCrbBl3JxwEuycIgjhMlzp3B8gllL5sLqt8IbcsMb9MAdcOLlN17EKY1OxcIXFrD1AwXoJAsNIlJWfkuWC//AvgIiFzy8X8ULB0hMWmFkvCTxzHOz+R7zF87hPmC3h0pk4mRXE8r6oAfFXpj36mxMmD4OFreJZe0P++AJOfH9+m/RtkMW/n3vHezqYY+aofNo0Lh1I7y47HnGIQW1pDpRcSUoI4SNLRQo04kn6kS/If0yXHk0IGsdyhZBWIwghNyBXcRyoZJ+OhbYlnscmzGkOnIWckEehGPyQqsOGOWYmjMwSF9IXwgGBAOCgeMHA6RQkYk/uTR8vuZjNMtuhJxeXXBK43/gzntvhzfkhC1khC1ihC1qQV7/7pg2dyorZeyDXs4EnK5nDevhSzpQoN+NvP7d8NJbS+GHC2Q5cObFI3D/o/cp54doFdvBWSCIXKBC/urF3iJOkfjRl8v5fJvfAg8cFZILRDBk4pWUTfKDn/P8bJx06t/RtGUjnNrgHzit4T/QsFl99OjXDZdeeQlefecVJJHg7BBkbeFK2Xi1mRTaGEJY+MJ8/PUf/4cGzRrg1AancDml/imo16geaJs3sAfMXlrpNnMwRAeZzPuNvNq96IUF6Ng1G41aNUC7nCxkdWqD9t2y0S63Ldp0bo1FLy+EN+ViS49jRS6QCwKt/mvtRbj+9mvRqG1DtO2Rhezu7ZDdvS0aZTVAz4E9sWrdKvjhL3HdIAWaXDvsMTueXjQdTdo0QcN2DdG2Sxa7SrTJaYV2nbLw0psv8sq+Paw8O0TSUH9/u/ZLtO7YEnuL9rD7DFsjpAkt6je2PohbYQkYuM/PGXUWJk8bz/igLCOEp8z+zfxMxBj1FwWK/HD1e2if2xYtOjVHx57ZaNs5C227t0GL7Kb47+P/hTvsgtaVz1Y0i16dhz6DekJrKYInbueUm1QPuh65QxC5YKcsGAGKCZHCrGdnoHPfTkwIUTYK1XKB6kLkQq/Te2DxCwsUTPsUoiKznvL5+BlPj/e+FnJByIVKB+zj/eGQ9suLQDAgGBAMCAaOBwywohRTIu5r3fl4+d0XsPTV57Bhy3o2/SelmUzM3Uk7rCEjdu7fBqufXCQqxgddjxW1OJ1jxd7iXcg37oYzZeXAgXuLdkNjzOd0jjZefbaXJRfSSh6tDDsjVuTr97KpOin/dG3qEzuVtOVCJrnAv8fN8KSc0Do12Lrzd+wt2IU9+TuxJ38X9hXtgjOkmP9TIEGKu0C++qoCS+fbyZcfduicGmze8Tt27d+F3ft3Yzdv6Vq7sWvfTuRr9sMVs7PlAsUN8CQdcMQssATJTSABu9+CH9f9gDeWv45nX3gWb3/6Lr5f8x2MVj27JNCxdD+1TUcba9zGOJE0do6BsbtgOz755gMsfnUhXnjrOaz6+Vv4YkrMAc52kSIlm+pH/U8uL1TvEIqM+7Dyu5VY9OJivPTmS/j6hy9hdVKbYyxPUsyVflACRZr9BmzbuwX2CBFHNihkStpahoJJssWKA4Qzd8wBrbUQxZYCeOHkY9W+qUg+LD+yuIma2F3FGbThx/Xf442PXsezLy3C8pXvYX/xPo6pYI8Y4Iga4YUDReb92F+0m11dnIRtIrbiVu5Lqr9KLjA+k3ZYfCbs2L8dlogJdnIlYdwqfedJOLCnYCfMdj0oTak9duz6tCKZyL6KxyWRy7GRi5ALQi4IuSAYEAwIBgQDggHBwHGMAVVBIyWSFDqKV0B/tCJLbg+0cq0qeBRDgCwc1NX2ihRjvh4pX3GFlPCmnOwHzwpZ3IogPAjAxYEYKVOEWkhBd1PmCFLu0ibqRGpQ6klWSlWFLv1b5fdWlDuqK/nf0/m0JcsJPxxwJkww+ItgzMhaoCoe1E7lulZ4Ug4E4OVVcTLnpwCXVCj1JBVaLae6Ku1VziOrC/pOZvbUHoolUPpHSTljdBZbLKiBCtV7H4sttY8tEUJaBLmvo0yE0Oo81c0etcIcMsKVtCsxA9KyVrMfkLsDyVKNW0FtSyIOd8oJ+k1tkyoTahPJiGVFxAL1YTlLBPpOZBS5xJCiT8eXEAtEbpQ7vryc6F50X06fmlBlTulJ6S/FfUhxOAizjKO4hTFBBJQ9SqSa0md0HZVYKN3a2UWHfiPcE6bUNihtVAgi+s2XdMFFbjKE6QPUuXwb5PuxUXxFzkdfzkIuHMeTCXnAjv4DJjIWGQsGBAOCAcFAbcEAKUQU04DSD2p9lBWhGLYMYkFVmMgMnZR+RRn7Y/+y0pWhsJGvP5vkp5VIa0gPW8SQJgxI4bTDGScLAIVYUK9LW1KEyc2BZKjuJ+JB+f7HeyuyVhRSG2UPCGlgCBVzsD5TUANTSANLVAdHQiFMSq6ZMR+kfSyLqIkVZk6DSNkV0oUDVga1bI5fpl5pKwT1fFJ2yW2E5MmF0if6qQ7p9vxJCiiRSBTEkWSh8+VD5y3gtI56fzG7vVDWDsU1QJFveRmRok7tIoxoqW1+DcwRA8tMxQjLJU1MUB+qyj1ZQih9VNp3dH0XkRBxxS2GgipmWpOUP76i7yxzztyRljnVzVOopKskYkElNcgqRU1RGdIrxFBJP1RELhB5ZOfngnCfaXXB10z3uZl+I8uLhCNt/VDavorqK/tEPnUVA0IuZLxM6monS7tkABMMCAYEA4IBwYBgoDoYUJW00m1ZufH+DOKgOtfMPEaN+J+5j1aJnXElMGLZ/el7lyh/ZetS4bHl5nXkMqEEfSQ/eYrNQMX8BwX3QNdSgweyYl7uHpWdWyIrlQw5DLlVdo9D2c9tSRK5QqU0laPS50owQ2XlvmJ5l7RLJVOOQLuULBBKNoiDkXHZ9qctENL1UYNFEpmg1rns8eXbVzG5UJUs1OvRPcjqRrG8Uawb1N9kW17O8r0uY0LIhWq+IOoyCKRtMsgJBgQDggHBgGBAMFAdDJCSRoHuuCQsIJ90tVAcBPUa9Lmi/ervtXt7cARFpixqQrsVEoFIhdL+qgn1+jPqkNk3mfj9M+oi9xQ81gUMCLkgA2vJRKAuAFraIAOzYEAwIBgQDAgGji4GVNKg/DZTOavbStvBkQuZcsqUkeD06OK0OvKt2zj98+VbnT6QY+pWPwm5IOSCkAuCAcGAYEAwIBgQDAgGqo2BTGU583Om4lzZ/rqhSKjuFbQ9sGJQt2Vx4PZXR0Z/1jFCLtTu/vuzcCP3rRw3Qi5U46UgAKocQCIbkY1gQDAgGBAMCAaOLwxkKsuZnzPJBcIEfS+/73jFisii5j4j0jc1t2+O1/GiNrdbyAUhF6rFutdmkEvd5aUhGBAMCAYEA4KBI4eBTEIh87MQCUdOxoJXkaVgQDBQGzEg5IKQC0IuCAYEA4IBwYBgQDAgGKg2BjIJhczPQi6IMlQblSGps+BWMHDkMCDkgkwmqj2ZkAfvyD14IkuRpWBAMCAYEAzUZgyopuSZ29rcHqm7PI+CAcGAYODwMSDkgpALQi4IBgQDggHBgGBAMCAYEAwIBgQDggHBgGDgsDAg5IIA6LAAJAzf4TN8IkORoWBAMCAYEAwIBgQDggHBgGBAMFDbMSDkgpALQi4IBgQDggHBgGBAMCAYEAwIBgQDggHBgGDgsDAg5IIA6LAAVNvZNam/MMSCAcGAYEAwIBgQDAgG6gIGrHAmrHAmla30aV3oU2lDbcOxkAtCLgi5IBgQDAgGBAOCAcGAYEAwIBg45hhgMoAIgYMoFSlbdL4jboEtZkq3wcpbIhpovzVqVL7TcQkr7EmlOBI2OBOOdLErxASdI1gQGQgGDgkDQi4IcA4JODLoCpMqGBAMCAYEA4IBwYBgoHZjQF3pp37M/MzfSQGPmVlhV5X/I9HfdC1S9s1hPSxhQ8mWPle32ONmJgnK18cSMTCZoLZFJRdsUSIdrAmWsbkAAB24SURBVLAzsWCBIVSMYl8Bin1FKPZSKYTWWwidrwi2qBEuIiHIAiJdbAkT7AnzHwoRF1S4PunP6r7MbUl9mNywlFyX6ye6iOgidQgDQi7Uoc4sP8DK99r9wpf+k/4TDAgGBAOCAcGAYOBoYoCUW1NQB2vECFeSVvFLV/xtcRPvdyftrPypCvKh1kdV1Ol8V8IGT9IOb8oJT8oBT8nWAU+yXOHf6RiHcnzSDmfCVqZOVDdX3AZf0sXtICKBlHu6J+13B+kcIgxssCctCMCNJKIAkumS4C3tC8AFV1yxcKC6GgIaaP2F0PoK04QEkRIF/J3ICL2/GIZAMfR+TaWFjrPGTFw3sq4wBrQlZI4QDPKMH+ozVRPPE3JByAVhCwUDggHBgGBAMCAYEAwIBo4jDKhEgSViRAwhhOBTLBTS8QrMEb2i9Ccc0Hs0cKcU5fxwFGFW7uMWuFI2GN3F0JjyobdqoLdooLMUQ2sthq5c0VuKYbAU8zF0nNZcCI05H7awoqiTckXkCNX/y18+w52P3QZH0AKyVNB5i3j/mq3f45wxI7BXv5Mxbo9Z8N2v3+D1D1/Fmx+9hjc/XIa3Pngdb3/4Bt779C3s1exEMOllawRnygqAiIeq/pJIIFbVAfybPy1jH1xMbJCVBfdDOk5ETVQUpU5CfBwsBoRcOI5eJAcLDjleBhTBgGBAMCAYEAwIBgQDdQsDqkJLSnkcYVawJ80ZjzD8MAS0KHYVIIwAEojipv9cj8XLnkUScXZfOBxygXBkDOkQQxj3jbsbrTu0Qq9BeejYKxsde3dApz6ZpSM69emITr2pdOCS06czcvt2QY++3fHT5u8RhA+GoBZaXxEr729+8hqatG+IQMSHAHwwhfS8f9WGb1C/zSko1hfAmVCsFoadOQQnNfw7BpzRHzm9OyO3Tw56D+mJv/3jr5j77BxuL9XVFjTjzv/ejtFjLsKlY0fjkrGjMXrsxRjN29G8//JrLsPVN16Fiy69EBdffhEuviyjXH4RLrliNEZdOgrfbVil1POjVzFl9kSkSKYBPdwSgFKIzTqkjwq5UIc6U17+devlL/0p/SkYEAwIBgQDggHBwJHEAJEDRC5QvANa7f/5tx/QPjcLP/yymr/bo7RSD+zYuwX/uuxsnPC3E7Dw+UWIIQJjUMtuBodTH11Aw9c/d9RIDBg0AJt3/I4PvnwfK79bgc+++xSf8ZY+ly0fffUBvv35G7z/6fuo37A+vlrzJaKIQOvXcMwEd8KBl998AZ17dURBcQGKHIXYUbwNjogVH3/1Mdp1y8KmzRuhce1HChEMP30YHhn/MNfF7rLB4bbz5/MvPh9TZjzJnw0BHaxBM/7z3ztx2ZWXYey1Y3H5VWMw5uorMOaqyzF6zGhcd+v16JTTEf/3f3/BdTdejyuuGoOxV4/F2Guu5HLFNVfhyuvG4tIrR7OsI/BAZytC78F5eP6VpQBSMAe1aVcOwfrhYEvOrRn4EXJByAVhCwUDggHBgGBAMCAYEAwIBo4DDBCxQEEaKTghWSf0HtYD8xbPVZRpnxaF+kJMmT4R2d3aYsmyhThj5OmYOW8GxyMwBnWHTy74FXLhoksuwnW3XMv3PZj/gpEA2ue2xze/ELkQZMIj37wbg87qixZZTVG/aQN07J6DrG4dkJXbHtndO6FVh7Zo0LwhmrdritsfuY1v16dfbzzw8P2s3Bfa98Ho0yEIP4affTqmzn6KjzEG9XDFHZVWL44I/zb56Yk4/axh6eMohkPFf37YoA8U8o/frVuNznkdoTHuRxBuDmRJfSMKcs1QkKUfDr0fhFw4Dl4k8oAc+gMishPZCQYEA4IBwYBgQDBQVzDAVgshHYAYFr+6EENGDoQ35oYtYoHersV5Y0Zi1JhzsW3376wE9x7UGzPnT+fPmZYL1VGE6Rj1OHWrC5ALQxIXXHYBOuZ0wJx5s/Ho5Icx7snHqiyPTnoYk6dPwgMPP4D6Terj61++RAQBDqBo8GqwX7MX02c/jXa57fDlt1/h+zU/YOVXX2DDpo1YsHgh2nRug48/+whb8zczoTBo8EDc/cDd7KKx17QdRY59cEcdGDJiKJ6cpVguGMMUdNHGVh7GYDETGSQDsjQwhbTYZ9uFJGK47Z6bcc5FIzgUpMa1D6ZQMbt/GHlL59F3DWwxA+xxI1+HBHrljVfg3v/ezfUhdxQ7ZZsQvURkUMsxIORCLe9AGYRkIBYMCAYEA4IBwYBgQDAgGDgQBhQF38qr5BSkcNi5QzBt7lQmDkwRA6wRM/YU7+Y4DKS4W4Im9BnaBzMXELmQZKU4M6OEkmrRzIEPKRVjZilJw6imuEyvyhO5QLEGLrjiAjRu3hjX3nQtzrtkJP512XlVFjrm4isuwnkXn4vTGtYrIRcoC4PRW8xtWL5iOTr17Mif6T9ym6C/LXs2o3WnVjCY9XDGHUghhsFDBmHcpMf591DChTiC/PmcUedg4oxJ/NkQ1sCRVHBFsRoUlxIL3JSZImGFzqdYIdx81w04+8IRAOIwBYvhTJjSpIoZziQVJaUl9Y9CLhSz1cV3P69Ghx7Z0JqK4YUb5rDhsC1DDoQB+V3GiaONASEXhFwQhlAwIBgQDAgGBAOCAcGAYKCOY4CUXHNIz6v1P65fjS69OmNP8U74KLVj3AIv7GyibwgUQe8rgh9u9BnaG7PYciHJ6ROJXCDiwBI2wBI1wBzVwRTV8ZY+q8UaNYKyIXBGhGRpWkeKkUB/F4y+AFddfxV/Ppj/vD4vsjq1wddrv0QcUeh8Ghh8GkTgxxvLl6F5VnN89MlH+OSbT/H2x29j9c/fYs4zs9AquyV27t0BrU/Div0ZZw1D567ZuPWu63HhmPNwyZWjcM3NY9G4WWPMWjQbKSShCxbCHNVzmywRHahYIzrYIjrYI3oUu/ayBcgtd92Es0aNQIzq4y/k40qOj+phJeImauS0nrb01hG3wuV3ot8Z/fDKu6+kiQmdPIN1/Bk82op9Tbi+kAsCYhnIBAOCAcGAYEAwIBgQDAgG6jgGiFyglX76e3ruVPQ/vQ+b5FvCerg40CORBnqYwzomG/zwou/QPpidJhcMwWJeyXembIgixC4BccQ4DSNty5YoK9sRBDlDA630E4Gh8ylWBv+68HwMHzEM23Zvwao1X2HNhtX4icrG1fhp/XdYveYb/LTue6zZ+AN+2vA9Vq39Ghu2rMPKrz5Do1aN8NXPXyCBCJMgRn8xkohg+cp38ZdT/oLu/XugY9+OaN+jPboP6I6sTu3RpmMbFGj2wxDScd3POHMYeg/sg6fmTsFdD/8b90/4DyZMfwyt27XGzIUzkEIC1piBU0ZS1gwqFGOB7kk2EWT94E05WZY3334jxl47hj9TkMwkHx/h44kAifM/klMcAbjhiJlh8CtyuPexe3DZtZfzuUTYkPVHTVAQpQ5i4XCoGBByoY6/SA4VGHKeDCqCAcGAYEAwIBgQDAgG6g4GiFwo9hWwInvHg7dhzLWj+bMhUFxiuk+WCbTK7ohZ4UcAfYb0xRwmF1Io9ubDBRu0Lg0uvOICdOjUAXm9eiK3Wy5y0kX93C2vGzp07oB/338bwkk/rGE9HFETDH5KfxnFdf++Giee9lcMHN4XnSjwYk4bZOdmoV0ubduia68cdMztgPY52cju2gHtu7ZD5x6d0CE3G41bNcYPv67imAsmfzGMPrKGSODNj95A267tsCd/Dwem3L57GygTxPJPPkSrzm2Qr9kPY4TiTaQweOhgjH9yArefUnCSSwP9nXPh2XjsyUf489frPkefAb3QtXsuuvfsjpxuOVyojVS6dO3C+xs2aYDmLZqgZ6+eyOnahX/LpWO753Lp2qMbevTKQ+dunfHOJ6+z5YTGuY/vsfjFZ9F3eD8mLxwxC2wx1aWi7uBOxpDjqy+FXBByQRhSwYBgQDAgGBAMCAYEA4KBOo4BUlyNIS1iCOGci8/E5FlPsIKrozgB6RSVtLVFTSCzfSIX+paQC0no/BSDwAZzyICFLy/A45Mew+Snp+CJqRP/UCY/PQmPPvEI3lj+KoIpN+wRI1xxC5wxGzxJB7SuIuw17sCPm1djS/5v2Fr8GzZrNmGb9nds0fyOr9Z9gU27N2KHbge2FG3BVs1WbCn6HZsLf8O2ot+hdRWClHG6psFL1hhELryOjnmZMReINAA27/kdLTo1R74mn8mFJOIYOnwo7rr/TgQTfuw0bsF+2244QlYMOXMInpg+ns/bqvkNT816EpOeegLUniemTcATT03g709MnYDxU8Zh3NTH0bptS5x08om476G7MeXpyZj45ARMmjYBE+kc+v70FEyZORWPTxmH9dvWsOuJ3lvEFg7LP1mODnkd4YhY4Ek5mNihPhCF/PhSyOtSfwu5UMdfJHUJrNIWGWgFA4IBwYBgQDAgGBAMHBoGrBEjm/p74g4MPqs/Z4sgLbqEXEgHHixDLgxVLReUgI6OpBX2JLlFRDguASnqFZcE/x5DmN0hXAkbqLiTDpiCenaleH/lu/jnecPZfYC1ecR4Qykh2+ZkYeOWDcruSv4niwMiF8gtIoUo3l3xDuo1Ow1Tpz+JJ5+ZhPFPPYK5S2bijrtvR6uOLVGgyYchrGWXhyHDhqRTUQLF3gKOIUF1Pf2c4Zg8QyFdCGcH+rO4jejZvwcaNKmHtet/PtDhnFHCETez+0kYPqz9dQ3a5LRBvnkPgvAqMSokJaWQK7VYPxVyoRZ3nrxcD+3lKnITuQkGBAOCAcGAYEAwcLxhgEgDCsLoT7ox9JyBWLJsESvDRC4QacDWC2UsF/zoO6RP2i2iNFuEI+WAGy54uDjgRdni4e/K7y44WFGklI7OhJ0zUljDZliDZmR1zsLpZw3F+x+/iWdfmI2lLz+Dl996DnMWzsKJ/zgRjz7xKF5/fxmefXE+XnhtCV54/Tm88NpzeOmN5/Hca4uxJX8TfCkH9J5Cjrnw3mfv4KT6J+K8C0firH/9k4mC80efh/6D+yEr7RZB5ALFgRg0eBDGTxrH7af4B7aQieMojBj5T0yZMVGRS6gI2kAhiv35KPYXQOvN52LwFmKPeTu3e/biaeg7tCfOPO8M3HLXLQjAi33mXdD49kPrK+SMEjpfPpRSoLicJCwwhXSg+AzrfvsZ2d3bocC6t4RcON5wKe2tW2OxkAtCLgg7KBgQDAgGBAOCAcGAYEAwUMcxwJYLUQO8cQcGndUfz72+mJVofVALBwVcTFo5sCNbLsQsiltEhuUCKeGUztIatmL1hu84I8MXqz/Dym9X/KF8vmoFVnzzCX7ZsgbuuBP2mBW2mBVar5It4q4H70T9xvVxwaXno9/g7ug3uBf6DOqFPsP6IK9fHv524t/QtWdX9BneG90G5qLnoDz0HJyHnoN6oO/wXsjt2wXvrHgDtPpfYN+DGIJ4+b0XkZ3XHr6AF7FUFA6Pg9v349of2S1i+55t0IeKYfQY0G9oXzRq1QA9B3VHp7xsdOyZjbwBPXDyP07C3GdncQwEY6QYbtjhStkU2aRs4FScUSvsETO7lwwbMRQPPHYfPvnyQzRv1RQGqw5+eDhtZ6bSTKksM79T1g6yVNiw+Re07doG+0y7EYSPLRcyj5PPZeUm8qj58hByodzDLqCt+aCVPpI+EgwIBgQDggHBgGBAMHBwGGDLhYgeAXhw+vlDMXvxDGWFPqhhxZctF4g84ICORC540XdYabYIrbeAlWudS4chI4fixAYnoXmb5mjYrEGZ0qBpAzRp1QQn1TsJY2+6AtFUGMaADgYfBVMEFiydj/pNG2DNhp84LaY3bmdrAl/Sw8EWddZinHzqSfhh7fd8vC1iQQh+kLuEsvUhBC+nynRQAMSYmY/76scv0bV/Dn+m/4II8Offd/3K5IHb5+Lv+3V7kdc/D5OnP4HPv/oM7y5/G2+//xa+Wv0levfrhamzJ/NxxnBxCbFApAoRBOTaofVo2BXko88/wAl/PwG/bt8IT8SFFllNMXm6YvWQ79gLe9zChXGaVPqK9tF3Y5BiX4Tx+Tcr0b57exi8WnjhlJgLopeVIaFq4xgn5IKAuNaDuDY+eFLng5sQibxEXoIBwYBgQDAgGDhMDMQt0AeUzAqXXHMxbr3nZlaidcGikoCOJGOVXPDBhb7DemP2gukAkjAENXCmqA52aO1aFBmKoDVqUWwoLina9GfaX6QrhNFphDtuhzlgYDJg7rNzcEqDU/DGR29xTAa9Twtn3AZX3AZr2Mir9/sNe/CPeidh5VcrOJ2lwa+FK06pLK28pWPtUSWdYwwBfPHdp7ju9itx1vln4YQTT8ClV43GdbdejbE3Xo7r/n0Vzjh7CE489UScc+FIPP3sNKzftg4t27TE7uKd3P4QAginiYiRo87BpOmKu4Q5rC1J0elOWOFJ2kCBGMkSw+wyo21OO9z9wL3wxD3wwoPFLy3AyaeeiE2bN8Kb9EDjLmRXEIWYUCxD1FSTSirKFJ5/9Xn0GNiDM1/QcZIt4v/bO/fgqO4qjmdEHaBWLK08E6Q8AyS2EKHDo1RnOhRtYeiMrVUcBemAdKwjMLUC0xYUKh2IlCIWQigPAWsFO+2MVma04x+8AoQQmhJggX3fu7t37+5mN/vem69zzt0bE0yXgZg2gZOZ32x272/v4/w+9+4933t+53SScfHrPnO/TsQFgfAzh1BuFuRCKgwIA8KAMCAMCAPCQNcyEDL8cOZLUf5qzQuY9uhUdq6VpKtVXKDohf+KCxFMnD4RG1+nCIcsvCQuGD5oNH2iRUcYYUSNIOc9oNwH3Pi9jmiLzmJCU07nyAI940OToeOR78zAlh2ViGaD+MbDD2L8pLF4YHIZyipKMWHSWJRNGY9x5WPw+S/0Qun40SifPB6lE0ejbNI4TJhUigcfKsfwcSWY/9PvIdissvP/4ckjWLB0Pp5bthSrf7MKL675JZ77xRIs/tkiLF/1POhYV6xaju8vfAY7Dr6Jg+8fQMmoYmhRFWrMBYd+GfbgJTRldEz95lSs2/gy20XN2yWU8yOcC4DKXkazOiKpMMonleHrE8sRifmhJRVOUklRFfOemYOBw74Kh/8akojDHXXwfXY4p3HUQ5CjGVS4olThAli1fiVmPjaDIzb8aQX+rCr35eKb9WgGRFwQgHs0wHIj0rU3ImJfsa8wIAwIA8KAMHB7MKAbAXjiDhYKDr33NkaVjYQaVUDJFjnnQj7vAokLWsaHKJow5eHJqNz6Gn9HiTvYmddyPqgpLzd/ygN/soOW8nAFhkBaBTnnepZKLeoccRDOBnA10Ii9f9qNql3bUf1WFXbu2o7tO7fhrX3V2LxlE/rc1RsvrFyBfft3Y9v2rdi5i/pUYdfunfjDjt/j8AfvwBd3w5Owc96FLNLsrDuUa3h53Uuw3r9eVYl3/3aYl2Xz1SiWLFuMb8+dzZ8FEl4WDaicJSVYnP6taVizYTUv8yZdPK2Bki86w1dAURJ21YaKaRUYVDIAjbYGJBCBmqB+KpeTDEZVTJ5egSEjB6HuwhmO+CCBwd1khxr3QEsrCKS9HKURzUXwyOMzsXbTGhYXvHEXyLZyvokNejIDIi7ISSwXMWFAGBAGhAFhQBgQBoSB25wBCrsnJ5iiCCK5ACcwrN5fzQ6wmnRzPgWqGmGKCyqiiGDyzApsemOD2SfuRNggIYJyCagc7dCRE9R2GoCVx4FeqW8EGidJpGSGn/QXzej4cv8voebc0XwXo8OuzQjz+uxRG3T48NG1OvS7727Me2ou3BE7O/Lb9m9BUVERVq5/kfMc1Nvr0b/4Hhx8Z78ZLdDshpbywhO1c1JImhbxymtmKUoPiws0HULn7R/++5/Rf9A9GFE6Ch/b6jl3BU0zoYSPFBWiJBwIpVUoIQdmz52Fvv36YPO2SsRbmjlHA1XRoOkV/oSbc0bUXajFoDEDcbahFlRWk0QMsl1HNpXPRHDoKQyIuHCb/5D0FBBlP+WiKQwIA8KAMCAMCAPCQNcyQNUOvBy9ACxbtQyPPTkLBtJQml2tTi0JB5R4kCIdGux18ATtiBo6QllKaGjun7ncTHJYaMwsoYH60P823yVcdF/ARc9F1NvOof5yHeptZqttPIVLzo/x72P/Qu++X8TufdW4qlxGTcNxnLedw3lbHbd6Wy0LCRc9DXDoV1gEuaxewsDiAVi4+McsBGg5Fc7YVf7/3SOHMHjUQIRiOl793asovn8wQk0BRGnKRtyPWDLKLZmLo+KhiVhXSZEEgCvuQhopNFw7jyd/MA9FvYrw9I+eghpS0IQwXM0OniJCgoxm+BAyVBYYgmmFK0Gs/u1KFhjGlI/Gjj3b4dXc0KIeqDHKe2FgxcrlmD1vFlemoEgQPyWnzIswhWwqy7r2HBH7ds6+Ii6IuND6YyInU+dOJrGf2E8YEAaEAWFAGBAGujMD5OBT1QiKIHAFnBg8ZhD++sFf8uH7lNjRGj8zMiHWEmInnKokcELF/NQJOkYrKqHQ8Vrigpo0Ezo+/ex3cd+Ie/G18uEYMnYIhpZe3wZj2NihuHdwf55aUDJuaL7PUBSPM9uwCcUY/kAJvjL8bhw4vA++iIK+A/vg2aWLWBRQox74Um5oLT4uPRnKaAglNdRdqsXn7uqFrdVvcKRAKOXDucbTKJ9SjhGl92PY6KEYMnoAai/WIJwLQk0r+MmyBSjqXcRTSPa+vYftFEhStQcXWFQgP4IEAYOEFsoB4YMv6eIoCQMZ1DaexqKlC1lk6F/cDx+e+geySMDmvICSkcX459EjXNKSpqvwesQvEb+khzMg4kIPH8BCF3RZZv1AyquwIAwIA8KAMCAMCAPCgCUIUAg+PT3fXF2J0qljoDUr7Bj7U27oBgkLKkcaaGkf9IxZ6YD4scQCaz1UnrEQV9yfnG+KejACOG87j2Onj6Pm7EmcOHMCJ2rbNvOzk7UncKb+NGrO1uT7WH1P4kSt2ej7R08dhUd3wR12Yt/7e6BnNESMECgxIk37oGPQDAXehJOrUNRdPYv1W9bD3eSClqZ98sMdtqPqj29i3ca12Fy1Cacaj3NJSF/Kw9Me1m/9NV7Z8BK0hB8tyEFJeMxykXmRpdUe9J6nNJivFP1B5SYpjwP91Xx0DLsP7YQzQtEUOcyZ/wQWLKEoixaocWfe3oVtWcjOskxs110YEHHhBhfF7jJQsh9y0RAGhAFhQBgQBoQBYUAY6CwDHHqf9cGf8iKNBH74/HysWPtzZBGHL0XJCb0I5kxxgUUEfip/67kArHXQfscQ4gSMCTRx3oFPeqV+cUQK9kkhhggCaIKGHBIIZDzQeGpBACR60NQIEheCLT74M14WC1KImxEX+WMKwQ8DKXb4yemPIcyRHSSEUMshxY0iN6h8pCUmFBoDS3ihXAwkUtD3SGQwhYY0Dry3FzPnzEA4oyOU8fNUkxuJNIW2J8vkmtCdGBBxQcSFgopzd4JV9kUunsKAMCAMCAPCgDAgDHSOgVYHmQUGBVRC0RG2sWNOYf0kLFCjygVW66zNyXmm7apJJ7zNdnibHQWbcoPllDeCSmMGMl5oWQXu2DWuwkCJFa19ZXEhfyw03SOQUTiaQMuYUz5ofwJZBY7YFdhjNjiiV6DEzaSKtIyiLSjCw9Ps4MoX1npv5pWFnBxNo3By+Ul6T9ELEYQQNnQErWoaksixddxuxr7St3PXgq6wn4gLIi7IySwMCAPCgDAgDAgDwoAwcIcxoBsatIyfHepwi9b6VJ4caxIVAm3a/8MJofW2bVT+8lYbO//58Wq3zjbigrXPZiLK/LYoUWUHUxqob7vPr4vWoGWc6JLEig62YW2ro9fW9VLix6yGCNW2SLk5qoGW8bZvcp0dbUc+636O9p04JiIu3GE/JHci5HLMcrEVBoQBYUAYEAaEAWGgPQOtTm/+Kb0Vzk926gpxoSfbnyMQsqb9rGiEWzke67tWJEe7MRCfRATO24ABERdug0G8lYubfKf9D6zYQ+whDAgDwoAwIAwIA3cSA+ZT8/bRBNaTdBEX2p8LlihAfLT9/2Z5YTGhTeTEzX5f+rcfF7FH97OHiAsiLohKKAwIA8KAMCAMCAPCgDAgDOSnKUjkwvVOa2uEwXXTJa7vJ++7n7MrY/LpjomIC/JDIjcTwoAwIAwIA8KAMCAMCAPCwP8wYOVdEAft03XQxN5i757KwH8AvoH2dTTLVM4AAAAASUVORK5CYII=;" parent="1" vertex="1">
                    <mxGeometry x="90" y="700" width="1047" height="301" as="geometry"/>
                </mxCell>
                <mxCell id="2" value="&lt;font style=&quot;font-size: 20px&quot;&gt;时间轮&lt;/font&gt;" style="text;html=1;align=center;verticalAlign=middle;resizable=0;points=[];autosize=1;strokeColor=#b85450;fillColor=#f8cecc;" vertex="1" parent="1">
                    <mxGeometry x="170" y="50" width="80" height="20" as="geometry"/>
                </mxCell>
            </root>
        </mxGraphModel>
    </diagram>
</mxfile>
